<svg width="31" height="35" viewBox="0 0 31 35" fill="none" xmlns="http://www.w3.org/2000/svg">
<path d="M24.125 2.41479H2.31183C1.3683 2.41479 0.603516 3.17965 0.603516 4.1231V32.7783C0.603516 33.7218 1.36837 34.4866 2.31183 34.4866H24.125C25.0685 34.4866 25.8333 33.7218 25.8333 32.7783V4.1231C25.8333 3.17965 25.0685 2.41479 24.125 2.41479Z" fill="white"/>
<path d="M24.1232 2.40552H22.2305V34.4974H24.1232C25.0673 34.4974 25.8326 33.7321 25.8326 32.788V4.11492C25.8326 3.17085 25.0673 2.40552 24.1232 2.40552Z" fill="#FFA77D"/>
<path d="M17.6515 4.31701H8.78521C8.22426 4.31701 7.76953 3.86228 7.76953 3.30133V1.52838C7.76953 0.967424 8.22426 0.512695 8.78521 0.512695H17.6515C18.2124 0.512695 18.6671 0.967424 18.6671 1.52838V3.30133C18.6671 3.86228 18.2124 4.31701 17.6515 4.31701Z" fill="#FFA77D"/>
<path d="M24.3174 34.4866C27.677 34.4866 30.4004 31.7631 30.4004 28.4036C30.4004 25.044 27.677 22.3206 24.3174 22.3206C20.9578 22.3206 18.2344 25.044 18.2344 28.4036C18.2344 31.7631 20.9578 34.4866 24.3174 34.4866Z" fill="#FFA77D"/>
<path d="M24.3167 22.3206C23.6897 22.3206 23.0848 22.4154 22.5156 22.5916C24.9959 23.3594 26.7976 25.671 26.7976 28.4036C26.7976 31.1361 24.9959 33.4478 22.5156 34.2155C23.0848 34.3917 23.6897 34.4866 24.3167 34.4866C27.6763 34.4866 30.3997 31.7631 30.3997 28.4036C30.3997 25.044 27.6763 22.3206 24.3167 22.3206Z" fill="#FB5100"/>
<path d="M15.0605 0.512764V4.31701H17.6515C18.2125 4.31701 18.6672 3.86228 18.6672 3.30133V1.52838C18.6672 0.967424 18.2125 0.512695 17.6515 0.512695H15.0605V0.512764Z" fill="#FB5100"/>
<path d="M16.2774 26.0573H4.91144C4.62806 26.0573 4.39844 25.8276 4.39844 25.5443C4.39844 25.2609 4.62806 25.0312 4.91144 25.0312H16.2774C16.5608 25.0312 16.7904 25.2609 16.7904 25.5443C16.7904 25.8276 16.5608 26.0573 16.2774 26.0573Z" fill="#3F2355"/>
<path d="M21.5257 17.9149H4.91144C4.62806 17.9149 4.39844 17.6852 4.39844 17.4019C4.39844 17.1186 4.62806 16.8889 4.91144 16.8889H21.5257C21.809 16.8889 22.0387 17.1186 22.0387 17.4019C22.0387 17.6852 21.809 17.9149 21.5257 17.9149Z" fill="#3F2355"/>
<path d="M21.5257 21.986H4.91144C4.62806 21.986 4.39844 21.7563 4.39844 21.473C4.39844 21.1896 4.62806 20.96 4.91144 20.96H21.5257C21.809 20.96 22.0387 21.1896 22.0387 21.473C22.0387 21.7563 21.809 21.986 21.5257 21.986Z" fill="#3F2355"/>
<path d="M13.2185 8.3307H4.91144C4.62806 8.3307 4.39844 8.10101 4.39844 7.81769C4.39844 7.53438 4.62806 7.30469 4.91144 7.30469H13.2185C13.5019 7.30469 13.7315 7.53438 13.7315 7.81769C13.7315 8.10101 13.5019 8.3307 13.2185 8.3307Z" fill="#3F2355"/>
<path d="M21.5257 13.8436H4.91144C4.62806 13.8436 4.39844 13.6139 4.39844 13.3306C4.39844 13.0473 4.62806 12.8176 4.91144 12.8176H21.5257C21.809 12.8176 22.0387 13.0473 22.0387 13.3306C22.0387 13.6139 21.809 13.8436 21.5257 13.8436Z" fill="#3F2355"/>
<path d="M23.811 31.1826C23.8059 31.1826 23.8009 31.1825 23.7957 31.1824C23.6356 31.1777 23.4868 31.0983 23.3937 30.968L21.7735 28.7024C21.6087 28.4719 21.6619 28.1515 21.8924 27.9867C22.1226 27.8221 22.4433 27.8751 22.608 28.1056L23.8361 29.8229L27.0371 25.8671C27.2152 25.6469 27.5382 25.6127 27.7585 25.791C27.9788 25.9692 28.0129 26.2922 27.8346 26.5125L24.2097 30.9923C24.1122 31.1129 23.9655 31.1826 23.811 31.1826Z" fill="#3F2355"/>
<path d="M17.6508 4.83026H8.78462C7.94171 4.83026 7.25586 4.14454 7.25586 3.30157V1.52862C7.25586 0.685718 7.94171 0 8.78462 0H17.6508C18.4937 0 19.1795 0.685718 19.1795 1.52869V3.30164C19.1795 4.14454 18.4937 4.83026 17.6508 4.83026ZM8.78462 1.02601C8.50739 1.02601 8.28187 1.25146 8.28187 1.52869V3.30164C8.28187 3.5788 8.50739 3.80431 8.78462 3.80431H17.6508C17.928 3.80431 18.1535 3.57887 18.1535 3.30164V1.52869C18.1535 1.25153 17.928 1.02601 17.6508 1.02601H8.78462Z" fill="#3F2355"/>
<path d="M25.8314 20.6373C25.548 20.6373 25.3184 20.4076 25.3184 20.1243V4.12324C25.3184 3.46413 24.7821 2.92787 24.123 2.92787H21.0521C20.7687 2.92787 20.5391 2.69818 20.5391 2.41486C20.5391 2.13155 20.7687 1.90186 21.0521 1.90186H24.123C25.3478 1.90186 26.3444 2.89832 26.3444 4.12324V20.1243C26.3444 20.4076 26.1147 20.6373 25.8314 20.6373Z" fill="#3F2355"/>
<path d="M19.7079 34.9997H2.31123C1.08638 34.9997 0.0898438 34.0033 0.0898438 32.7784V4.12324C0.0898438 2.89839 1.08631 1.90186 2.31123 1.90186H5.38215C5.66553 1.90186 5.89516 2.13154 5.89516 2.41486C5.89516 2.69818 5.66553 2.92787 5.38215 2.92787H2.31123C1.65212 2.92787 1.11586 3.46406 1.11586 4.12324V32.7784C1.11586 33.4375 1.65212 33.9738 2.31123 33.9738H19.7079C19.9913 33.9738 20.2209 34.2035 20.2209 34.4868C20.2209 34.7701 19.9913 34.9997 19.7079 34.9997Z" fill="#3F2355"/>
<path d="M24.3149 35.0002C20.6778 35.0002 17.7188 32.0412 17.7188 28.4041C17.7188 24.7671 20.6778 21.8081 24.3149 21.8081C27.9519 21.8081 30.9109 24.7671 30.9109 28.4041C30.9109 32.0412 27.9519 35.0002 24.3149 35.0002ZM24.3149 22.8341C21.2435 22.8341 18.7448 25.3328 18.7448 28.4041C18.7448 31.4755 21.2434 33.9742 24.3149 33.9742C27.3861 33.9742 29.8849 31.4755 29.8849 28.4041C29.8849 25.3328 27.3862 22.8341 24.3149 22.8341Z" fill="#3F2355"/>
</svg>
