<?xml version="1.0" encoding="utf-8"?>
<!-- Generator: Adobe Illustrator 24.2.0, SVG Export Plug-In . SVG Version: 6.00 Build 0)  -->
<svg version="1.1" id="Layer_1" xmlns="http://www.w3.org/2000/svg" xmlns:xlink="http://www.w3.org/1999/xlink" x="0px" y="0px"
	 viewBox="0 0 135 46" style="enable-background:new 0 0 135 46;" xml:space="preserve">
<style type="text/css">
	.st0{fill:#FFFFFF;}
	.st1{fill:#333333;}
</style>
<path class="st0" d="M5,0h125c2.8,0,5,2.2,5,5v36c0,2.8-2.2,5-5,5H5c-2.8,0-5-2.2-5-5V5C0,2.2,2.2,0,5,0z"/>
<path class="st1" d="M34.1,21.8c0-2.5,2-3.7,2.1-3.7c-1.2-1.7-3-1.9-3.6-1.9c-1.5-0.2-3,0.9-3.7,0.9c-0.8,0-2-0.9-3.2-0.9
	c-1.6,0-3.2,1-4,2.5c-1.7,3-0.4,7.4,1.2,9.9c0.8,1.2,1.8,2.5,3.1,2.5c1.2,0,1.7-0.8,3.2-0.8c1.5,0,1.9,0.8,3.2,0.8
	c1.3,0,2.2-1.2,3-2.4c1-1.4,1.3-2.7,1.4-2.8C36.7,25.7,34.2,24.8,34.1,21.8z"/>
<path class="st1" d="M31.7,14.5c0.7-0.8,1.1-2,1-3.1c-1,0-2.2,0.7-2.9,1.5c-0.6,0.7-1.2,1.9-1,3C29.9,16,31,15.3,31.7,14.5z"/>
<path class="st1" d="M52.2,30.8h-1.7l-1-3h-3.3l-0.9,3h-1.7l3.3-10.2h2L52.2,30.8z M49.2,26.5l-0.9-2.7c-0.1-0.3-0.3-0.9-0.5-1.9h0
	c-0.1,0.4-0.3,1.1-0.5,1.9l-0.9,2.7H49.2z"/>
<path class="st1" d="M60.6,27c0,1.3-0.3,2.2-1,3c-0.6,0.6-1.4,1-2.3,1c-1,0-1.7-0.3-2.1-1v3.9h-1.6v-7.9c0-0.8,0-1.6-0.1-2.4H55
	l0.1,1.2h0c0.5-0.9,1.4-1.3,2.5-1.3c0.9,0,1.6,0.3,2.2,1C60.4,25,60.6,25.9,60.6,27z M59,27.1c0-0.7-0.2-1.3-0.5-1.8
	c-0.4-0.5-0.8-0.7-1.4-0.7c-0.4,0-0.8,0.1-1.1,0.4c-0.3,0.3-0.5,0.6-0.6,1.1c0,0.2-0.1,0.4-0.1,0.5v1.2c0,0.5,0.2,1,0.5,1.4
	c0.3,0.4,0.8,0.6,1.3,0.6c0.6,0,1.1-0.2,1.4-0.7C58.8,28.5,59,27.9,59,27.1z"/>
<path class="st1" d="M69.1,27c0,1.3-0.3,2.2-1,3c-0.6,0.6-1.4,1-2.3,1c-1,0-1.7-0.3-2.1-1v3.9h-1.6v-7.9c0-0.8,0-1.6-0.1-2.4h1.4
	l0.1,1.2h0c0.5-0.9,1.4-1.3,2.5-1.3c0.9,0,1.6,0.3,2.2,1C68.8,25,69.1,25.9,69.1,27z M67.4,27.1c0-0.7-0.2-1.3-0.5-1.8
	c-0.4-0.5-0.8-0.7-1.4-0.7c-0.4,0-0.8,0.1-1.1,0.4c-0.3,0.3-0.5,0.6-0.6,1.1c0,0.2-0.1,0.4-0.1,0.5v1.2c0,0.5,0.2,1,0.5,1.4
	c0.3,0.4,0.8,0.6,1.3,0.6c0.6,0,1.1-0.2,1.4-0.7C67.3,28.5,67.4,27.9,67.4,27.1z"/>
<path class="st1" d="M78.6,27.9c0,0.9-0.3,1.6-0.9,2.1c-0.7,0.6-1.6,0.9-2.8,0.9c-1.1,0-2-0.2-2.6-0.6l0.4-1.4
	c0.7,0.4,1.5,0.6,2.4,0.6c0.6,0,1.1-0.1,1.4-0.4c0.3-0.3,0.5-0.6,0.5-1.1c0-0.4-0.1-0.8-0.4-1c-0.3-0.3-0.8-0.5-1.4-0.8
	c-1.8-0.7-2.7-1.6-2.7-2.9c0-0.8,0.3-1.5,0.9-2.1c0.6-0.5,1.5-0.8,2.5-0.8c0.9,0,1.7,0.2,2.3,0.5l-0.4,1.3c-0.6-0.3-1.2-0.5-2-0.5
	c-0.6,0-1,0.1-1.4,0.4c-0.3,0.3-0.4,0.6-0.4,0.9c0,0.4,0.2,0.7,0.5,1c0.3,0.2,0.8,0.5,1.5,0.8c0.9,0.4,1.5,0.8,1.9,1.2
	C78.4,26.6,78.6,27.2,78.6,27.9z"/>
<path class="st1" d="M84,24.7h-1.8v3.6c0,0.9,0.3,1.4,1,1.4c0.3,0,0.5,0,0.7-0.1l0,1.2c-0.3,0.1-0.7,0.2-1.3,0.2
	c-0.7,0-1.1-0.2-1.5-0.6c-0.4-0.4-0.5-1.1-0.5-2v-3.7h-1.1v-1.2h1.1v-1.3l1.6-0.5v1.8H84V24.7z"/>
<path class="st1" d="M92.1,27c0,1.1-0.3,2.1-1,2.8c-0.7,0.7-1.6,1.1-2.7,1.1c-1.1,0-1.9-0.4-2.6-1.1c-0.6-0.7-1-1.6-1-2.7
	c0-1.1,0.3-2.1,1-2.8c0.7-0.7,1.6-1.1,2.7-1.1c1.1,0,1.9,0.4,2.6,1.1C91.8,25,92.1,25.9,92.1,27z M90.4,27.1c0-0.7-0.1-1.3-0.4-1.7
	c-0.3-0.6-0.8-0.9-1.5-0.9c-0.7,0-1.2,0.3-1.5,0.9c-0.3,0.5-0.4,1.1-0.4,1.8c0,0.7,0.1,1.3,0.4,1.7c0.4,0.6,0.9,0.9,1.5,0.9
	c0.6,0,1.1-0.3,1.5-0.9C90.3,28.3,90.4,27.8,90.4,27.1z"/>
<path class="st1" d="M97.4,24.9c-0.2,0-0.3,0-0.5,0c-0.6,0-1,0.2-1.3,0.6c-0.3,0.4-0.4,0.9-0.4,1.5v3.9h-1.6v-5c0-0.9,0-1.6,0-2.3
	h1.4l0.1,1.4h0c0.2-0.5,0.4-0.9,0.8-1.2c0.4-0.3,0.8-0.4,1.2-0.4c0.2,0,0.3,0,0.4,0L97.4,24.9z"/>
<path class="st1" d="M104.8,26.8c0,0.3,0,0.5-0.1,0.7h-4.9c0,0.7,0.3,1.3,0.7,1.7c0.4,0.3,0.9,0.5,1.6,0.5c0.7,0,1.4-0.1,2-0.3
	l0.3,1.1c-0.7,0.3-1.5,0.5-2.5,0.5c-1.1,0-2-0.3-2.7-1c-0.6-0.7-1-1.6-1-2.7c0-1.1,0.3-2,0.9-2.8c0.6-0.8,1.5-1.2,2.6-1.2
	c1.1,0,1.9,0.4,2.4,1.2C104.5,25.1,104.8,25.8,104.8,26.8z M103.2,26.3c0-0.5-0.1-0.9-0.3-1.3c-0.3-0.5-0.7-0.7-1.3-0.7
	c-0.5,0-1,0.2-1.3,0.7c-0.3,0.4-0.4,0.8-0.5,1.3L103.2,26.3z"/>
<path class="st1" d="M48.4,16.9h-0.9l-0.5-1.5h-1.6L45,16.9h-0.8l1.6-5h1L48.4,16.9z M47,14.8l-0.4-1.3c0-0.1-0.1-0.4-0.3-0.9h0
	c-0.1,0.2-0.1,0.5-0.2,0.9l-0.4,1.3H47z"/>
<path class="st1" d="M52.5,13.3l-1.4,3.6h-0.8L49,13.3h0.9l0.6,1.9c0.1,0.3,0.2,0.6,0.3,0.9h0c0.1-0.3,0.2-0.6,0.3-0.9l0.6-1.9H52.5
	z"/>
<path class="st1" d="M55.4,16.9l-0.1-0.4h0c-0.2,0.3-0.6,0.5-1.1,0.5c-0.6,0-1.1-0.5-1.1-1.1c0-0.9,0.8-1.4,2.1-1.4v-0.1
	c0-0.5-0.3-0.7-0.8-0.7c-0.4,0-0.7,0.1-0.9,0.3l-0.2-0.5c0.3-0.2,0.8-0.3,1.2-0.3c0.9,0,1.4,0.5,1.4,1.5v1.3c0,0.4,0,0.6,0.1,0.9
	L55.4,16.9z M55.3,15.1c-0.9,0-1.3,0.2-1.3,0.7c0,0.4,0.2,0.6,0.6,0.6c0.4,0,0.8-0.3,0.8-0.7V15.1z"/>
<path class="st1" d="M57.9,12.7c-0.3,0-0.5-0.2-0.5-0.5s0.2-0.5,0.5-0.5c0.3,0,0.5,0.2,0.5,0.5C58.4,12.5,58.1,12.7,57.9,12.7z
	 M57.5,13.3h0.8v3.6h-0.8V13.3z"/>
<path class="st1" d="M59.7,11.6h0.8v5.3h-0.8V11.6z"/>
<path class="st1" d="M63.9,16.9l-0.1-0.4h0c-0.2,0.3-0.6,0.5-1.1,0.5c-0.6,0-1.1-0.5-1.1-1.1c0-0.9,0.8-1.4,2.1-1.4v-0.1
	c0-0.5-0.3-0.7-0.8-0.7c-0.4,0-0.7,0.1-0.9,0.3l-0.2-0.5c0.3-0.2,0.8-0.3,1.2-0.3c0.9,0,1.4,0.5,1.4,1.5v1.3c0,0.4,0,0.6,0,0.9
	L63.9,16.9L63.9,16.9z M63.8,15.1c-0.9,0-1.3,0.2-1.3,0.7c0,0.4,0.2,0.6,0.6,0.6c0.4,0,0.8-0.3,0.8-0.7V15.1z"/>
<path class="st1" d="M67.8,17c-0.5,0-0.9-0.2-1.1-0.6h0l0,0.6H66c0-0.3,0-0.6,0-1v-4.3h0.8v2.2h0c0.2-0.4,0.6-0.6,1.2-0.6
	c0.9,0,1.5,0.7,1.5,1.8C69.4,16.2,68.8,17,67.8,17z M67.7,13.9c-0.5,0-0.9,0.4-0.9,1v0.6c0,0.5,0.4,0.9,0.9,0.9c0.6,0,1-0.5,1-1.3
	C68.6,14.4,68.3,13.9,67.7,13.9z"/>
<path class="st1" d="M70.6,11.6h0.8v5.3h-0.8V11.6z"/>
<path class="st1" d="M75.8,15.3h-2.4c0,0.7,0.5,1.1,1.1,1.1c0.4,0,0.7-0.1,1-0.2l0.1,0.6c-0.3,0.2-0.7,0.2-1.2,0.2
	c-1.1,0-1.8-0.7-1.8-1.8c0-1.1,0.7-1.9,1.7-1.9c0.9,0,1.5,0.7,1.5,1.7C75.9,15.1,75.8,15.2,75.8,15.3z M75.1,14.7c0-0.6-0.3-1-0.8-1
	c-0.5,0-0.8,0.4-0.9,1H75.1z"/>
<path class="st1" d="M80.7,17c-1.1,0-1.7-0.8-1.7-1.9c0-1.1,0.7-1.9,1.8-1.9c1,0,1.7,0.8,1.7,1.9C82.5,16.2,81.8,17,80.7,17z
	 M80.7,13.8c-0.6,0-1,0.5-1,1.3c0,0.7,0.4,1.3,0.9,1.3s0.9-0.6,0.9-1.3C81.7,14.4,81.3,13.8,80.7,13.8z"/>
<path class="st1" d="M86.8,16.9H86v-2.1c0-0.6-0.2-1-0.7-1c-0.5,0-0.8,0.4-0.8,0.9v2.2h-0.8v-2.6c0-0.3,0-0.7,0-1h0.7l0,0.6h0
	c0.2-0.4,0.7-0.6,1.1-0.6c0.8,0,1.3,0.6,1.3,1.5V16.9z"/>
<path class="st1" d="M92.1,13.9h-0.9v1.8c0,0.4,0.2,0.7,0.5,0.7c0.1,0,0.3,0,0.4,0l0,0.6C91.9,17,91.7,17,91.4,17
	c-0.6,0-1-0.4-1-1.3v-1.8h-0.5v-0.6h0.5v-0.7l0.8-0.2v0.9h0.9L92.1,13.9"/>
<path class="st1" d="M96.3,16.9h-0.8v-2.1c0-0.6-0.2-1-0.7-1c-0.4,0-0.8,0.3-0.8,0.9v2.2h-0.8v-5.3H94v2.2h0
	c0.3-0.4,0.6-0.6,1.1-0.6c0.8,0,1.2,0.6,1.2,1.5V16.9z"/>
<path class="st1" d="M100.4,15.3H98c0,0.7,0.5,1.1,1.1,1.1c0.4,0,0.7-0.1,1-0.2l0.1,0.6c-0.3,0.2-0.7,0.2-1.2,0.2
	c-1.1,0-1.8-0.7-1.8-1.8c0-1.1,0.7-1.9,1.7-1.9c0.9,0,1.5,0.7,1.5,1.7C100.5,15.1,100.5,15.2,100.4,15.3z M99.7,14.7
	c0-0.6-0.3-1-0.8-1c-0.5,0-0.8,0.4-0.9,1H99.7z"/>
</svg>
