<svg width="96" height="69" viewBox="0 0 96 69" fill="none" xmlns="http://www.w3.org/2000/svg">
<path d="M84.5073 30.7631C90.565 30.7631 95.4757 25.8523 95.4757 19.7946C95.4757 13.7369 90.565 8.82617 84.5073 8.82617C78.4496 8.82617 73.5388 13.7369 73.5388 19.7946C73.5388 25.8523 78.4496 30.7631 84.5073 30.7631Z" fill="#FA9566"/>
<path d="M45.1934 6.27007L48.4245 5.56777C49.3935 5.35724 50.4037 5.44827 51.3193 5.82908C52.2348 6.2099 53.0118 6.86204 53.5456 7.69766L55.6276 10.9586" stroke="#3F2355" stroke-width="2" stroke-miterlimit="10" stroke-linecap="round"/>
<path d="M24.739 40.5941C22.7395 38.5938 20.1083 37.3487 17.2937 37.0708C14.4792 36.793 11.6553 37.5 9.30332 39.0708C6.95132 40.6415 5.21672 42.9789 4.39502 45.6852C3.57331 48.3914 3.71534 51.2992 4.79695 53.9125C5.87856 56.5257 7.83283 58.6829 10.3267 60.0169C12.8207 61.3509 15.6999 61.7791 18.474 61.2282C21.2481 60.6773 23.7454 59.1813 25.5404 56.9956C27.3354 54.81 28.317 52.0695 28.318 49.2412C28.3186 47.6355 28.0029 46.0458 27.3888 44.5621C26.7747 43.0783 25.8743 41.7297 24.739 40.5941V40.5941Z" stroke="#3F2355" stroke-width="2" stroke-miterlimit="10" stroke-linecap="round"/>
<path d="M29.9264 35.4072L24.7381 40.5955" stroke="#3F2355" stroke-width="2" stroke-miterlimit="10" stroke-linecap="round"/>
<path d="M75.4114 40.5941C73.4119 38.5938 70.7807 37.3487 67.9661 37.0708C65.1515 36.793 62.3277 37.5 59.9757 39.0708C57.6237 40.6415 55.8891 42.9789 55.0674 45.6852C54.2457 48.3914 54.3877 51.2992 55.4693 53.9125C56.5509 56.5257 58.5052 58.6829 60.9991 60.0169C63.493 61.3509 66.3723 61.7791 69.1464 61.2282C71.9205 60.6773 74.4178 59.1813 76.2128 56.9956C78.0078 54.81 78.9894 52.0695 78.9904 49.2412C78.991 47.6355 78.6752 46.0458 78.0612 44.5621C77.4471 43.0783 76.5467 41.7297 75.4114 40.5941V40.5941Z" stroke="#3F2355" stroke-width="2" stroke-miterlimit="10" stroke-linecap="round"/>
<path d="M58.0104 40.6724L51.7268 34.4561" stroke="#3F2355" stroke-width="2" stroke-miterlimit="10" stroke-linecap="round"/>
<path d="M15.8411 54.1332C18.5462 54.1332 20.7392 51.9402 20.7392 49.2351C20.7392 46.5299 18.5462 44.3369 15.8411 44.3369C13.1359 44.3369 10.9429 46.5299 10.9429 49.2351C10.9429 51.9402 13.1359 54.1332 15.8411 54.1332Z" stroke="#FA9566" stroke-width="2" stroke-miterlimit="10" stroke-linecap="round"/>
<path d="M66.769 54.1332C69.4742 54.1332 71.6672 51.9402 71.6672 49.2351C71.6672 46.5299 69.4742 44.3369 66.769 44.3369C64.0639 44.3369 61.8709 46.5299 61.8709 49.2351C61.8709 51.9402 64.0639 54.1332 66.769 54.1332Z" stroke="#FA9566" stroke-width="2" stroke-miterlimit="10" stroke-linecap="round"/>
<path d="M20.4415 5.37598H11.3466" stroke="#DBDAE1" stroke-width="2" stroke-miterlimit="10" stroke-linecap="round"/>
<path d="M15.8941 9.9238L15.9287 1.17383" stroke="#DBDAE1" stroke-width="2" stroke-miterlimit="10" stroke-linecap="round"/>
<path d="M87.2948 62.7822H78.2" stroke="#DBDAE1" stroke-width="2" stroke-miterlimit="10" stroke-linecap="round"/>
<path d="M82.7484 67.33L82.783 58.5801" stroke="#DBDAE1" stroke-width="2" stroke-miterlimit="10" stroke-linecap="round"/>
<path d="M73.0584 30.9585V23.3392C73.0583 22.1821 72.7306 21.0489 72.1132 20.0703C71.4959 19.0916 70.6141 18.3075 69.5698 17.809L55.5604 11.1182L53.7753 14.6057C52.2089 17.6657 49.6569 20.1085 46.5313 21.5396C43.4058 22.9707 39.8891 23.3065 36.5491 22.4929L28.3122 22.4202C26.5862 22.404 24.9115 21.831 23.5371 20.7866L20.5192 18.4949C19.258 17.5382 17.7819 16.9046 16.2196 16.6493L5.15512 14.8422C4.23581 14.8424 3.35422 15.2078 2.70417 15.8579C2.05412 16.5079 1.68885 17.3893 1.6886 18.3087V18.3087C1.68835 18.8403 1.84675 19.3599 2.14355 19.801C2.44034 20.2421 2.86199 20.5847 3.35457 20.7848L7.82804 22.6102L14.7679 25.7145C15.1649 25.8922 15.5019 26.1808 15.7384 26.5458C15.9748 26.9108 16.1007 27.3367 16.1005 27.7717V28.9811C16.1005 29.5058 16.3089 30.0091 16.6799 30.3801C17.0509 30.7511 17.5541 30.9594 18.0788 30.9594H20.6729C23.1033 30.9529 25.4769 31.6941 27.4715 33.0828C29.3846 34.4191 30.8412 36.3108 31.6443 38.5018C32.0389 39.592 32.7592 40.5343 33.7076 41.2012C34.656 41.8681 35.7866 42.227 36.946 42.2296H43.9598C45.1001 42.2246 46.2108 41.8662 47.1388 41.2036C48.0668 40.5409 48.7665 39.6064 49.1413 38.5295C49.9732 36.2911 51.4746 34.3637 53.4412 33.0091C55.4078 31.6546 57.744 30.9388 60.1319 30.9594H73.8194C74.828 30.9535 75.82 31.2165 76.6935 31.7209C77.567 32.2252 78.2905 32.9531 78.7896 33.8296L82.554 40.5674" stroke="#3F2355" stroke-width="2" stroke-miterlimit="10" stroke-linecap="round"/>
<path d="M37.8395 35.4072H41.0216" stroke="#3F2355" stroke-width="2" stroke-miterlimit="10" stroke-linecap="round"/>
<path d="M36.8787 29.3193H42.9432" stroke="#3F2355" stroke-width="2" stroke-miterlimit="10" stroke-linecap="round"/>
<path d="M63.9001 15.0967C63.0736 16.1889 62.628 17.5218 62.6319 18.8915C62.6321 20.5758 63.3013 22.1912 64.4923 23.3821C65.6832 24.5731 67.2985 25.242 68.9827 25.2423C70.4745 25.2457 71.9187 24.718 73.0565 23.7532" stroke="#3F2355" stroke-width="2" stroke-miterlimit="10" stroke-linecap="round"/>
<path d="M37.1342 20.0915C37.7874 18.7385 38.7156 17.5366 39.8596 16.5627C41.0037 15.5888 42.3383 14.8644 43.7782 14.4356C45.2181 14.0068 46.7317 13.8831 48.2221 14.0725C49.7125 14.2619 51.1471 14.7604 52.434 15.5357H52.4407" stroke="#3F2355" stroke-width="2" stroke-miterlimit="10" stroke-linecap="round"/>
</svg>
