<svg width="114" height="90" viewBox="0 0 114 90" fill="none" xmlns="http://www.w3.org/2000/svg">
<path d="M18.0442 36.1232C23.4486 36.1232 27.8297 31.8183 27.8297 26.5079C27.8297 21.1975 23.4486 16.8926 18.0442 16.8926C12.6398 16.8926 8.25873 21.1975 8.25873 26.5079C8.25873 31.8183 12.6398 36.1232 18.0442 36.1232Z" fill="#FA9566"/>
<path d="M75.846 62.085H41.3481" stroke="#3F2355" stroke-width="2" stroke-miterlimit="10" stroke-linecap="round"/>
<path d="M10.7786 36.4385C10.3582 37.2421 9.9849 38.0581 9.62996 38.8854C7.50596 43.9004 6.41282 49.2788 6.41364 54.7108C6.41288 55.6771 6.60583 56.634 6.98145 57.527C7.35707 58.42 7.90806 59.2318 8.60287 59.9156C9.29767 60.5993 10.1227 61.1417 11.031 61.5121C11.9392 61.8826 12.9127 62.0735 13.8961 62.0743H19.5728" stroke="#3F2355" stroke-width="2" stroke-miterlimit="10" stroke-linecap="round"/>
<path d="M102.898 36.4482C102.538 38.0707 102.356 39.7266 102.357 41.3874C102.357 44.4213 105.714 46.882 109.851 46.882H112.907" stroke="#3F2355" stroke-width="2" stroke-miterlimit="10" stroke-linecap="round"/>
<path d="M12.3867 80.6689H1" stroke="#DBDAE1" stroke-width="2" stroke-miterlimit="10" stroke-linecap="round"/>
<path d="M6.69391 86.2622L6.73759 75.499" stroke="#DBDAE1" stroke-width="2" stroke-miterlimit="10" stroke-linecap="round"/>
<path d="M92.4018 6.16992H81.0151" stroke="#DBDAE1" stroke-width="2" stroke-miterlimit="10" stroke-linecap="round"/>
<path d="M86.7078 11.7632L86.7515 1" stroke="#DBDAE1" stroke-width="2" stroke-miterlimit="10" stroke-linecap="round"/>
<path d="M86.7308 71.9158C92.7676 71.9158 97.6615 67.1071 97.6615 61.1752C97.6615 55.2433 92.7676 50.4346 86.7308 50.4346C80.6939 50.4346 75.8 55.2433 75.8 61.1752C75.8 67.1071 80.6939 71.9158 86.7308 71.9158Z" stroke="#3F2355" stroke-width="2" stroke-miterlimit="10" stroke-linecap="round"/>
<path d="M86.7308 65.839C89.1459 65.839 91.1037 63.9152 91.1037 61.542C91.1037 59.1689 89.1459 57.2451 86.7308 57.2451C84.3156 57.2451 82.3578 59.1689 82.3578 61.542C82.3578 63.9152 84.3156 65.839 86.7308 65.839Z" stroke="#FA9566" stroke-width="2" stroke-miterlimit="10" stroke-linecap="round"/>
<path d="M30.4667 71.9158C36.5036 71.9158 41.3975 67.1071 41.3975 61.1752C41.3975 55.2433 36.5036 50.4346 30.4667 50.4346C24.4299 50.4346 19.536 55.2433 19.536 61.1752C19.536 67.1071 24.4299 71.9158 30.4667 71.9158Z" stroke="#3F2355" stroke-width="2" stroke-miterlimit="10" stroke-linecap="round"/>
<path d="M30.4679 65.839C32.883 65.839 34.8409 63.9152 34.8409 61.542C34.8409 59.1689 32.883 57.2451 30.4679 57.2451C28.0528 57.2451 26.0949 59.1689 26.0949 61.542C26.0949 63.9152 28.0528 65.839 30.4679 65.839Z" stroke="#FA9566" stroke-width="2" stroke-miterlimit="10" stroke-linecap="round"/>
<path d="M81.015 36.4434H12.0099" stroke="#3F2355" stroke-width="2" stroke-miterlimit="10" stroke-linecap="round"/>
<path d="M49.7085 18.9619L49.2268 36.3968" stroke="#3F2355" stroke-width="2" stroke-miterlimit="10" stroke-linecap="round"/>
<path d="M97.6132 62.0785H105.424C107.408 62.0785 109.311 61.3042 110.714 59.9258C112.117 58.5475 112.906 56.6784 112.907 54.7288V54.7288V43.8073C112.907 41.8544 112.117 39.9818 110.712 38.6009C109.306 37.2199 107.4 36.4438 105.413 36.4438H82.9792C81.9955 36.4438 81.0214 36.2528 80.1131 35.8817C79.2047 35.5105 78.38 34.9665 77.6862 34.2812L69.8752 24.2222C68.6047 22.5886 66.9683 21.2649 65.0931 20.3528C63.2179 19.4407 61.1541 18.965 59.0617 18.9629H46.8053C43.0811 18.9627 39.4127 19.8529 36.1169 21.557C32.8211 23.2611 29.9969 25.7279 27.8879 28.7441L22.503 36.4438" stroke="#3F2355" stroke-width="2" stroke-miterlimit="10" stroke-linecap="round"/>
<path d="M7.99304 43.54H13.478C14.3699 43.5561 15.2199 43.9159 15.8449 44.5414C16.4699 45.167 16.8201 46.0082 16.8201 46.8848C16.8201 47.7614 16.4699 48.6031 15.8449 49.2287C15.2199 49.8542 14.3699 50.214 13.478 50.2301H7.5864C7.28565 50.2354 6.98576 50.1972 6.69623 50.1171" stroke="#3F2355" stroke-width="2" stroke-miterlimit="10" stroke-linecap="round"/>
<path d="M48.8477 53.309C50.1374 53.309 51.1829 52.2816 51.1829 51.0144C51.1829 49.7471 50.1374 48.7197 48.8477 48.7197C47.558 48.7197 46.5125 49.7471 46.5125 51.0144C46.5125 52.2816 47.558 53.309 48.8477 53.309Z" fill="#3F2355"/>
<path d="M52.4534 49.7728C53.7431 49.7728 54.7886 48.7455 54.7886 47.4782C54.7886 46.2109 53.7431 45.1836 52.4534 45.1836C51.1637 45.1836 50.1182 46.2109 50.1182 47.4782C50.1182 48.7455 51.1637 49.7728 52.4534 49.7728Z" fill="#3F2355"/>
<path d="M56.0579 53.309C57.3476 53.309 58.3931 52.2816 58.3931 51.0144C58.3931 49.7471 57.3476 48.7197 56.0579 48.7197C54.7682 48.7197 53.7227 49.7471 53.7227 51.0144C53.7227 52.2816 54.7682 53.309 56.0579 53.309Z" fill="#3F2355"/>
<path d="M59.6636 49.7728C60.9533 49.7728 61.9988 48.7455 61.9988 47.4782C61.9988 46.2109 60.9533 45.1836 59.6636 45.1836C58.3738 45.1836 57.3283 46.2109 57.3283 47.4782C57.3283 48.7455 58.3738 49.7728 59.6636 49.7728Z" fill="#3F2355"/>
<path d="M63.2692 53.309C64.5589 53.309 65.6044 52.2816 65.6044 51.0144C65.6044 49.7471 64.5589 48.7197 63.2692 48.7197C61.9795 48.7197 60.934 49.7471 60.934 51.0144C60.934 52.2816 61.9795 53.309 63.2692 53.309Z" fill="#3F2355"/>
<path d="M66.8737 49.7728C68.1634 49.7728 69.2089 48.7455 69.2089 47.4782C69.2089 46.2109 68.1634 45.1836 66.8737 45.1836C65.584 45.1836 64.5385 46.2109 64.5385 47.4782C64.5385 48.7455 65.584 49.7728 66.8737 49.7728Z" fill="#3F2355"/>
</svg>
