<svg width="17" height="20" viewBox="0 0 17 20" fill="none" xmlns="http://www.w3.org/2000/svg">
<path d="M5.75391 5H11.7539M11.7539 15V12M8.75391 15H8.76391M5.75391 15H5.76391M5.75391 12H5.76391M8.75391 12H8.76391M11.7539 9H11.7639M8.75391 9H8.76391M5.75391 9H5.76391M3.75391 19H13.7539C14.2843 19 14.793 18.7893 15.1681 18.4142C15.5432 18.0391 15.7539 17.5304 15.7539 17V3C15.7539 2.46957 15.5432 1.96086 15.1681 1.58579C14.793 1.21071 14.2843 1 13.7539 1H3.75391C3.22347 1 2.71477 1.21071 2.33969 1.58579C1.96462 1.96086 1.75391 2.46957 1.75391 3V17C1.75391 17.5304 1.96462 18.0391 2.33969 18.4142C2.71477 18.7893 3.22347 19 3.75391 19Z" stroke="#3F2355" stroke-width="2" stroke-linecap="round" stroke-linejoin="round"/>
</svg>
