<svg width="64" height="70" viewBox="0 0 64 70" fill="none" xmlns="http://www.w3.org/2000/svg">
<g clip-path="url(#clip0)">
<path d="M63.6524 35.6088C63.499 34.9585 62.9184 34.4992 62.2504 34.4992C61.9158 34.4992 61.5823 34.4275 61.2726 34.2922C61.1507 34.0071 60.9395 33.7694 60.6743 33.614C60.754 33.3588 60.8425 33.1001 60.9336 32.8345C61.0195 32.5841 61.1047 32.3346 61.1843 32.0842C61.2734 31.8037 61.36 31.5234 61.4463 31.2439C61.6239 30.6685 61.7918 30.125 61.9793 29.5865C62.2607 28.7781 62.4851 27.9641 62.7021 27.177L62.7652 26.9482C62.8043 26.8065 62.845 26.6634 62.8859 26.5194C63.0927 25.7904 63.3271 24.9641 63.4297 24.1077C63.4921 23.5884 63.2679 23.0761 62.8444 22.7692C62.4209 22.4625 61.8644 22.4095 61.3901 22.6306C60.8166 22.8983 60.1385 23.1409 59.318 23.3721C59.0613 23.4443 58.8053 23.5221 58.5483 23.6002C58.0494 23.7519 57.5783 23.8952 57.1054 23.9947C56.806 24.0577 56.4799 24.1013 56.1347 24.1474C55.6864 24.2074 55.223 24.2693 54.735 24.3823C54.54 24.419 54.4332 24.4039 54.4072 24.3952C53.9947 23.7043 53.7121 23.1887 53.5045 22.6504C53.2511 21.993 53.0111 21.3703 52.8185 20.6879C52.7656 20.3503 52.6014 19.9281 52.1797 19.5059C52.1793 19.5054 52.1787 19.505 52.1783 19.5044C52.164 19.4902 52.1496 19.4765 52.1349 19.4629L52.1348 19.4628C52.1336 19.4618 52.1325 19.4608 52.1315 19.4598H52.1313C51.566 18.9423 50.6881 18.9574 50.141 19.5046C49.939 19.7067 49.8094 19.9539 49.7526 20.2136C49.4109 20.5434 49.0068 20.9424 48.6886 21.4785C48.6615 21.5031 48.6326 21.5306 48.6016 21.5616C48.5507 21.6126 48.5038 21.667 48.4611 21.7248C48.3738 21.7831 48.2669 21.8638 48.1589 21.9717C48.071 22.0597 47.9948 22.1586 47.9324 22.2659C47.9077 22.2918 47.869 22.3299 47.8388 22.3595C47.7211 22.4752 47.5749 22.6188 47.4377 22.8039C47.0416 23.1369 46.7223 23.5029 46.4583 23.8059C46.3208 23.9636 46.1911 24.1124 46.0767 24.2268C46.0286 24.2749 45.9839 24.3264 45.9431 24.3808C45.6796 24.7319 45.3876 25.0589 45.0782 25.4052C44.9295 25.5719 44.7812 25.738 44.6357 25.9068C44.238 26.3685 43.912 26.8536 43.6362 27.3115C43.6336 27.3082 43.6313 27.3048 43.629 27.3015C43.5955 26.9644 43.7526 26.5959 44.0173 26.0123C44.2017 25.6055 44.4109 25.1445 44.5409 24.6247C44.5443 24.6109 44.5476 24.5972 44.5505 24.5832C44.6439 24.1568 44.7185 23.7386 44.7908 23.3341C44.8777 22.8482 44.9595 22.3893 45.0664 21.9521C45.1691 21.5323 45.2937 21.1166 45.4257 20.6765C45.5547 20.2462 45.6881 19.8012 45.8017 19.3445C45.9361 18.805 46.047 18.268 46.1543 17.7485C46.2317 17.3739 46.3049 17.0203 46.386 16.665C46.5358 16.01 46.6522 15.3529 46.7647 14.7174C46.8102 14.4595 46.8562 14.2011 46.9043 13.9419C46.9612 13.6358 47.0309 13.3247 47.1047 12.9956C47.2335 12.4216 47.3663 11.8281 47.4459 11.1922C47.4534 11.1329 47.457 11.0733 47.457 11.0135C47.457 10.9453 47.4619 10.8791 47.4661 10.8148C47.4912 10.412 47.5432 9.5736 46.8615 8.89191C46.376 8.40643 45.6151 8.33109 45.0439 8.71184C44.3298 9.18781 43.5415 9.56467 42.7071 9.96356L42.1526 10.2296C41.334 10.6239 40.5608 10.9963 39.7459 11.2873C39.6964 11.305 39.6479 11.3254 39.6007 11.3483C39.5479 11.2703 39.4991 11.1873 39.4559 11.1011C39.4291 11.0476 39.3991 10.9959 39.366 10.9462C39.3029 10.8514 39.2267 10.5515 39.1764 10.3531C39.1322 10.1789 39.0867 9.999 39.026 9.81691C39.0106 9.77081 38.993 9.72544 38.973 9.68121C38.8965 9.51122 38.8204 9.34094 38.7447 9.17081C38.4949 8.61028 38.2364 8.03059 37.9555 7.4604C37.589 6.71691 37.1929 5.99244 36.8097 5.29188C36.5554 4.82715 36.2696 4.40924 35.993 4.00501C35.8083 3.73504 35.634 3.4802 35.477 3.22335C35.339 2.99761 35.205 2.76596 35.0632 2.52063C34.81 2.08255 34.5487 1.63034 34.2428 1.17742C33.8953 0.575114 33.1791 -0.000976562 32.401 -0.000976562C32.1398 -0.000976562 31.8837 0.0700443 31.6598 0.204307C30.6396 0.816557 30.3619 1.9526 30.1779 2.70445C30.1266 2.9142 30.0735 3.13115 30.0251 3.25245C30.0009 3.31281 29.9808 3.3749 29.965 3.43814C29.7887 4.14374 29.5665 4.96703 29.2572 5.72334C29.1915 5.88368 29.1243 6.04329 29.0567 6.2032C28.7955 6.82193 28.526 7.46011 28.3304 8.1817C28.3262 8.18948 28.322 8.19726 28.318 8.20533C28.1673 8.49042 27.9758 8.85273 27.8848 9.25941C27.8826 9.26214 27.8806 9.26474 27.8786 9.26733C27.7484 9.43444 27.5144 9.73437 27.4 10.1768C27.3558 10.2592 27.3204 10.3355 27.2904 10.4006C27.0095 10.6656 26.6691 10.9282 26.2327 11.2151C25.6961 10.8518 25.1671 10.5241 24.6286 10.221C24.2065 9.98345 23.7853 9.77485 23.3778 9.57317C23.064 9.41773 22.7677 9.27107 22.4791 9.11578C21.782 8.74065 21.1466 8.34204 20.5636 7.96734C20.0759 7.65402 19.4481 7.66338 18.97 7.99097C18.4919 8.3187 18.2568 8.90099 18.3733 9.46887C18.4636 9.90911 18.565 10.3275 18.663 10.7323C18.7515 11.0976 18.8352 11.4428 18.9105 11.7999C18.9926 12.1891 19.071 12.5787 19.1493 12.9678C19.2309 13.373 19.3124 13.7781 19.3978 14.1817C19.4768 14.555 19.5383 14.9378 19.6033 15.343C19.6671 15.741 19.7332 16.1525 19.8191 16.5688C19.9146 17.0317 20.0038 17.5105 20.0901 17.9735C20.1501 18.2961 20.2102 18.6186 20.2731 18.9403C20.4287 19.7374 20.5774 20.5333 20.7151 21.306C20.7719 21.6241 20.8335 21.9415 20.8952 22.2588C20.9896 22.7443 21.0786 23.2028 21.1506 23.665L21.1833 23.8742C21.2107 24.0496 21.2383 24.2267 21.2659 24.4046C21.2582 24.3944 21.2507 24.3841 21.2431 24.3739C20.9652 23.9991 20.6778 23.6115 20.3724 23.2325C19.7731 22.4888 19.156 21.7775 18.5784 21.12C18.0208 20.4847 17.4263 19.9147 16.8515 19.3634L16.5881 19.1106C15.832 18.3821 15.1179 17.7682 14.4052 17.2336C13.8006 16.7801 12.948 16.871 12.4525 17.4422C12.1138 17.8328 12.0209 18.357 12.167 18.8203C12.0729 19.0354 11.967 19.2522 11.8575 19.4762C11.5164 20.1744 11.1367 20.9522 11.0315 21.8856C10.9662 21.9533 10.9086 22.0184 10.8582 22.0776C10.7973 22.0788 10.7363 22.0801 10.6754 22.0814C10.1519 22.0926 9.65731 22.1027 9.19921 22.055C8.59099 21.9919 7.97773 21.8751 7.32832 21.7515L6.99784 21.6886C6.54147 21.6028 6.07832 21.4777 5.58809 21.3452C5.32691 21.2746 5.06544 21.2042 4.80239 21.1385L4.77747 21.1323C4.03657 20.9476 3.27061 20.7566 2.54801 20.55C1.98762 20.3898 1.38618 20.583 1.02373 21.0394C0.66142 21.4958 0.609701 22.1256 0.892777 22.6348C1.17672 23.1457 1.41744 23.7292 1.67228 24.3472L1.93274 24.9733C2.17692 25.5555 2.40755 26.1053 2.58417 26.669C2.81827 27.4163 3.01203 28.116 3.17654 28.8083C3.2248 29.0117 3.27508 29.2154 3.3255 29.4196C3.45486 29.9445 3.57746 30.4415 3.67052 30.9408C3.69227 31.1112 3.74039 31.2619 3.80031 31.393C3.78072 31.4286 3.76156 31.4627 3.74428 31.4934C3.71647 31.5431 3.68795 31.594 3.65943 31.646C2.66268 31.8271 1.62676 32.1521 0.603795 32.8827C0.208642 33.1649 -0.017673 33.6272 0.00163084 34.1124C0.0210788 34.5977 0.283554 35.0404 0.699884 35.2902C1.40174 35.7113 2.02724 36.148 2.55867 36.5882C2.8066 36.7935 3.05092 37.0285 3.3098 37.2771C3.63566 37.5904 3.97218 37.9138 4.35825 38.2205C4.4856 38.3413 4.60877 38.4412 4.71956 38.531C4.89127 38.6704 4.99168 38.754 5.05637 38.8511C5.19538 39.0597 5.38237 39.2262 5.60653 39.3384C5.646 39.36 5.75073 39.4387 5.82002 39.4907C5.94276 39.5829 6.08667 39.6909 6.25248 39.7922C6.55803 40.0834 6.85278 40.386 7.16279 40.7043C7.48707 41.0372 7.82244 41.3815 8.17308 41.7131L8.56463 42.0829C9.14288 42.6284 9.68915 43.1436 10.2337 43.684L10.4522 43.9008C11.0214 44.4651 11.6095 45.0482 12.1724 45.6489C12.3527 45.8832 12.5323 46.0854 12.6923 46.2658C12.9122 46.5134 13.1019 46.7274 13.1976 46.9184C13.4767 47.477 13.9343 47.7326 14.1802 47.8699C14.1986 47.8801 14.2204 47.8924 14.24 47.9034C14.24 47.9186 14.2392 47.9384 14.2368 47.9631C14.2336 47.9683 14.2305 47.9735 14.2273 47.9784C14.061 48.2459 13.8185 48.6363 13.7709 49.1559C13.6875 49.5532 13.5171 49.9615 13.3373 50.3921C13.2555 50.588 13.1745 50.7826 13.0996 50.9777C12.775 51.8244 12.5173 52.5686 12.3123 53.2525C12.167 53.7368 12.2862 54.2621 12.6267 54.636C12.9671 55.0102 13.4788 55.1784 13.9745 55.079C14.2898 55.0159 14.6077 54.9563 14.9258 54.8965C15.4724 54.7938 16.0377 54.6876 16.5945 54.5639C17.0789 54.4561 17.5428 54.3231 17.9913 54.1946C18.3903 54.0803 18.7673 53.9722 19.1408 53.8862C19.576 53.7861 20.0107 53.6985 20.4708 53.6059C20.8713 53.5252 21.2854 53.4418 21.6985 53.3496C22.2557 53.225 22.8351 53.1116 23.3953 53.002C23.6768 52.9469 23.9583 52.8918 24.2397 52.835C24.535 52.7752 24.8266 52.7092 25.1112 52.6434C25.1112 52.6441 25.1111 52.6449 25.1111 52.6456C25.0586 53.2209 25.0091 53.7646 24.9368 54.3053C24.8158 55.2097 24.6883 56.1144 24.5582 56.9938C24.497 57.408 24.4146 57.8239 24.3273 58.2643C24.2362 58.7238 24.142 59.1991 24.0704 59.6877C23.9419 60.5635 23.8063 61.496 23.6862 62.42C23.5722 63.2941 23.4531 64.2276 23.3589 65.1826C23.292 65.8605 23.2628 66.5412 23.2347 67.1994C23.2232 67.4665 23.2118 67.7331 23.198 67.9981C23.1772 68.3928 23.3196 68.7786 23.5915 69.0652C23.8635 69.3519 24.2414 69.5143 24.6365 69.5143C25.1709 69.5143 25.7255 69.5281 26.2618 69.5414C26.6635 69.5513 27.0636 69.5612 27.4601 69.566C27.8512 69.5709 28.2416 69.5715 28.6317 69.5719C29.1708 69.5726 29.7283 69.5735 30.2675 69.5867C30.7387 69.5983 31.2029 69.5899 31.6516 69.5817C32.1473 69.5726 32.6152 69.5643 33.0768 69.5813C33.6103 69.601 34.1374 69.633 34.6954 69.6671C35.09 69.6913 35.4852 69.7154 35.8815 69.7348C36.3272 69.7566 36.7863 69.808 37.2725 69.8625C37.7329 69.914 38.2092 69.9675 38.6955 69.9969C38.7251 69.9987 38.7543 69.9996 38.7836 69.9996C39.4688 69.9996 40.0651 69.5136 40.1971 68.8326C40.2893 68.3562 40.1347 67.8835 39.8159 67.5549C39.7931 67.4336 39.759 67.294 39.7013 67.1459C39.6054 66.807 39.5072 66.4713 39.4098 66.1378C39.2517 65.5972 39.1024 65.0865 38.9652 64.5723C38.8299 64.0642 38.706 63.538 38.5863 63.0292C38.4962 62.6454 38.4061 62.2629 38.3106 61.8828C38.2249 61.5418 38.1367 61.2017 38.0486 60.8615C37.907 60.316 37.7606 59.7518 37.6299 59.1988C37.4212 58.3164 37.2195 57.4178 37.0144 56.4977C36.9289 56.1158 36.838 55.7325 36.7466 55.3465C36.6263 54.8397 36.5019 54.3159 36.3917 53.7962C36.3848 53.7635 36.3768 53.7312 36.3677 53.6991C36.3232 53.5436 36.2866 53.38 36.2523 53.2097C36.5898 53.3051 36.9292 53.4166 37.2871 53.5341C37.6852 53.6648 38.0968 53.8001 38.524 53.9178C38.9079 54.0235 39.2902 54.1351 39.673 54.2468C40.0704 54.3629 40.4814 54.4827 40.8937 54.596C41.3259 54.7147 41.7545 54.8102 42.1689 54.9027C42.5613 54.9901 42.9319 55.073 43.2935 55.1714C43.7177 55.2872 44.1446 55.3918 44.5573 55.4929C44.93 55.5844 45.3155 55.6787 45.6861 55.7786C46.0219 55.8689 46.3701 55.9905 46.7388 56.1191C47.157 56.265 47.5893 56.416 48.0506 56.538C48.138 56.5612 48.2276 56.5761 48.3176 56.5826C48.8072 56.6154 49.2857 56.4258 49.6322 56.0577C49.9688 55.7003 50.1264 55.2244 50.0645 54.7519C50.054 54.6718 50.0368 54.5928 50.0131 54.5155C49.8128 53.8647 49.5635 53.2862 49.3222 52.7267C49.1901 52.42 49.0652 52.1303 48.9571 51.8478C48.7625 51.3395 48.6007 50.8192 48.4296 50.2683C48.3708 50.0792 48.3109 49.886 48.2485 49.6906C48.3632 49.5405 48.4659 49.3927 48.5625 49.2537C48.691 49.0692 48.8131 48.8934 48.9257 48.7687C49.2212 48.5362 49.5308 48.3155 49.8571 48.0828C50.2473 47.8045 50.651 47.5168 51.0427 47.1974C51.4414 46.8723 51.8275 46.5392 52.2008 46.217C52.5158 45.9451 52.8131 45.6884 53.1193 45.4344C53.4002 45.2016 53.683 44.9703 53.9669 44.7382C54.3765 44.4034 54.7997 44.0571 55.2202 43.7034C55.5261 43.4461 55.8381 43.1917 56.153 42.935C56.5215 42.6346 56.9021 42.3242 57.2834 42.0009C57.5884 41.7703 57.8728 41.5327 58.1479 41.3025C58.417 41.0774 58.6714 40.865 58.929 40.6717C58.9358 40.6667 58.9426 40.6616 58.9492 40.6564C59.6509 40.1106 60.2173 39.544 60.765 38.9963L60.8084 38.9529C61.243 38.5183 61.7343 38.0889 62.3483 37.6069C62.541 37.4965 62.6835 37.3863 62.7845 37.3084C62.8417 37.264 62.8775 37.2365 62.8952 37.2277C63.4921 36.9295 63.8058 36.259 63.6524 35.6088ZM59.9879 26.1811L59.9243 26.4115C59.7104 27.1877 59.5083 27.9209 59.2583 28.6393C59.0541 29.2259 58.8707 29.8195 58.6933 30.3937C58.6092 30.6658 58.5251 30.9387 58.4382 31.2117C58.365 31.4416 58.2865 31.6708 58.2076 31.9007C58.0026 32.4991 57.791 33.117 57.646 33.7975C57.4992 34.2668 57.5649 34.7829 57.8363 35.2222C58.035 35.5435 58.3364 35.8091 58.6955 35.9961C58.7564 36.0687 58.8247 36.1359 58.9001 36.1961C59.0139 36.2873 59.1311 36.3733 59.2513 36.4545C59.0846 36.6082 58.925 36.7617 58.7703 36.9162L58.7268 36.9599C58.2218 37.465 57.7449 37.9419 57.1886 38.3757C56.8742 38.6121 56.5819 38.8564 56.2991 39.093C56.03 39.318 55.7756 39.5305 55.518 39.7238C55.4947 39.7414 55.4717 39.7597 55.4494 39.7785C55.0795 40.093 54.6992 40.403 54.3312 40.703C54.0049 40.9692 53.6817 41.2328 53.3646 41.4995C52.9595 41.8402 52.544 42.18 52.1423 42.5086C51.8533 42.7449 51.5653 42.9802 51.2796 43.2174C50.9516 43.4893 50.6292 43.7674 50.3175 44.0366C49.9426 44.36 49.5887 44.6656 49.2218 44.9648C48.902 45.2253 48.553 45.474 48.1837 45.7374C47.8142 46.0009 47.4318 46.2733 47.0522 46.5772C47.0107 46.6104 46.9711 46.646 46.9337 46.6833C46.6267 46.9903 46.3979 47.3193 46.1962 47.6097C46.0502 47.8198 45.9122 48.0181 45.787 48.1433C45.5235 48.4069 45.3725 48.762 45.3653 49.134C45.362 49.1755 45.3549 49.2253 45.3487 49.2752C45.3297 49.4272 45.31 49.5842 45.31 49.746C45.31 49.9007 45.3349 50.0547 45.3839 50.2015C45.4852 50.5053 45.583 50.8199 45.6775 51.124C45.8547 51.6941 46.0379 52.2836 46.2654 52.8779C46.2759 52.9055 46.2864 52.9328 46.2972 52.9602C45.9411 52.8661 45.5867 52.7793 45.2427 52.6948C44.8296 52.5936 44.4393 52.4979 44.0506 52.3917C43.6241 52.2755 43.2027 52.1816 42.7953 52.0907C42.397 52.0019 42.0208 51.9181 41.6565 51.8178C41.2663 51.7106 40.8664 51.5938 40.4794 51.481C40.083 51.3652 39.6867 51.2498 39.2891 51.1402C38.9292 51.041 38.5679 50.9223 38.1856 50.7967C37.7829 50.6645 37.3666 50.5278 36.934 50.4089C36.5103 50.2924 36.0797 50.1899 35.6634 50.0908C35.2623 49.9952 34.8833 49.905 34.5134 49.8042C33.9341 49.6458 33.3171 49.8642 32.9657 50.3517C32.6145 50.8391 32.6026 51.4932 32.9358 51.9931C33.1569 52.325 33.2449 52.8023 33.3471 53.3552C33.408 53.6854 33.4766 54.0578 33.5829 54.4403C33.6976 54.9777 33.8222 55.5033 33.943 56.0119C34.0316 56.3855 34.1196 56.7561 34.2022 57.1255C34.4095 58.0548 34.6133 58.9634 34.826 59.8619C34.9637 60.4452 35.1141 61.0247 35.2596 61.5853C35.346 61.9181 35.4323 62.2508 35.5162 62.5849C35.6083 62.9511 35.6948 63.3195 35.7817 63.6887C35.9061 64.218 36.0349 64.7652 36.1813 65.3147C36.3229 65.846 36.4789 66.381 36.6306 66.8995C36.4295 66.8819 36.2264 66.8671 36.0221 66.8571C35.6376 66.8382 35.2538 66.8149 34.8706 66.7914C34.3202 66.758 33.7509 66.7231 33.1828 66.7022C32.9493 66.6936 32.7177 66.6904 32.4888 66.6904C32.1874 66.6904 31.8903 66.6959 31.5989 66.7011C31.1611 66.7093 30.7477 66.7167 30.338 66.7066C29.7655 66.6925 29.191 66.6917 28.6353 66.691C28.2559 66.6906 27.8759 66.69 27.4948 66.6854C27.1102 66.6808 26.7221 66.671 26.3328 66.6615C26.2697 66.6599 26.2065 66.6583 26.1428 66.6567C26.163 66.25 26.1875 65.8552 26.2258 65.4658C26.316 64.5522 26.4318 63.6442 26.5429 62.7924C26.6604 61.8895 26.794 60.9704 26.9207 60.1062C26.982 59.6889 27.0652 59.2688 27.1533 58.8244C27.2433 58.3696 27.3365 57.8993 27.4081 57.4156C27.5401 56.5232 27.6693 55.6055 27.7922 54.6879C27.8727 54.0866 27.9273 53.4869 27.98 52.907C28.0098 52.5806 28.0395 52.2542 28.0738 51.9276C28.0774 51.8933 28.0798 51.8587 28.081 51.8241C28.0833 51.8096 28.086 51.7951 28.0885 51.7805C28.133 51.5216 28.2596 50.7835 27.7355 50.0998C27.6613 49.9828 27.57 49.8758 27.463 49.7831C27.1387 49.5018 26.7058 49.3801 26.282 49.4501C25.721 49.5436 25.1809 49.6692 24.6587 49.7906C24.3162 49.8703 23.9925 49.9455 23.6685 50.011C23.393 50.0668 23.1173 50.1207 22.8417 50.1745C22.2627 50.2879 21.6642 50.405 21.0695 50.5378C20.6866 50.6236 20.3054 50.7002 19.9018 50.7815C19.4426 50.8739 18.968 50.9694 18.494 51.0786C18.0464 51.1818 17.6148 51.3054 17.1975 51.425C16.7712 51.5471 16.3684 51.6624 15.9688 51.7514C15.9407 51.7576 15.9126 51.7638 15.8845 51.77C15.921 51.6808 15.9583 51.5916 15.9956 51.502C16.2264 50.9494 16.4879 50.3229 16.6201 49.5948C16.6208 49.5911 16.6214 49.5872 16.6221 49.5835C16.6387 49.5561 16.6579 49.5253 16.674 49.4993C16.7385 49.3955 16.8188 49.2664 16.8928 49.1183C16.9398 49.0244 16.9764 48.9254 17.0019 48.8236C17.3931 47.2581 16.7293 46.3019 16.2987 45.8714C16.0578 45.6305 15.8167 45.485 15.6415 45.3862C15.3979 44.9739 15.1078 44.6469 14.8469 44.353C14.6955 44.1824 14.5526 44.0214 14.4268 43.8538C14.3958 43.8126 14.3627 43.773 14.3276 43.7354C13.7116 43.0753 13.0858 42.4547 12.4806 41.8546L12.263 41.6388C11.6926 41.0726 11.1076 40.5206 10.5417 39.9868L10.1529 39.6196C9.84517 39.3285 9.54466 39.0201 9.22658 38.6935C8.86773 38.325 8.49678 37.9442 8.09716 37.5713C7.99617 37.4771 7.88625 37.4 7.76265 37.338C7.72318 37.3164 7.61845 37.2378 7.54916 37.1858C7.45682 37.1165 7.35266 37.0382 7.23597 36.9606C6.98747 36.6608 6.73278 36.4541 6.5347 36.2933C6.451 36.2255 6.3722 36.1615 6.3261 36.1154C6.28389 36.0732 6.23894 36.0336 6.19169 35.9968C5.89738 35.7679 5.61027 35.4921 5.30631 35.1999C5.04282 34.9467 4.77113 34.6855 4.47105 34.4315C4.58832 34.4139 4.70875 34.3977 4.83279 34.382C5.42314 34.3082 5.90631 33.8832 6.05066 33.3061C6.07299 33.2314 6.1842 33.0328 6.25781 32.9013C6.5115 32.4484 6.82728 31.8847 6.82728 31.1784C6.82728 30.7102 6.6243 30.3669 6.45186 30.1514C6.35289 29.6632 6.23621 29.1901 6.12283 28.7298C6.07443 28.5333 6.02617 28.3375 5.97964 28.1418C5.79928 27.3831 5.58794 26.6198 5.33353 25.8076C5.14309 25.1994 4.91317 24.6328 4.68455 24.0854C4.73526 24.099 4.78596 24.1127 4.83667 24.1264C5.3586 24.2674 5.89824 24.4132 6.46511 24.5198L6.78925 24.5813C7.46906 24.7109 8.17192 24.8447 8.90158 24.9205C9.53789 24.9864 10.1468 24.9738 10.7356 24.9615C10.9553 24.9569 11.1755 24.9523 11.3962 24.9523C11.5511 24.9523 11.705 24.9274 11.8518 24.8784C12.4365 24.6835 12.7834 24.2669 12.9907 24.0181C13.0169 23.9867 13.0489 23.9484 13.0757 23.9175C13.1803 23.8786 13.2802 23.8276 13.3735 23.7655C13.7991 23.4816 14.0464 23.0113 14.0348 22.5072C14.0322 22.3963 14.0134 22.2094 13.9304 22.001C14.0031 21.6789 14.1561 21.3394 14.3437 20.9518C14.4249 21.0281 14.5069 21.1061 14.5895 21.1856L14.8574 21.4429C15.4128 21.9755 15.9374 22.4785 16.4135 23.021C16.9702 23.6549 17.5634 24.3385 18.129 25.0403C18.3981 25.3742 18.6559 25.722 18.9289 26.0901C19.1066 26.3296 19.2884 26.5747 19.4766 26.8203C19.5177 27.059 19.6185 27.285 19.7715 27.4762C20.4221 28.2896 21.467 28.7733 22.4366 28.7078C23.2238 28.6548 23.9011 28.2484 24.2945 27.5923C24.3136 27.5606 24.3313 27.5284 24.3479 27.4954L24.3777 27.4382C24.5253 27.1583 24.8709 26.5025 24.6204 25.7232C24.5621 25.5418 24.4605 25.3237 24.2836 25.1095C24.2041 24.5419 24.1161 23.9789 24.0305 23.4299L23.9979 23.2214C23.9175 22.7063 23.8192 22.1995 23.7239 21.7095C23.6652 21.4066 23.6062 21.1036 23.5521 20.8001C23.4116 20.0122 23.2601 19.2009 23.1016 18.3886C23.0404 18.0748 22.9817 17.7603 22.9231 17.4458C22.8344 16.9694 22.7426 16.4769 22.6415 15.9869C22.5686 15.633 22.5102 15.2704 22.4487 14.8865C22.381 14.4647 22.3109 14.0283 22.2174 13.5858C22.134 13.1913 22.0543 12.7956 21.9746 12.3996C21.9519 12.2862 21.929 12.1728 21.9061 12.0595C21.9712 12.0917 22.0359 12.1239 22.1001 12.1556C22.4912 12.3492 22.8606 12.5321 23.2163 12.7322C23.8432 13.085 24.4589 13.4787 25.0988 13.9358C25.3387 14.107 25.6249 14.2006 25.9192 14.2041C25.9483 14.2061 25.9792 14.2103 26.01 14.2139C26.1211 14.2267 26.2591 14.2425 26.4139 14.2425C26.675 14.2425 26.9313 14.1715 27.1551 14.0373C27.8273 13.6339 28.694 13.076 29.4354 12.3345C29.689 12.0808 29.8182 11.801 29.9036 11.6158C29.9084 11.6055 29.913 11.5953 29.9176 11.5851C30.0514 11.4108 30.1432 11.2085 30.1867 10.994C30.3185 10.8233 30.5118 10.5564 30.6402 10.1714C30.6726 10.0743 30.6944 9.97422 30.7056 9.87281C30.7415 9.78796 30.8177 9.64375 30.8661 9.55199C30.9048 9.47881 30.9414 9.40937 30.973 9.34613C31.0199 9.25206 31.0565 9.15324 31.082 9.05124C31.2259 8.4753 31.462 7.9162 31.712 7.32412C31.7837 7.15442 31.8552 6.98501 31.9248 6.81473C32.2862 5.93122 32.5367 5.0271 32.7338 4.24631C32.8267 4.40564 32.9218 4.56669 33.0198 4.72703C33.2152 5.04684 33.4189 5.34461 33.6162 5.63258C33.8637 5.99446 34.0976 6.33617 34.2829 6.67499C34.6517 7.34919 35.0328 8.04629 35.3721 8.73431C35.6282 9.25465 35.8643 9.78392 36.114 10.3443C36.1797 10.4917 36.2455 10.6392 36.3116 10.7866C36.3343 10.8632 36.3589 10.9605 36.3847 11.0622C36.4893 11.4742 36.6179 11.9814 36.9173 12.4634C37.3751 13.344 38.0604 14.0446 38.8537 14.4412C39.0537 14.5412 39.2742 14.5933 39.4979 14.5933C40.2528 14.5933 40.7245 14.1316 40.9329 13.9217C41.8079 13.5946 42.6182 13.2043 43.4038 12.8259L43.9508 12.5634C44.062 12.5102 44.1738 12.4568 44.2859 12.4029C44.2123 12.7315 44.1366 13.0708 44.0725 13.4162C44.023 13.6833 43.9757 13.9498 43.9288 14.2156C43.8175 14.8441 43.7124 15.4377 43.5784 16.023C43.4904 16.4077 43.4107 16.7932 43.3338 17.1661C43.2276 17.6801 43.1272 18.1657 43.0068 18.649C42.9095 19.0397 42.7917 19.433 42.6668 19.8494C42.5302 20.3053 42.3888 20.7765 42.2685 21.2684C42.14 21.7938 42.046 22.3196 41.9553 22.8282C41.8863 23.2148 41.8209 23.5806 41.7419 23.9448C41.6737 24.2066 41.5378 24.5061 41.3943 24.8226C41.0134 25.6621 40.5396 26.7069 40.8338 28.0308C40.8445 28.0791 40.8577 28.1269 40.8733 28.1739C41.2121 29.1899 42.3375 30.3175 43.6346 30.446C44.5388 30.536 45.3522 30.1126 45.8084 29.3141C45.8113 29.3091 45.814 29.304 45.8169 29.299C46.1981 28.6127 46.498 28.1608 46.8193 27.7878C46.9536 27.6319 47.0904 27.4788 47.2278 27.3249C47.5439 26.971 47.8702 26.6057 48.1886 26.1895C48.3443 26.0283 48.4897 25.8616 48.6308 25.6995C48.8867 25.4059 49.1286 25.1286 49.3841 24.9369C49.5387 24.8209 49.6682 24.6754 49.765 24.5089C49.7898 24.483 49.8284 24.4449 49.8586 24.4152C49.9642 24.3114 50.0929 24.1852 50.2172 24.0264C50.3617 23.9292 50.5504 23.7758 50.7257 23.5307C50.7332 23.524 50.7407 23.5172 50.7483 23.51C50.7715 23.5705 50.7947 23.6307 50.8179 23.6908C51.1387 24.5233 51.576 25.2769 51.9962 25.9774C52.0217 26.0198 52.0493 26.061 52.079 26.1004C52.8157 27.0828 53.9665 27.4751 55.3196 27.2042C55.3355 27.2011 55.3515 27.1976 55.3672 27.194C55.7275 27.1091 56.1107 27.058 56.5166 27.0037C56.8989 26.9527 57.2944 26.8998 57.6989 26.8147C58.2957 26.6892 58.8505 26.5205 59.3871 26.3573C59.5882 26.2961 59.7886 26.2351 59.9896 26.1772C59.9886 26.1782 59.9883 26.1797 59.9879 26.1811Z" fill="#FB5100"/>
</g>
<defs>
<clipPath id="clip0">
<rect width="63.6908" height="70" fill="white"/>
</clipPath>
</defs>
</svg>
