<svg width="24" height="24" viewBox="0 0 24 24" fill="none" xmlns="http://www.w3.org/2000/svg">
<g clip-path="url(#clip0)">
<path d="M22.7757 9.08142C22.7339 9.04898 20.0806 6.9806 20.0806 6.9806C19.6104 6.61388 19.0179 6.41016 18.4217 6.41016H10.8478C10.1605 6.41016 9.57728 6.68593 9.0412 7.09235L6.26404 9.19767C6.04485 9.36385 5.78675 9.47757 5.51767 9.52651C5.50858 9.52815 5.49949 9.53012 5.49044 9.53232L2.27775 10.3162C1.52257 10.4579 0.86948 10.9848 0.570969 11.6945L0.157283 12.6772C-0.106305 13.302 -0.0355208 14.0188 0.346571 14.5947C0.729084 15.1712 1.36234 15.5153 2.04055 15.5153H3.05234C3.21162 16.6851 4.21647 17.5897 5.42922 17.5897C6.64196 17.5897 7.64681 16.6851 7.8061 15.5153H10.3982C10.6571 15.5153 10.867 15.3055 10.867 15.0466C10.867 14.7877 10.6571 14.5778 10.3982 14.5778H7.74924C7.47468 13.5411 6.5018 12.7906 5.42908 12.7906C4.35706 12.7906 3.38343 13.5421 3.10892 14.5778H2.04055C1.6773 14.5778 1.33614 14.3903 1.12777 14.0764C0.916778 13.7583 0.877871 13.3812 1.02127 13.0413L1.1175 12.8127H1.85333C2.11223 12.8127 2.32209 12.6028 2.32209 12.3439C2.32209 12.085 2.11223 11.8752 1.85333 11.8752H1.52992C1.73346 11.5441 2.07421 11.3056 2.45916 11.2361C2.46849 11.2345 2.47777 11.2325 2.48701 11.2302L5.69984 10.4463C6.10293 10.3707 6.48886 10.2003 6.81822 9.95356C7.12681 10.3798 7.629 10.6524 8.17858 10.6524H13.7877C14.3947 10.6524 14.8885 10.1586 14.8885 9.55164V7.34778H16.3133V9.42756C16.3133 10.0345 16.8071 10.5283 17.414 10.5283H20.847C21.4181 10.5283 21.9619 10.3296 22.3942 9.97348C22.8553 10.339 23.0625 10.5512 23.0625 10.8875V14.0208C23.0625 14.3279 22.8122 14.5778 22.5044 14.5778H21.8906C21.6161 13.5391 20.6452 12.7906 19.5708 12.7906C18.4961 12.7906 17.525 13.5388 17.2505 14.5778H14.5222C14.2633 14.5778 14.0534 14.7877 14.0534 15.0466C14.0534 15.3055 14.2633 15.5153 14.5222 15.5153H17.1937C17.353 16.6851 18.3578 17.5897 19.5706 17.5897C20.7833 17.5897 21.7882 16.6851 21.9475 15.5153H22.5045C23.3291 15.5153 24.0001 14.8449 24.0001 14.0208V10.8875C24 10.0323 23.4327 9.59167 22.7757 9.08142ZM5.42922 16.6521C4.62308 16.6521 3.96723 15.9963 3.96723 15.1901C3.96723 14.4237 4.59031 13.7684 5.356 13.73C6.17723 13.6892 6.89121 14.3678 6.89121 15.1901C6.89121 15.9963 6.23536 16.6521 5.42922 16.6521ZM13.951 9.55159C13.951 9.64159 13.8777 9.71486 13.7877 9.71486H8.17853C7.92793 9.71486 7.69959 9.58666 7.56506 9.3879L9.78401 7.70573C10.0872 7.47557 10.467 7.34797 10.8475 7.34797H13.9509V9.55159H13.951ZM17.414 9.59073C17.324 9.59073 17.2508 9.51751 17.2508 9.42751V7.34797H18.4216C18.8102 7.34797 19.1979 7.48063 19.5042 7.72017L21.6252 9.37351C21.3936 9.51428 21.1255 9.59078 20.8471 9.59078H17.414V9.59073ZM19.5705 16.6521C18.7644 16.6521 18.1086 15.9963 18.1086 15.1901C18.1086 14.3972 18.7765 13.7282 19.5705 13.7282C20.3645 13.7282 21.0325 14.3977 21.0325 15.1901C21.0325 15.9963 20.3767 16.6521 19.5705 16.6521Z" fill="#3F2355"/>
<path d="M14.7243 12.3438C14.7243 12.0849 14.5144 11.875 14.2555 11.875H13.3071C13.0482 11.875 12.8384 12.0849 12.8384 12.3438C12.8384 12.6027 13.0482 12.8125 13.3071 12.8125H14.2555C14.5144 12.8125 14.7243 12.6027 14.7243 12.3438Z" fill="#3F2355"/>
<path d="M12.9387 14.8675C12.8418 14.6311 12.562 14.5164 12.3265 14.6139C12.0906 14.7116 11.9752 14.9902 12.0729 15.2261C12.1706 15.462 12.4493 15.577 12.6851 15.4797C12.9207 15.3824 13.0368 15.103 12.9387 14.8675Z" fill="#3F2355"/>
</g>
<defs>
<clipPath id="clip0">
<rect width="24" height="24" fill="white"/>
</clipPath>
</defs>
</svg>
