<svg width="24" height="24" viewBox="0 0 24 24" fill="none" xmlns="http://www.w3.org/2000/svg">
<g clip-path="url(#clip0)">
<path d="M23.9288 13.4384C23.8693 13.3193 23.7205 13.2598 23.6015 13.23C22.9169 13.23 17.024 12.992 17.024 6.14667C17.024 5.93834 16.8455 5.75977 16.6371 5.75977C16.4288 5.75977 16.2502 5.93834 16.2502 6.14667C16.2502 12.992 10.3573 13.23 9.70257 13.23C9.61328 13.23 9.524 13.2598 9.46447 13.3193C9.40495 13.3491 9.37519 13.4086 9.34542 13.4384C9.2859 13.5574 9.2859 13.7062 9.34542 13.8253C9.40495 13.9443 9.55376 14.0336 9.70257 14.0336C9.70257 14.0336 9.70257 14.0336 9.73233 14.0336C10.4169 14.0336 16.28 14.2717 16.28 21.117C16.28 21.3253 16.4586 21.5039 16.6669 21.5039C16.8752 21.5039 17.0538 21.3253 17.0538 21.117C17.0538 14.3015 22.9169 14.0336 23.6015 14.0336C23.7503 14.0336 23.8693 13.9443 23.9586 13.8253C24.0181 13.7062 24.0181 13.5574 23.9288 13.4384ZM16.6371 18.2003C15.774 15.3729 13.6609 14.1527 11.9942 13.617C13.6609 13.0812 15.774 11.861 16.6371 9.0336C17.5002 11.861 19.6133 13.0812 21.28 13.617C19.6133 14.1527 17.5002 15.3729 16.6371 18.2003Z" fill="#3F2355"/>
<path d="M11.7265 5.70018C11.9348 5.70018 12.1134 5.5216 12.1134 5.28351C12.1134 5.07517 11.9348 4.8966 11.7265 4.8966C11.3693 4.8966 8.15501 4.77755 8.15501 1.02753C8.15501 0.819197 7.97644 0.640625 7.76811 0.640625C7.55977 0.640625 7.3812 0.819197 7.3812 1.02753C7.3812 4.77755 4.1669 4.8966 3.80976 4.8966C3.78 4.8966 3.78 4.8966 3.78 4.8966C3.57166 4.92636 3.42285 5.07517 3.42285 5.28351C3.42285 5.49184 3.60142 5.67041 3.80976 5.67041C4.19666 5.67041 7.3812 5.78946 7.3812 9.53948C7.3812 9.74782 7.55977 9.92639 7.76811 9.92639C7.94668 9.95615 8.12525 9.77758 8.12525 9.56924C8.12525 5.81922 11.3396 5.70018 11.6967 5.70018H11.7265ZM7.73835 7.39661C7.26215 6.26566 6.39905 5.64065 5.59548 5.28351C6.45858 4.92636 7.26215 4.24183 7.73835 3.1704C8.21454 4.30136 9.07764 4.92636 9.88121 5.28351C9.01811 5.64065 8.21454 6.32518 7.73835 7.39661Z" fill="#3F2355"/>
<path d="M8.30363 18.3185C7.94648 18.3185 4.73218 18.1994 4.73218 14.4494C4.73218 14.2411 4.5536 14.0625 4.34527 14.0625C4.13693 14.0625 3.95836 14.2411 3.95836 14.4494C3.95836 18.1994 0.744053 18.3185 0.386907 18.3185C0.357145 18.3185 0.357145 18.3185 0.357145 18.3185C0.148811 18.3482 0 18.497 0 18.7054C0 18.9137 0.178573 19.0923 0.386907 19.0923C0.773815 19.0923 3.95836 19.2113 3.95836 22.9614C3.95836 23.1697 4.13693 23.3483 4.34527 23.3483C4.52384 23.4078 4.70241 23.2292 4.70241 22.9911C4.70241 19.2411 7.91672 19.1221 8.27387 19.1221H8.30363C8.51196 19.1221 8.69054 18.9435 8.69054 18.7054C8.69054 18.497 8.51196 18.3185 8.30363 18.3185ZM4.31551 20.8482C3.80955 19.7173 2.97621 19.0923 2.17263 18.7351C3.03574 18.378 3.83931 17.6935 4.31551 16.622C4.7917 17.753 5.6548 18.378 6.45838 18.7351C5.59528 19.0923 4.7917 19.7768 4.31551 20.8482Z" fill="#3F2355"/>
</g>
<defs>
<clipPath id="clip0">
<rect width="24" height="24" fill="white"/>
</clipPath>
</defs>
</svg>
