<?xml version="1.0" encoding="utf-8"?>
<!-- Generator: Adobe Illustrator 24.2.0, SVG Export Plug-In . SVG Version: 6.00 Build 0)  -->
<svg version="1.1" id="Layer_1" xmlns="http://www.w3.org/2000/svg" xmlns:xlink="http://www.w3.org/1999/xlink" x="0px" y="0px"
	 viewBox="0 0 124.6 52.6" style="enable-background:new 0 0 124.6 52.6;" xml:space="preserve">
<style type="text/css">
	.st0{fill:#FFFFFF;}
	.st1{fill:#644E77;}
	.st2{fill:#E6E6E6;}
</style>
<path class="st0" d="M13.1,37.7l-9.5-1.8c-1.2-2.6-1.6-5.5-1.1-8.3c0-1,0.1-2.1,0.3-3.1c0.5-1.2,1.3-2.2,2.4-2.8v-2.1
	c-0.2-1.1-0.3-2.3-0.3-3.4c0.3-0.9,0.9-1.6,1.7-2.1c0.9-0.6,7.1-5.9,7.1-5.9l-0.5-1.4c11.7-2.1,23.6-3.1,35.4-2.8
	c6.3-0.2,12.6,0.5,18.7,2c3.4,1.2,16.9,8.1,17.9,8.6c3.9,1.6,8,2.7,12.1,3c6.3,0.7,12.6,2,18.7,3.7c2.2,0.9,4.6,1.9,5.3,4.8
	c1.3,3.9,1.3,8.2,0,12.1l-4.9,0.9l-2,1h-6.2"/>
<path class="st1" d="M114.3,41.3H108c-0.3,0-0.6-0.1-0.8-0.3c-0.2-0.2-0.3-0.5-0.3-0.8c0-0.3,0.1-0.6,0.3-0.8
	c0.2-0.2,0.5-0.3,0.8-0.3h6l1.7-0.9c0.1,0,0.2-0.1,0.3-0.1l4.2-0.7c1-3.3,1-6.8,0-10.1l-0.2-0.7c-0.5-2.3-2.2-3.1-4.6-4.1
	c-6-1.7-12.2-2.9-18.5-3.6c-4.3-0.4-8.5-1.4-12.5-3.1c-5.8-3-11.7-5.9-17.7-8.5c-6-1.5-12.1-2.1-18.3-1.9C37.2,5,25.8,5.8,14.7,7.7
	v0c0.1,0.2,0.1,0.5,0,0.7c-0.1,0.2-0.2,0.4-0.4,0.6c-2.3,2.1-4.7,4.1-7.1,6.1c-0.5,0.4-1,0.8-1.3,1.4c0,1,0.1,2,0.3,3v2.2
	c0,0.2-0.1,0.4-0.2,0.6c-0.1,0.2-0.3,0.3-0.4,0.4c-0.8,0.5-1.4,1.2-1.8,2.1c-0.2,0.9-0.3,1.9-0.3,2.8c-0.5,2.4-0.2,5,0.8,7.2l9,1.7
	c0.2,0,0.3,0.1,0.4,0.2c0.1,0.1,0.2,0.2,0.3,0.3c0.1,0.1,0.1,0.3,0.2,0.4c0,0.2,0,0.3,0,0.5c0,0.2-0.1,0.3-0.2,0.4
	c-0.1,0.1-0.2,0.2-0.3,0.3c-0.1,0.1-0.3,0.1-0.4,0.2c-0.2,0-0.3,0-0.5,0L3.3,37c-0.2,0-0.3-0.1-0.5-0.2c-0.1-0.1-0.3-0.3-0.3-0.4
	c-1.3-2.8-1.8-6-1.2-9c0-1,0.1-2.1,0.3-3.1C2,23,2.8,21.9,3.9,21.1v-1.4c-0.2-1.2-0.3-2.4-0.2-3.7C4.1,15,4.9,14,5.9,13.3
	c0.6-0.5,4.2-3.5,6.4-5.4L12,7.4c-0.1-0.2-0.1-0.3-0.1-0.5c0-0.2,0.1-0.3,0.1-0.5c0.1-0.1,0.2-0.3,0.3-0.4c0.1-0.1,0.3-0.2,0.5-0.2
	c11.8-2.2,23.7-3.1,35.7-2.8C54.9,2.8,61.4,3.4,67.6,5c3.5,1.2,17.2,8.3,18,8.7c3.7,1.6,7.7,2.6,11.7,2.9c6.4,0.7,12.8,1.9,19.1,3.7
	c1.4,0.4,2.7,1.1,3.7,2.1c1,1,1.8,2.2,2.2,3.6l0.1,0.7c1.2,3.9,1.1,8.1-0.2,12c-0.1,0.2-0.2,0.4-0.3,0.5c-0.2,0.1-0.3,0.2-0.5,0.3
	l-4.8,0.9l-1.8,0.9C114.6,41.4,114.4,41.4,114.3,41.3L114.3,41.3z"/>
<path class="st2" d="M60.7,51.5c28.9,0,52.4-1.2,52.4-2.6c0-1.4-23.4-2.6-52.4-2.6c-28.9,0-52.4,1.2-52.4,2.6
	C8.4,50.4,31.8,51.5,60.7,51.5z"/>
<path class="st2" d="M23.3,47.8c5.6,0,10.1-4.5,10.1-10s-4.5-10-10.1-10s-10.1,4.5-10.1,10S17.7,47.8,23.3,47.8z"/>
<path class="st1" d="M23.3,49c-2.2,0-4.4-0.7-6.2-1.9c-1.8-1.2-3.3-3-4.1-5c-0.9-2-1.1-4.3-0.6-6.5c0.4-2.2,1.5-4.2,3.1-5.7
	s3.6-2.6,5.8-3.1c2.2-0.4,4.4-0.2,6.5,0.6c2.1,0.8,3.8,2.3,5.1,4.1c1.2,1.8,1.9,4,1.9,6.2c0,3-1.2,5.8-3.3,7.9
	C29.1,47.7,26.2,48.9,23.3,49L23.3,49z M23.3,28.8c-1.8,0-3.5,0.5-5,1.5c-1.5,1-2.6,2.4-3.3,4c-0.7,1.6-0.9,3.4-0.5,5.1
	c0.3,1.7,1.2,3.3,2.4,4.6c1.2,1.3,2.8,2.1,4.6,2.5c1.7,0.4,3.5,0.2,5.2-0.5c1.6-0.7,3-1.8,4-3.2c1-1.5,1.5-3.2,1.6-4.9
	c0-2.4-1-4.6-2.6-6.3C27.8,29.8,25.6,28.9,23.3,28.8L23.3,28.8z"/>
<path class="st2" d="M98.2,47.8c5.6,0,10.1-4.5,10.1-10s-4.5-10-10.1-10c-5.6,0-10.1,4.5-10.1,10S92.6,47.8,98.2,47.8z"/>
<path class="st1" d="M98.2,49c-2.2,0-4.4-0.7-6.2-1.9c-1.8-1.2-3.3-3-4.1-5c-0.9-2-1.1-4.3-0.6-6.5c0.4-2.2,1.5-4.2,3.1-5.7
	c1.6-1.6,3.6-2.6,5.8-3.1c2.2-0.4,4.4-0.2,6.5,0.6c2.1,0.8,3.8,2.3,5.1,4.1c1.2,1.8,1.9,4,1.9,6.2c0,1.5-0.3,2.9-0.9,4.3
	c-0.6,1.4-1.4,2.6-2.5,3.6s-2.3,1.9-3.7,2.4S99.6,48.9,98.2,49L98.2,49z M98.2,28.8c-1.8,0-3.5,0.5-5,1.5c-1.5,1-2.6,2.4-3.3,4
	c-0.7,1.6-0.9,3.4-0.5,5.1c0.3,1.7,1.2,3.3,2.4,4.6c1.2,1.2,2.8,2.1,4.6,2.4c1.7,0.3,3.5,0.2,5.2-0.5c1.6-0.7,3-1.8,4-3.3
	c1-1.5,1.5-3.2,1.5-4.9c0-2.4-1-4.6-2.7-6.3C102.8,29.8,100.5,28.8,98.2,28.8L98.2,28.8z"/>
<path class="st0" d="M98.2,43.5c3.2,0,5.8-2.6,5.8-5.7c0-3.2-2.6-5.7-5.8-5.7s-5.8,2.6-5.8,5.7C92.4,40.9,95,43.5,98.2,43.5z"/>
<path class="st0" d="M92.4,37.7c0-1.2,0.4-2.4,1.1-3.4c0.7-1,1.8-1.7,3-2.1c1.2-0.4,2.5-0.3,3.6,0.1c1.2,0.4,2.2,1.2,2.8,2.2
	c0.7,1,1,2.2,1,3.5c-0.1,1.2-0.5,2.4-1.3,3.4c-0.8,0.9-1.9,1.6-3.1,1.9s-2.5,0.2-3.6-0.3c-1.2-0.5-2.2-1.4-2.8-2.6"/>
<path class="st1" d="M98.1,44.1c-0.8,0-1.7-0.2-2.4-0.5c-1.3-0.5-2.4-1.5-3.1-2.8c0-0.1,0-0.3,0-0.4c0-0.1,0.1-0.2,0.2-0.3
	c0.1-0.1,0.2-0.1,0.4-0.1c0.1,0,0.2,0.1,0.3,0.1c0.6,1.1,1.6,2,2.7,2.4c1.2,0.4,2.5,0.4,3.7,0c1.2-0.4,2.2-1.3,2.7-2.4
	c0.6-1.1,0.8-2.4,0.5-3.6c-0.3-1.2-1-2.3-2.1-3c-1-0.7-2.3-1-3.5-0.9c-1.3,0.1-2.4,0.7-3.3,1.7c-0.8,0.9-1.3,2.1-1.3,3.4
	c0,0.1-0.1,0.2-0.2,0.3c-0.1,0.1-0.2,0.1-0.4,0.1s-0.3,0-0.4-0.1c-0.1-0.1-0.2-0.2-0.2-0.3c0-0.8,0.1-1.7,0.5-2.4
	c0.4-1.1,1.2-2,2.1-2.7c0.9-0.7,2-1.1,3.2-1.2c1.2-0.1,2.3,0.1,3.4,0.6c1,0.5,1.9,1.3,2.6,2.2c0.6,1,1,2.1,1.1,3.2
	c0.1,1.1-0.2,2.3-0.8,3.3c-0.5,1-1.4,1.9-2.4,2.4C100.4,43.7,99.3,44,98.1,44.1L98.1,44.1z M88.2,40.4H39.4c-0.3,0-0.6-0.1-0.8-0.3
	c-0.2-0.2-0.3-0.5-0.3-0.8s0.1-0.6,0.3-0.8c0.2-0.2,0.5-0.3,0.8-0.3h48.8c0.3,0,0.6,0.1,0.8,0.3c0.2,0.2,0.3,0.5,0.3,0.8
	s-0.1,0.6-0.3,0.8C88.8,40.3,88.5,40.4,88.2,40.4L88.2,40.4z M84.1,35.9H33.3c-0.1,0-0.2-0.1-0.3-0.2c-0.1-0.1-0.1-0.2-0.1-0.4
	c0-0.1,0-0.3,0.1-0.4c0.1-0.1,0.2-0.2,0.3-0.2h50.5c0.4-2.6,1.6-4.9,3.3-6.9c1.8-1.9,4-3.3,6.6-3.9c0.1,0,0.2,0,0.2,0
	c0.1,0,0.2,0,0.2,0.1c0.1,0,0.1,0.1,0.2,0.2c0,0.1,0.1,0.1,0.1,0.2c0,0.1,0,0.3-0.1,0.4c-0.1,0.1-0.2,0.2-0.4,0.2
	c-2.4,0.7-4.5,2-6.1,3.8c-1.6,1.8-2.6,4.1-3,6.5c0,0.1-0.1,0.3-0.2,0.3S84.3,35.8,84.1,35.9L84.1,35.9z"/>
<path class="st2" d="M37.2,15.2l-15-1.8c-0.9-1.1-1.8-2.3-2.6-3.6C29.2,8.6,38.9,8,48.5,8.1c6.3-0.2,12.6,0.5,18.7,2
	c2.8,0.9,11.9,5.5,15.9,7.6L37.2,15.2z"/>
<path class="st1" d="M83.2,18.8L83.2,18.8l-45.9-2.4h-0.1l-14.9-1.8c-0.3,0-0.5-0.2-0.7-0.4c-1-1.2-1.9-2.4-2.7-3.7
	c-0.1-0.2-0.2-0.4-0.2-0.6c0-0.2,0-0.4,0.1-0.6s0.2-0.3,0.4-0.5c0.2-0.1,0.4-0.2,0.6-0.2C29.2,7.5,38.9,6.9,48.6,7
	C55,6.8,61.4,7.5,67.7,9c3,1,13.1,6.1,16.1,7.7c0.2,0.1,0.4,0.3,0.5,0.5c0.1,0.2,0.1,0.5,0.1,0.7c-0.1,0.2-0.2,0.5-0.4,0.6
	C83.8,18.8,83.5,18.8,83.2,18.8L83.2,18.8z M37.4,14.1l40.4,2.2l-10.9-5c-6-1.5-12.1-2.1-18.3-1.9c-9-0.1-18,0.4-26.9,1.5l1.2,1.6
	L37.4,14.1L37.4,14.1z"/>
<path class="st1" d="M73.7,18.2h3.4c0.3,0,0.7-0.1,0.9-0.4c0.2-0.2,0.4-0.6,0.4-0.9c0-0.2,0-0.4-0.1-0.5c-0.1-0.2-0.2-0.3-0.3-0.4
	c-0.1-0.1-0.3-0.2-0.4-0.3c-0.2-0.1-0.3-0.1-0.5-0.1h-3.4V18.2z"/>
<path class="st1" d="M77,19.4h-3.4c-0.3,0-0.6-0.1-0.8-0.3c-0.2-0.2-0.3-0.5-0.3-0.8v-2.7c0-0.3,0.1-0.6,0.3-0.8s0.5-0.3,0.8-0.3
	h3.4c0.7,0,1.3,0.3,1.8,0.7c0.5,0.5,0.7,1.1,0.7,1.8s-0.3,1.3-0.7,1.8C78.4,19.2,77.7,19.4,77,19.4L77,19.4z M74.7,17.1H77v-0.4
	h-2.3V17.1z M54.4,32.5c-0.1,0-0.3-0.1-0.4-0.2c-0.1-0.1-0.2-0.2-0.2-0.3c-0.9-9.2-2.3-18.3-4-27.4c0-0.1,0.1-0.2,0.2-0.3
	c0.1-0.1,0.2-0.1,0.3-0.2c0.1,0,0.2,0,0.4,0c0.1,0.1,0.2,0.1,0.3,0.2c0,0.1,3.2,17,4.1,27.5c0,0.2-0.1,0.3-0.2,0.4
	C54.8,32.5,54.6,32.6,54.4,32.5L54.4,32.5z M60.4,20.5h-4.6c-0.1,0-0.2-0.1-0.3-0.2s-0.1-0.2-0.1-0.4s0-0.3,0.1-0.4s0.2-0.2,0.3-0.2
	h4.6c0.1,0,0.2,0.1,0.3,0.2c0.1,0.1,0.1,0.2,0.1,0.4s0,0.3-0.1,0.4C60.7,20.4,60.6,20.5,60.4,20.5z M32.4,19.8h-4.6
	c-0.1,0-0.2-0.1-0.3-0.2c-0.1-0.1-0.1-0.2-0.1-0.4c0-0.1,0-0.3,0.1-0.4c0.1-0.1,0.2-0.2,0.3-0.2h4.6c0.1,0,0.2,0.1,0.3,0.2
	c0.1,0.1,0.1,0.2,0.1,0.4c0,0.1,0,0.3-0.1,0.4C32.7,19.7,32.6,19.8,32.4,19.8z M20.2,6c-0.1,0-0.2,0-0.3-0.1c-0.1,0-0.2-0.1-0.2-0.2
	c-0.1-0.1-0.1-0.3,0-0.4c0-0.1,0.1-0.3,0.3-0.3c1.9-1,3.9-2,6-2.8c2.3-0.5,4.6-0.8,6.9-1l23.5,0.4c3.2,0.5,6.3,1.5,9.2,2.9
	c0.1,0.1,0.2,0.2,0.2,0.3c0,0.1,0,0.3,0,0.4c-0.1,0.1-0.1,0.2-0.3,0.3c-0.1,0.1-0.2,0.1-0.4,0.1c-2.8-1.4-5.8-2.4-8.9-2.8
	c-7.7-0.5-15.5-0.6-23.2-0.4c-2.2,0.1-4.5,0.4-6.6,0.9c-2,0.8-3.9,1.7-5.8,2.7C20.4,6,20.3,6,20.2,6z"/>
<path class="st1" d="M28,5.5c-0.1,0-0.2,0-0.3-0.1c-0.1-0.1-0.2-0.2-0.3-0.3c0-0.1,0-0.3,0-0.4L29,1.8c0.1-0.1,0.2-0.1,0.3-0.2
	c0.1,0,0.2,0,0.4,0.1C29.8,1.8,29.9,1.9,30,2C30,2.1,30.1,2.2,30,2.3l-1.5,2.8c0,0.1-0.1,0.2-0.2,0.2C28.2,5.4,28.1,5.4,28,5.5
	L28,5.5z M39.1,4.6c-0.1,0-0.2,0-0.2,0c-0.1,0-0.1-0.1-0.2-0.1s-0.1-0.1-0.1-0.2c0-0.1,0-0.1,0-0.2V1.7c0-0.2,0.1-0.3,0.2-0.4
	c0.1-0.1,0.3-0.2,0.4-0.2c0.2,0,0.3,0.1,0.4,0.2c0.1,0.1,0.2,0.3,0.2,0.4v2.4c0,0.2-0.1,0.3-0.2,0.4C39.4,4.6,39.2,4.7,39.1,4.6
	L39.1,4.6z M5.2,23c-0.1,0-0.2-0.1-0.3-0.1c-0.1-0.1-0.2-0.2-0.2-0.3c0-0.1,0-0.2,0-0.3c0-0.1,0.1-0.2,0.2-0.3l8.6-5.4
	c-2.8-0.6-5.7-0.5-8.4,0.4C5,16.9,4.9,17,4.8,17c-0.1,0-0.2,0-0.3,0c-0.1,0-0.2-0.1-0.2-0.1c-0.1-0.1-0.1-0.1-0.1-0.2
	c0-0.1,0-0.2,0-0.3c0-0.1,0-0.2,0.1-0.3c0-0.1,0.1-0.1,0.2-0.2c0.1,0,0.2-0.1,0.3-0.1c3-0.9,6.2-1,9.3-0.3c0.2,0,0.4,0.1,0.6,0.3
	c0.2,0.1,0.3,0.3,0.3,0.6c0,0.2,0,0.4-0.1,0.6c-0.1,0.2-0.3,0.3-0.5,0.4l-8.9,5.5C5.3,22.9,5.2,22.9,5.2,23L5.2,23z"/>
<path class="st1" d="M4.8,16.3c2.9-0.9,6-1,9-0.3c0.6,0.1,0.6,0.6,0.2,0.8l-4.2,2.4H5.1L4.8,16.3z M121.4,28.6L121.4,28.6
	c-0.3,0-6.9-0.9-8.2-1.4c-2.2-1.3-4.2-2.7-6.1-4.3c-0.1-0.1-0.2-0.2-0.2-0.3c0-0.1,0-0.2,0-0.3c0-0.1,0.1-0.2,0.2-0.3
	c0.1-0.1,0.2-0.1,0.3-0.2c4.7-0.1,9.4,0.9,13.7,2.8c0.1,0.1,0.1,0.2,0.2,0.3c0,0.1,0,0.2,0,0.3c-0.1,0.1-0.1,0.2-0.2,0.3
	c-0.1,0.1-0.2,0.1-0.3,0.1c-3.7-1.5-7.6-2.4-11.5-2.7H109c1.4,1.2,3,2.3,4.6,3.2c0.9,0.3,6,1.1,7.8,1.4c0.1,0,0.2,0.1,0.3,0.2
	c0.1,0.1,0.1,0.2,0.1,0.4c0,0.1-0.1,0.3-0.1,0.4C121.6,28.6,121.5,28.7,121.4,28.6L121.4,28.6z"/>
<path class="st1" d="M114.9,23.1c-2.4-0.7-4.9-0.9-7.4-0.7c2,1.6,4,3.1,6.2,4.4l2.3,0.5L114.9,23.1z M13.6,35.2c0,0-0.1,0-0.1,0
	c-2.5-0.6-5-1.3-7.4-2.1c-0.1,0-0.2-0.1-0.2-0.2c-0.1-0.1-0.1-0.2-0.1-0.2c-0.3-1.2-1.4-4.4-3.4-4.5c-0.1,0-0.2-0.1-0.3-0.2
	C2,27.9,2,27.8,2,27.7c0-0.1,0-0.3,0.1-0.4c0.1-0.1,0.2-0.2,0.3-0.2h0c2.8,0.1,4.1,3.9,4.3,5c2.1,0.8,6.9,2,6.9,2
	c0.1,0,0.2,0.1,0.3,0.2c0.1,0.1,0.1,0.2,0.1,0.4c0,0.1-0.1,0.3-0.2,0.3C13.8,35.2,13.7,35.2,13.6,35.2L13.6,35.2z"/>
<path class="st0" d="M23.3,43.5c3.2,0,5.8-2.6,5.8-5.7c0-3.2-2.6-5.7-5.8-5.7c-3.2,0-5.8,2.6-5.8,5.7C17.5,40.9,20.1,43.5,23.3,43.5
	z"/>
<path class="st1" d="M17.5,37c-0.1,0-0.2,0-0.3-0.1c-0.1,0-0.2-0.1-0.2-0.2c-0.1-0.1-0.1-0.1-0.1-0.2c0-0.1,0-0.2,0-0.3
	c0.3-1.3,1-2.5,2-3.3c0.1-0.1,0.3-0.2,0.4-0.1c0.2,0,0.3,0.1,0.4,0.2s0.2,0.3,0.1,0.4c0,0.2-0.1,0.3-0.2,0.4
	c-0.8,0.7-1.4,1.7-1.6,2.8c0,0.1-0.1,0.2-0.2,0.3C17.7,37,17.6,37.1,17.5,37L17.5,37z M23.2,44.1c-1.5,0-2.9-0.5-4-1.4
	c-1.1-0.9-1.9-2.2-2.3-3.6c0-0.2,0-0.3,0.1-0.4c0.1-0.1,0.2-0.2,0.4-0.3c0.2,0,0.3,0,0.4,0.1c0.1,0.1,0.2,0.2,0.3,0.4
	c0.2,1,0.7,2,1.5,2.7c0.8,0.7,1.7,1.2,2.8,1.4c1,0.2,2.1,0,3.1-0.4c1-0.4,1.8-1.2,2.3-2.1c0.5-0.9,0.8-1.9,0.7-3
	c-0.1-1-0.4-2-1.1-2.9s-1.5-1.4-2.5-1.7c-1-0.3-2.1-0.3-3.1,0c-0.1,0-0.2,0-0.2,0c-0.1,0-0.2,0-0.2-0.1c-0.1,0-0.1-0.1-0.2-0.1
	c0-0.1-0.1-0.1-0.1-0.2c0-0.1,0-0.3,0-0.4c0.1-0.1,0.2-0.2,0.3-0.3c0.9-0.3,1.8-0.3,2.7-0.2c0.9,0.1,1.8,0.4,2.5,0.9
	c0.8,0.5,1.4,1.1,1.9,1.9c0.5,0.8,0.8,1.6,1,2.5c0.1,0.9,0.1,1.8-0.2,2.7c-0.2,0.9-0.7,1.7-1.3,2.4c-0.6,0.7-1.3,1.3-2.1,1.6
	C25,43.9,24.1,44.1,23.2,44.1L23.2,44.1z"/>
<path class="st2" d="M83.2,17.7l3.4,1.6L83.2,17.7z"/>
<path class="st1" d="M86.6,20.4c-0.2,0-0.3-0.1-0.5-0.1l-3.4-1.5c-0.3-0.1-0.5-0.3-0.6-0.6c-0.1-0.3-0.1-0.6,0-0.9
	c0.1-0.3,0.4-0.5,0.6-0.6s0.6-0.1,0.9,0l3.5,1.6c0.2,0.1,0.4,0.3,0.6,0.5c0.1,0.2,0.2,0.5,0.1,0.8c-0.1,0.3-0.2,0.5-0.4,0.7
	C87.2,20.3,86.9,20.4,86.6,20.4L86.6,20.4z"/>
</svg>
