<?xml version="1.0" encoding="utf-8"?>
<!-- Generator: Adobe Illustrator 24.2.0, SVG Export Plug-In . SVG Version: 6.00 Build 0)  -->
<svg version="1.1" id="Layer_1" xmlns="http://www.w3.org/2000/svg" xmlns:xlink="http://www.w3.org/1999/xlink" x="0px" y="0px"
	 viewBox="0 0 144 55.3" style="enable-background:new 0 0 144 55.3;" xml:space="preserve">
<style type="text/css">
	.st0{clip-path:url(#SVGID_2_);}
	.st1{fill:#FFFFFF;}
	.st2{fill:#644E77;}
	.st3{fill:#E6E6E6;}
</style>
<g>
	<defs>
		<rect id="SVGID_1_" y="-23.7" width="144" height="79"/>
	</defs>
	<clipPath id="SVGID_2_">
		<use xlink:href="#SVGID_1_"  style="overflow:visible;"/>
	</clipPath>
	<g class="st0">
		<path class="st1" d="M130.3,39.1h10.8c0,0,1.5-0.7,1.5-1.6c0-2.2,0.5-4.2-2-5.1V19.8c-0.8-0.7-1.6-1.3-2.6-1.8
			c-0.4-0.1-7.4-1.4-15.3-2.1l-11.2-0.9L95.2,4.8c-2.5-1.2-5.2-1.9-8-2c-0.5,0-26.4-0.6-30.2-0.4c-3.8,0.2-6.5,0.5-7,2.2
			c-0.5,1.7-1.4,9.8-1.4,11.1H7.9c-1.4,0-3.6-0.2-4.2,1.4C2.6,22.7,2.5,28.4,3.4,34H1.5c-0.5,1.3-0.5,2.8,0,4.1
			c0.2,0.7,0.6,1,2.6,1.3c5.9,0.5,11.9,0.7,17.8,0.5"/>
		<path class="st2" d="M14.3,41c-3.4,0-6.9-0.2-10.3-0.6c-2.1-0.2-3.2-0.6-3.6-2c-0.5-1.7-0.5-3.5,0.1-5.1c0.1-0.1,0.3-0.2,0.4-0.3
			c0.2-0.1,0.3-0.1,0.5-0.1h0.7C1.4,27.5,1.6,22,2.7,16.7c0.8-2.1,3.3-2.1,4.8-2.1h40.1c0.2-2.7,0.9-8.7,1.4-10.2
			c0.7-2.6,3.9-2.8,8-3c3.7-0.3,29.5,0.3,30.4,0.4c2.9,0.1,5.8,0.8,8.5,2c3.8,1.9,14.2,8.8,16.1,10c1,0,4.4,0.2,10.9,0.9l15.6,2.2
			c0,0,3.3,1.6,3.3,2.9v11.8c0.8,0.5,1.4,1.3,1.8,2.2c0.4,0.9,0.5,1.9,0.2,2.8v0.9c0,1.6-1.8,2.5-2.1,2.6c-0.1,0.1-0.3,0.1-0.5,0.1
			h-10.8c-0.3,0-0.6-0.1-0.8-0.3s-0.3-0.5-0.3-0.8s0.1-0.6,0.3-0.8c0.2-0.2,0.5-0.3,0.8-0.3h10.5c0.2-0.1,0.4-0.3,0.6-0.6v-0.8
			c0.1-2,0-2.6-1.3-3.1c-0.2-0.1-0.4-0.2-0.5-0.4c-0.1-0.2-0.2-0.4-0.2-0.7V20.4c-0.6-0.4-1.2-0.8-1.9-1.2
			c-8.6-1.6-17.3-2.6-26.1-3.1c-0.2,0-0.4-0.1-0.6-0.2l-16.1-10c-2.3-1.1-4.9-1.8-7.4-1.9C85.9,3.9,60.8,3.4,57,3.7
			C54.3,3.8,51.5,4,51.2,5c-0.5,1.6-1.4,9.4-1.4,10.8c0,0.3-0.1,0.6-0.4,0.8c-0.2,0.2-0.5,0.3-0.8,0.3H7.4c-0.9,0-2.3,0-2.6,0.6
			c-1,5.4-1.1,10.9-0.3,16.3c0,0.2,0,0.3,0,0.5c0,0.2-0.1,0.3-0.2,0.4C4.2,34.9,4,35,3.9,35.1c-0.2,0.1-0.3,0.1-0.5,0.1H2.3
			c-0.1,0.9,0,1.7,0.2,2.6c0.1,0.1,0.4,0.3,1.7,0.5c4.6,0.5,9.2,0.6,13.8,0.5l3.9,0c0.3,0,0.6,0.1,0.8,0.3c0.2,0.2,0.3,0.5,0.3,0.8
			s-0.1,0.6-0.3,0.8c-0.2,0.2-0.5,0.3-0.8,0.3h-3.7L14.3,41L14.3,41z M60.2,23.3h-4.7c-0.1,0-0.2-0.1-0.3-0.2
			C55,22.9,55,22.8,55,22.7c0-0.1,0-0.3,0.1-0.4c0.1-0.1,0.2-0.2,0.3-0.2h4.7c0.1,0,0.2,0.1,0.3,0.2c0.1,0.1,0.1,0.2,0.1,0.4
			c0,0.1,0,0.3-0.1,0.4C60.4,23.1,60.3,23.2,60.2,23.3z M87,23.3h-4.6c-0.1,0-0.2-0.1-0.3-0.2c-0.1-0.1-0.1-0.2-0.1-0.4
			c0-0.1,0-0.3,0.1-0.4c0.1-0.1,0.2-0.2,0.3-0.2H87c0.1,0,0.2,0.1,0.3,0.2c0.1,0.1,0.1,0.2,0.1,0.4c0,0.1,0,0.3-0.1,0.4
			C87.2,23.1,87.1,23.2,87,23.3z"/>
		<path class="st3" d="M75.9,54.2c32.4,0,58.6-1.2,58.6-2.6c0-1.5-26.2-2.6-58.6-2.6c-32.4,0-58.6,1.2-58.6,2.6
			C17.2,53,43.5,54.2,75.9,54.2z"/>
		<path class="st3" d="M33.2,50.4c6.2,0,11.2-5,11.2-11.2c0-6.2-5-11.2-11.2-11.2C27,28,22,33,22,39.2C22,45.4,27,50.4,33.2,50.4z"
			/>
		<path class="st2" d="M33.2,51.6c-2.4,0-4.8-0.7-6.9-2.1c-2-1.4-3.6-3.3-4.6-5.5c-0.9-2.3-1.2-4.7-0.7-7.1c0.5-2.4,1.7-4.6,3.4-6.3
			c1.7-1.7,3.9-2.9,6.3-3.4c2.4-0.5,4.9-0.2,7.1,0.7c2.3,0.9,4.2,2.5,5.5,4.6c1.4,2,2.1,4.4,2.1,6.9c0,3.3-1.3,6.4-3.6,8.7
			C39.6,50.3,36.4,51.6,33.2,51.6z M33.2,29.2c-2,0-3.9,0.6-5.6,1.7s-2.9,2.7-3.7,4.5c-0.8,1.8-1,3.9-0.6,5.8
			c0.4,1.9,1.3,3.7,2.7,5.1c1.4,1.4,3.2,2.4,5.1,2.7c1.9,0.4,4,0.2,5.8-0.6s3.4-2,4.5-3.7c1.1-1.6,1.7-3.6,1.7-5.6
			c0-2.7-1.1-5.2-3-7.1C38.4,30.3,35.8,29.2,33.2,29.2z"/>
		<path class="st1" d="M33.2,45.6c3.5,0,6.4-2.9,6.4-6.4s-2.9-6.4-6.4-6.4c-3.5,0-6.4,2.9-6.4,6.4S29.6,45.6,33.2,45.6z"/>
		<path class="st3" d="M119.1,50.4c6.2,0,11.2-5,11.2-11.2c0-6.2-5-11.2-11.2-11.2c-6.2,0-11.2,5-11.2,11.2
			C107.9,45.4,112.9,50.4,119.1,50.4z"/>
		<path class="st2" d="M119.1,51.6c-2.4,0-4.8-0.7-6.9-2.1c-2-1.4-3.6-3.3-4.5-5.6s-1.2-4.7-0.7-7.1c0.5-2.4,1.7-4.6,3.4-6.3
			c1.7-1.7,3.9-2.9,6.3-3.4c2.4-0.5,4.9-0.2,7.1,0.7c2.3,0.9,4.2,2.5,5.5,4.6c1.4,2,2.1,4.4,2.1,6.9c0,3.3-1.3,6.4-3.6,8.7
			C125.6,50.3,122.4,51.6,119.1,51.6L119.1,51.6z M119.1,29.2c-2,0-3.9,0.6-5.6,1.7c-1.6,1.1-2.9,2.7-3.7,4.5
			c-0.8,1.8-0.9,3.9-0.6,5.8c0.4,1.9,1.4,3.7,2.8,5.1c1.4,1.4,3.2,2.3,5.1,2.7s4,0.2,5.8-0.6c1.8-0.8,3.4-2,4.5-3.7
			c1.1-1.6,1.7-3.6,1.7-5.6c0-2.7-1.1-5.2-3-7.1C124.4,30.3,121.8,29.2,119.1,29.2L119.1,29.2z"/>
		<path class="st1" d="M119.1,45.6c3.5,0,6.4-2.9,6.4-6.4s-2.9-6.4-6.4-6.4s-6.4,2.9-6.4,6.4S115.6,45.6,119.1,45.6z"/>
		<path class="st2" d="M112.9,38.4h-0.1c-0.1,0-0.2,0-0.2-0.1c-0.1,0-0.1-0.1-0.2-0.2c0-0.1-0.1-0.1-0.1-0.2s0-0.2,0-0.2
			c0.3-1.4,1.1-2.7,2.2-3.7c0.1-0.1,0.1-0.1,0.2-0.1c0.1,0,0.1,0,0.2,0s0.2,0,0.2,0c0.1,0,0.1,0.1,0.2,0.1c0.1,0.1,0.1,0.1,0.1,0.2
			c0,0.1,0,0.2,0,0.2c0,0.1,0,0.2-0.1,0.2c0,0.1-0.1,0.1-0.2,0.2c-0.9,0.8-1.6,1.9-1.8,3.1c0,0.1-0.1,0.3-0.2,0.3
			C113.1,38.4,113,38.4,112.9,38.4z M119.1,46.2c-1.6,0-3.1-0.6-4.4-1.6s-2.1-2.4-2.4-4c0-0.1,0-0.1,0-0.2c0-0.1,0-0.1,0.1-0.2
			c0-0.1,0.1-0.1,0.2-0.2c0.1,0,0.1-0.1,0.2-0.1c0.1,0,0.3,0,0.4,0.1c0.1,0.1,0.2,0.2,0.2,0.4c0.3,1.1,0.8,2.2,1.7,3
			c0.9,0.8,1.9,1.3,3.1,1.5c1.2,0.2,2.3,0,3.4-0.5c1.1-0.5,1.9-1.3,2.5-2.3c0.6-1,0.9-2.2,0.8-3.3c-0.1-1.2-0.5-2.3-1.2-3.2
			c-0.7-0.9-1.7-1.6-2.8-1.9c-1.1-0.4-2.3-0.4-3.4,0c-0.1,0-0.2,0-0.2,0c-0.1,0-0.2,0-0.2-0.1c-0.1,0-0.1-0.1-0.2-0.1
			c0-0.1-0.1-0.1-0.1-0.2c0-0.1,0-0.3,0.1-0.4c0.1-0.1,0.2-0.2,0.3-0.3c0.7-0.2,1.4-0.3,2.1-0.3c1.8,0,3.6,0.7,4.9,2
			c1.3,1.3,2,3.1,2,4.9c0,1.8-0.7,3.6-2,4.9C122.8,45.4,121,46.2,119.1,46.2L119.1,46.2z M107.9,41.4H49.6c-0.3,0-0.6-0.1-0.8-0.3
			c-0.2-0.2-0.3-0.5-0.3-0.8c0-0.3,0.1-0.6,0.3-0.8c0.2-0.2,0.5-0.3,0.8-0.3h58.3c0.3,0,0.6,0.1,0.8,0.3c0.2,0.2,0.3,0.5,0.3,0.8
			c0,0.3-0.1,0.6-0.3,0.8C108.5,41.3,108.2,41.4,107.9,41.4z M22,35.3H10.8c-0.2,0-4.6-0.2-6.7-0.5c-0.1,0-0.3-0.1-0.4-0.2
			c-0.1-0.1-0.1-0.3-0.1-0.4c0-0.1,0-0.2,0.1-0.2c0-0.1,0.1-0.1,0.1-0.2c0.1,0,0.1-0.1,0.2-0.1c0.1,0,0.2,0,0.2,0l6.5,0.5h11.1
			c0.1,0,0.2,0.1,0.3,0.2c0.1,0.1,0.1,0.2,0.1,0.4c0,0.1,0,0.3-0.1,0.4C22.2,35.3,22.1,35.3,22,35.3L22,35.3z"/>
		<path class="st3" d="M57.1,16.4c0.3,0.1,28,0.5,28.1,0.5c2.6,0,4.6,2.2,7.3,2.2l10.4,0.1c1.1,0,0.6-2.1,0.5-2.7
			c-0.8-2.7-3.9-3.7-6.1-4.9c-3.5-2.2-7.5-3.7-11.7-4.2c-1.3-0.1-25.6-0.5-26.2-0.5c-1.9,0-4,0-4.2,2.3L55,14.3
			C55,14.7,54.9,16.1,57.1,16.4L57.1,16.4z"/>
		<path class="st2" d="M102.9,20.3h-1l-9.4-0.1c-1.5-0.1-2.9-0.5-4.2-1.2c-1-0.6-2-0.9-3.2-1C85,18,57.6,17.6,57,17.5
			c-2.1-0.3-3.3-1.5-3.2-3.3l0.3-5.2c0.2-3.3,3.4-3.3,5.1-3.3l26.5,0.4c3.7,0.4,7.3,1.6,10.5,3.6l2.6,1.3c1.3,0.4,2.4,1.1,3.4,1.9
			c1,0.9,1.8,2,2.3,3.2c0.2,0.6,0.3,1.2,0.3,1.8c0,0.6-0.2,1.2-0.4,1.8c-0.2,0.2-0.4,0.4-0.6,0.5C103.5,20.3,103.2,20.4,102.9,20.3
			L102.9,20.3z M57.2,15.2c1.4,0.1,26.4,0.5,28,0.5c1.5,0.1,2.9,0.5,4.1,1.2c1,0.6,2.1,0.9,3.2,1l9.4,0.1h0.5c0-0.4-0.1-0.8-0.2-1.2
			c-0.6-1.9-2.6-2.8-4.5-3.7L95,11.7c-2.9-1.8-6.2-2.9-9.6-3.3L59.5,8c-2.6,0-3,0.3-3,1.2l-0.3,5.1C56.1,14.5,56.1,15,57.2,15.2
			L57.2,15.2z"/>
		<path class="st2" d="M79.2,33.1c-0.1,0-0.3-0.1-0.4-0.2c-0.1-0.1-0.2-0.2-0.2-0.4c-0.6-10.1-1.9-20.1-3.9-30c0-0.1,0-0.3,0.1-0.4
			C75,2,75.1,2,75.3,1.9c0.1,0,0.3,0,0.4,0.1c0.1,0.1,0.2,0.2,0.3,0.3c2,10,3.3,20.1,3.9,30.2c0,0.2-0.1,0.3-0.2,0.4
			C79.5,33,79.4,33.1,79.2,33.1z M98.6,19.1h3.4c0.4,0,0.7-0.2,1-0.4c0.3-0.3,0.4-0.6,0.4-1c0-0.4-0.2-0.7-0.4-0.9s-0.6-0.4-1-0.4
			h-3.4V19.1z"/>
		<path class="st2" d="M102.1,20.2h-3.4c-0.3,0-0.6-0.1-0.8-0.3c-0.2-0.2-0.3-0.5-0.3-0.8v-2.8c0-0.3,0.1-0.6,0.3-0.8
			c0.2-0.2,0.5-0.3,0.8-0.3h3.4c0.7,0,1.3,0.3,1.8,0.7c0.5,0.5,0.7,1.1,0.7,1.8c0,0.7-0.3,1.3-0.7,1.8
			C103.4,19.9,102.7,20.2,102.1,20.2L102.1,20.2z M99.7,17.9h2.3v-0.5h-2.3V17.9z M108.6,36H47.4c-0.1,0-0.1,0-0.2,0
			c-0.1,0-0.1-0.1-0.2-0.1c-0.1,0-0.1-0.1-0.1-0.2c0-0.1-0.1-0.1-0.1-0.2c-0.3-2-1.2-4-2.5-5.6c-1.3-1.6-3-2.8-5-3.5
			c-0.1-0.1-0.3-0.2-0.3-0.3C39,26,39,25.8,39,25.7c0.1-0.1,0.2-0.3,0.3-0.3c0.1-0.1,0.3-0.1,0.5,0c2.1,0.8,3.9,2,5.3,3.7
			c1.4,1.7,2.4,3.7,2.8,5.8h60.7c0.1,0,0.2,0.1,0.3,0.2c0.1,0.1,0.1,0.2,0.1,0.4s0,0.3-0.1,0.4C108.8,35.9,108.7,36,108.6,36z
			 M6.8,28.6H3.3c-0.1,0-0.2-0.1-0.3-0.2c-0.1-0.1-0.1-0.2-0.1-0.4c0-0.1,0-0.3,0.1-0.4c0.1-0.1,0.2-0.2,0.3-0.2h3.5
			c0.1,0,0.3,0,0.3-0.3v-3.3c0-0.2,0-0.4,0.1-0.7c0.1-0.2,0.2-0.4,0.4-0.6l1.6-1.4v-1.7l-4.6,0.1c-0.5,0-0.9-0.1-1.3-0.2
			c-0.1,0-0.1,0-0.2-0.1c-0.1,0-0.1-0.1-0.2-0.2S2.9,19.1,2.9,19c0-0.1,0-0.2,0-0.2c0-0.2,0.1-0.3,0.3-0.4c0.1-0.1,0.3-0.1,0.4-0.1
			c0.3,0.1,0.7,0.2,1.1,0.2h4.7c0.3,0,0.5,0.1,0.7,0.3c0.2,0.2,0.3,0.4,0.4,0.7v1.4c0,0.2,0,0.5-0.1,0.7c-0.1,0.2-0.3,0.4-0.5,0.6
			C9.4,22.5,9,23,8.5,23.4c0,0-0.1,0.1-0.1,0.2c0,0.1,0,0.1,0,0.2v3.3c0,0.2,0,0.4-0.1,0.6c-0.1,0.2-0.2,0.3-0.3,0.5
			c-0.1,0.1-0.3,0.2-0.5,0.3C7.3,28.5,7.1,28.6,6.8,28.6L6.8,28.6z M37.8,44.1c-0.1,0-0.2-0.1-0.3-0.1c-0.1-0.1-0.1-0.1-0.2-0.2
			c0-0.1-0.1-0.2-0.1-0.3c0-0.1,0-0.2,0.1-0.3c0.6-0.7,1-1.5,1.3-2.3c0.2-0.9,0.3-1.8,0.1-2.7s-0.5-1.7-1.1-2.4
			c-0.5-0.7-1.2-1.3-2-1.7c-0.8-0.4-1.7-0.6-2.6-0.6c-0.9,0-1.8,0.2-2.6,0.6c-0.8,0.4-1.5,1-2.1,1.7c-0.5,0.7-0.9,1.5-1.1,2.4
			c0,0.2-0.1,0.3-0.3,0.4s-0.3,0.1-0.4,0.1c-0.1,0-0.1,0-0.2-0.1c-0.1,0-0.1-0.1-0.2-0.2c0-0.1-0.1-0.1-0.1-0.2s0-0.1,0-0.2
			c0.2-1.1,0.6-2.1,1.3-2.9c0.6-0.9,1.5-1.6,2.5-2.1c1-0.5,2-0.7,3.1-0.7c1.1,0,2.1,0.2,3.1,0.7c1,0.5,1.8,1.2,2.5,2
			c0.7,0.9,1.1,1.9,1.3,2.9c0.2,1.1,0.1,2.2-0.2,3.2c-0.3,1-0.8,2-1.6,2.8C38.2,44,38.1,44,38,44.1C38,44.1,37.9,44.1,37.8,44.1z
			 M33.2,46.2c-1.6,0-3.1-0.5-4.4-1.5c-1.2-1-2.1-2.4-2.5-3.9c0-0.2,0-0.3,0.1-0.4s0.2-0.2,0.4-0.3c0.1,0,0.2,0,0.2,0
			c0.1,0,0.2,0,0.2,0.1c0.1,0,0.1,0.1,0.2,0.2c0,0.1,0.1,0.1,0.1,0.2c0.3,1.3,1,2.4,2,3.3c1,0.8,2.3,1.3,3.6,1.3
			c0.8,0,1.7-0.2,2.5-0.5c0.1,0,0.2,0,0.3,0.1c0.1,0.1,0.2,0.2,0.2,0.3c0.1,0.1,0.1,0.2,0,0.4c0,0.1-0.1,0.2-0.2,0.3
			C35.2,46,34.2,46.2,33.2,46.2z M48.7,22.1c-0.3,0-0.6-0.1-0.8-0.3s-0.3-0.5-0.3-0.8v-5.2c0-0.3,0.1-0.6,0.3-0.8
			c0.2-0.2,0.5-0.3,0.8-0.3s0.6,0.1,0.8,0.3c0.2,0.2,0.3,0.5,0.3,0.8v5.1c0,0.3-0.1,0.6-0.3,0.8S49,22.1,48.7,22.1L48.7,22.1z
			 M111.5,16.1l-5.2-0.3c-0.2,0-0.3,0-0.4-0.1c-0.1-0.1-0.3-0.2-0.4-0.3c-0.1-0.1-0.2-0.2-0.2-0.4s-0.1-0.3-0.1-0.4
			c0-0.2,0-0.3,0.1-0.5c0.1-0.1,0.2-0.3,0.3-0.4c0.1-0.1,0.3-0.2,0.4-0.2c0.2,0,0.3-0.1,0.5,0l5.1,0.3L111.5,16.1z"/>
		<path class="st2" d="M3.4,18.9C3.8,19,4.2,19,4.6,19h4.7c0,0,0.5,0.1,0.5,0.5v1.4c0,0.1,0,0.3-0.1,0.4c-0.1,0.1-0.1,0.3-0.3,0.4
			L3.3,27L3.4,18.9z M140.6,33.6h-5.1c-0.3,0-0.6-0.1-0.8-0.3c-0.2-0.2-0.3-0.5-0.3-0.8c0-0.3,0.1-0.6,0.3-0.8
			c0.2-0.2,0.5-0.3,0.8-0.3h5.1c0.3,0,0.6,0.1,0.8,0.3c0.2,0.2,0.3,0.5,0.3,0.8c0,0.3-0.1,0.6-0.3,0.8
			C141.2,33.4,140.9,33.6,140.6,33.6z M37.3,25.7c-0.1,0-0.1,0-0.2,0c-0.8-0.2-1.5-0.3-2.3-0.3c-0.1,0-0.2-0.1-0.3-0.2
			c-0.1-0.1-0.1-0.2-0.1-0.4c0-0.1,0-0.3,0.1-0.4c0.1-0.1,0.2-0.2,0.3-0.2c0.9,0,1.7,0.2,2.6,0.4c0.2,0,0.3,0.1,0.4,0.3
			c0.1,0.1,0.1,0.3,0.1,0.4c0,0.1-0.1,0.3-0.2,0.4C37.5,25.7,37.4,25.7,37.3,25.7L37.3,25.7z M140.6,29.2h-2.8
			c-0.5,0-0.9-0.2-1.3-0.6c-0.3-0.3-0.5-0.8-0.5-1.3v-2.7c0-0.3-0.2-0.6-0.4-0.8l-1.9-1.6c-0.1-0.1-0.1-0.1-0.1-0.2s0-0.2,0-0.3
			v-1.1c0-0.2,0.1-0.3,0.1-0.5c0.1-0.1,0.2-0.3,0.3-0.4c0.1-0.1,0.3-0.2,0.4-0.2c0.2,0,0.3-0.1,0.5,0h5.6c0.1,0,0.2,0.1,0.3,0.2
			c0.1,0.1,0.1,0.2,0.1,0.4c0,0.1,0,0.3-0.1,0.4c-0.1,0.1-0.2,0.2-0.3,0.2H135c-0.1,0-0.2,0-0.2,0.1v0.7l1.7,1.5
			c0.5,0.4,0.7,1,0.7,1.7v2.7c0,0,0,0.8,0.6,0.8h2.8c0.1,0,0.2,0.1,0.3,0.2c0.1,0.1,0.1,0.2,0.1,0.4s0,0.3-0.1,0.4
			c-0.1,0.1-0.2,0.2-0.3,0.2V29.2z"/>
		<path class="st2" d="M137.1,24.7c0-0.7-0.9-1.1-1.1-1.3l-1.9-1.6v-1.2c0-0.4,0.5-0.5,0.7-0.5h5.6L137.1,24.7z"/>
	</g>
</g>
</svg>
