<?xml version="1.0" encoding="utf-8"?>
<!-- Generator: Adobe Illustrator 24.2.0, SVG Export Plug-In . SVG Version: 6.00 Build 0)  -->
<svg version="1.1" id="Layer_1" xmlns="http://www.w3.org/2000/svg" xmlns:xlink="http://www.w3.org/1999/xlink" x="0px" y="0px"
	 viewBox="0 0 130.1 53.4" style="enable-background:new 0 0 130.1 53.4;" xml:space="preserve">
<style type="text/css">
	.st0{clip-path:url(#SVGID_2_);}
	.st1{fill:#FFFFFF;}
	.st2{fill:#644E77;}
	.st3{fill:#E6E6E6;}
</style>
<g>
	<defs>
		<rect id="SVGID_1_" x="-7.1" y="-25.6" width="143" height="78.4"/>
	</defs>
	<clipPath id="SVGID_2_">
		<use xlink:href="#SVGID_1_"  style="overflow:visible;"/>
	</clipPath>
	<g class="st0">
		<path class="st1" d="M13.2,40.3l-4.2-1.8l-5.5-1.7l-1.7-3.4c-0.1-3.7,0.8-7.4,2.4-10.7c0-1.3,0.4-2.6,1.1-3.8l-0.1-3.7
			C9,12.7,13,10.2,17,8c-0.7-0.6-1.3-1.3-1.9-2c13-2.3,26.2-3.4,39.4-3.2c7-0.1,14,0.9,20.7,2.9c1.6,0.6,15,7.5,16.8,8.3
			c2.2,1.1,4.5,1.9,6.8,2.3c2.9,0.5,18.9,2.9,25.5,9.5c0.7,1,1.1,2.2,1.2,3.5c0.6,0.7,0.9,1.5,0.9,2.4c-0.3,1.9-0.7,3.8-1.3,5.7
			c0.5,0,1,0.1,1.5,0.3c0.3,0.2-0.1,1.3-0.7,1.6c-2.5,0.7-5,1.3-7.6,1.8h-8.6"/>
		<path class="st2" d="M110,42.1c-0.3,0-0.6-0.1-0.8-0.3c-0.2-0.2-0.3-0.5-0.3-0.8c0-0.3,0.1-0.6,0.3-0.8c0.2-0.2,0.5-0.3,0.8-0.3
			h8.6l6.3-1.4c-0.3-0.1-0.5-0.3-0.6-0.6c-0.1-0.3-0.1-0.5-0.1-0.8c0.6-1.7,1-3.5,1.3-5.4c-0.1-0.6-0.3-1.2-0.7-1.6
			c-0.2-0.2-0.3-0.5-0.3-0.8c0-1-0.4-2-0.9-2.8c-3.9-4-12.9-7.3-24.7-9.1c-2.3-0.4-4.6-1.2-6.7-2.2L91.7,15l-7-3.5
			c-3.2-1.7-6.5-3.3-9.8-4.8c-6.6-1.9-13.4-2.8-20.2-2.8C42.2,3.8,29.8,4.7,17.5,6.7L18,7c0.1,0.1,0.2,0.3,0.3,0.5
			c0.1,0.2,0.1,0.4,0,0.5c0,0.2-0.1,0.4-0.2,0.5c-0.1,0.1-0.2,0.3-0.4,0.4c-3.8,2.1-7.5,4.5-11.1,7l0,3.1c0,0.3-0.1,0.6-0.3,0.8
			c-0.5,0.9-0.8,2-0.8,3c0,0.2-0.1,0.5-0.2,0.6c-1.5,3-2.2,6.4-2.2,9.7L4.5,36l5.1,1.5l4.2,1.8c0.2,0,0.3,0.1,0.4,0.2
			c0.1,0.1,0.2,0.2,0.3,0.4c0.1,0.2,0.1,0.3,0.1,0.5c0,0.2,0,0.3-0.1,0.5c-0.1,0.2-0.2,0.3-0.3,0.4c-0.1,0.1-0.3,0.2-0.4,0.2
			c-0.2,0-0.3,0.1-0.5,0c-0.2,0-0.3-0.1-0.5-0.2l-4.2-1.8l-5.4-1.6C3.2,38,3,38,2.9,37.9c-0.1-0.1-0.2-0.2-0.3-0.4l-1.7-3.4
			c-0.1-0.2-0.1-0.3-0.1-0.5c-0.1-3.8,0.8-7.6,2.4-11.1c0.1-1.3,0.5-2.6,1.1-3.8l-0.1-3.4c0-0.2,0-0.4,0.1-0.5
			c0.1-0.2,0.2-0.3,0.3-0.4C8,12,11.5,9.8,15.1,7.7c-0.3-0.3-0.6-0.7-0.9-1.1C14.1,6.5,14,6.3,14,6.1s0-0.4,0.1-0.6
			c0.1-0.2,0.2-0.3,0.3-0.5c0.2-0.1,0.3-0.2,0.5-0.2C28,2.5,41.3,1.4,54.6,1.6c7.1-0.1,14.2,0.9,21.1,3c0.9,0.3,4.7,2.3,10,4.9
			l6.9,3.5L93,13c1.9,0.9,4,1.6,6.1,2c7.2,1.1,20.2,3.9,26.2,9.9c0.8,1.1,1.3,2.4,1.4,3.8c0.6,0.8,1,1.9,1,2.9
			c-0.2,1.6-0.5,3.2-1,4.7c0.2,0.1,0.4,0.1,0.6,0.2c0.2,0.1,0.4,0.3,0.5,0.6c0.1,0.2,0.2,0.5,0.1,0.8c0,0.5-0.2,0.9-0.4,1.3
			c-0.2,0.4-0.6,0.7-1,1c-2.6,0.8-5.3,1.4-7.9,1.8L110,42.1z"/>
		<path class="st3" d="M61.7,51.7c29,0,52.5-1.2,52.5-2.6c0-1.5-23.5-2.6-52.5-2.6S9.2,47.6,9.2,49.1C9.2,50.5,32.7,51.7,61.7,51.7z
			"/>
		<path class="st3" d="M23.1,47.9c5.6,0,10.1-4.5,10.1-10.1s-4.5-10.1-10.1-10.1S13,32.2,13,37.8S17.5,47.9,23.1,47.9z"/>
		<path class="st2" d="M23.1,49.1c-2.2,0-4.4-0.7-6.2-1.9c-1.8-1.2-3.3-3-4.1-5c-0.9-2.1-1.1-4.3-0.6-6.5c0.4-2.2,1.5-4.2,3.1-5.8
			s3.6-2.7,5.8-3.1s4.4-0.2,6.5,0.6c2.1,0.8,3.8,2.3,5.1,4.1c1.2,1.8,1.9,4,1.9,6.2c0,3-1.2,5.8-3.3,8C29,47.9,26.1,49.1,23.1,49.1
			L23.1,49.1z M23.1,28.8c-1.8,0-3.5,0.5-5,1.5s-2.6,2.4-3.3,4c-0.7,1.6-0.9,3.4-0.5,5.2c0.3,1.7,1.2,3.3,2.4,4.6
			c1.2,1.3,2.8,2.1,4.6,2.5c1.7,0.4,3.5,0.2,5.2-0.5c1.6-0.7,3-1.8,4-3.3c1-1.5,1.5-3.2,1.5-5c0-2.4-0.9-4.6-2.6-6.3
			C27.8,29.8,25.5,28.9,23.1,28.8L23.1,28.8z"/>
		<path class="st1" d="M23.1,43.6c3.2,0,5.8-2.6,5.8-5.8c0-3.2-2.6-5.8-5.8-5.8c-3.2,0-5.8,2.6-5.8,5.8C17.3,41,19.9,43.6,23.1,43.6
			z"/>
		<path class="st1" d="M17.8,40.1c-0.6-1.3-0.6-2.7-0.2-4.1c0.4-1.3,1.3-2.5,2.5-3.2c1.2-0.7,2.6-1,4-0.7c1.4,0.3,2.6,1,3.5,2.1
			c0.9,1.1,1.3,2.5,1.2,3.9c-0.1,1.4-0.7,2.7-1.7,3.7c-1,1-2.3,1.6-3.7,1.7c-1.4,0.1-2.8-0.3-3.9-1.2"/>
		<path class="st2" d="M23.1,44.2c-1.4,0-2.8-0.5-4-1.4c-0.1-0.1-0.2-0.2-0.2-0.4c0-0.2,0-0.3,0.1-0.4c0-0.1,0.1-0.1,0.2-0.1
			c0.1,0,0.1-0.1,0.2-0.1s0.1,0,0.2,0c0.1,0,0.1,0.1,0.2,0.1c0.9,0.7,2.1,1.1,3.2,1.2c1,0,2-0.3,2.9-0.9c0.9-0.6,1.5-1.4,1.9-2.3
			c0.4-1,0.5-2,0.3-3c-0.2-1-0.7-1.9-1.4-2.7s-1.7-1.2-2.7-1.4c-1-0.2-2.1-0.1-3,0.3c-1,0.4-1.8,1.1-2.3,1.9
			c-0.6,0.9-0.9,1.9-0.9,2.9c0,0.7,0.1,1.4,0.4,2c0,0.1,0,0.3,0,0.4c-0.1,0.1-0.2,0.2-0.3,0.3c-0.1,0-0.1,0-0.2,0.1
			c-0.1,0-0.1,0-0.2,0c-0.1,0-0.1-0.1-0.2-0.1c-0.1-0.1-0.1-0.1-0.1-0.2c-0.5-1.3-0.7-2.7-0.3-4c0.3-1.3,1.1-2.5,2.1-3.4
			c1.1-0.9,2.4-1.4,3.7-1.5c1.4-0.1,2.7,0.3,3.9,1.1c1.1,0.8,2,1.9,2.5,3.2c0.5,1.3,0.5,2.7,0.1,4c-0.4,1.3-1.2,2.5-2.3,3.3
			C25.8,43.8,24.4,44.2,23.1,44.2L23.1,44.2z"/>
		<path class="st3" d="M100.3,47.9c5.6,0,10.1-4.5,10.1-10.1s-4.5-10.1-10.1-10.1c-5.6,0-10.1,4.5-10.1,10.1S94.7,47.9,100.3,47.9z"
			/>
		<path class="st2" d="M100.3,49.1c-2.2,0-4.4-0.7-6.2-1.9c-1.8-1.2-3.3-3-4.1-5s-1.1-4.3-0.6-6.5c0.4-2.2,1.5-4.2,3.1-5.8
			c1.6-1.6,3.6-2.7,5.8-3.1c2.2-0.4,4.4-0.2,6.5,0.6c2.1,0.8,3.8,2.3,5.1,4.1c1.2,1.8,1.9,4,1.9,6.2c0,3-1.2,5.8-3.3,8
			C106.2,47.9,103.3,49.1,100.3,49.1L100.3,49.1z M100.3,28.8c-1.8,0-3.5,0.5-5,1.5c-1.5,1-2.6,2.4-3.3,4c-0.7,1.6-0.9,3.4-0.5,5.2
			c0.3,1.7,1.2,3.3,2.4,4.6c1.2,1.3,2.8,2.1,4.6,2.5c1.7,0.4,3.5,0.2,5.2-0.5c1.6-0.7,3-1.8,4-3.3s1.5-3.2,1.5-5
			c0-2.4-0.9-4.6-2.6-6.3C105,29.8,102.7,28.9,100.3,28.8L100.3,28.8z"/>
		<path class="st1" d="M100.3,43.6c3.2,0,5.8-2.6,5.8-5.8c0-3.2-2.6-5.8-5.8-5.8c-3.2,0-5.8,2.6-5.8,5.8
			C94.6,41,97.1,43.6,100.3,43.6z"/>
		<path class="st1" d="M106.1,37.8c0,1.2-0.4,2.4-1.2,3.4c-0.8,1-1.8,1.7-3,2.1s-2.5,0.3-3.6-0.1c-1.2-0.4-2.2-1.2-2.8-2.3
			c-0.7-1-1-2.3-0.9-3.5c0.1-1.2,0.6-2.4,1.4-3.4c0.8-0.9,1.9-1.6,3.1-1.9c1.2-0.3,2.5-0.1,3.6,0.4"/>
		<path class="st2" d="M100.3,44.2c-1.7,0-3.3-0.7-4.5-1.9c-1.2-1.2-1.9-2.8-1.9-4.5c0-1.7,0.7-3.3,1.9-4.5c1.2-1.2,2.8-1.9,4.5-1.9
			c0.9,0,1.8,0.2,2.6,0.6c0.1,0,0.1,0.1,0.2,0.1c0.1,0.1,0.1,0.1,0.1,0.2s0,0.2,0,0.2c0,0.1,0,0.2-0.1,0.2c-0.1,0.1-0.2,0.2-0.3,0.3
			c-0.1,0.1-0.3,0.1-0.4,0c-0.7-0.3-1.4-0.5-2.1-0.5c-1,0-2,0.3-2.9,0.9c-0.9,0.6-1.5,1.4-1.9,2.3c-0.4,1-0.5,2-0.3,3
			c0.2,1,0.7,1.9,1.4,2.7c0.7,0.7,1.7,1.2,2.7,1.4c1,0.2,2.1,0.1,3-0.3c1-0.4,1.8-1.1,2.3-1.9c0.6-0.9,0.9-1.9,0.9-2.9
			c0-0.1,0-0.2,0-0.3c0-0.1,0.1-0.2,0.1-0.3s0.1-0.1,0.2-0.2c0.1,0,0.2-0.1,0.3-0.1c0.1,0,0.2,0,0.3,0.1c0.1,0,0.2,0.1,0.2,0.2
			s0.1,0.2,0.1,0.3c0,0.1,0,0.2,0,0.3c0,1.7-0.7,3.3-1.9,4.5C103.6,43.5,102,44.2,100.3,44.2z M90.9,42.7h-53
			c-0.3,0-0.6-0.1-0.8-0.3s-0.3-0.5-0.3-0.8c0-0.3,0.1-0.6,0.3-0.8s0.5-0.3,0.8-0.3h53c0.3,0,0.6,0.1,0.8,0.3
			c0.2,0.2,0.3,0.5,0.3,0.8c0,0.3-0.1,0.6-0.3,0.8C91.5,42.5,91.2,42.7,90.9,42.7z"/>
		<path class="st3" d="M91.7,18.4c-1.8-0.8-15.2-7.7-16.9-8.3c-6.7-2-13.6-2.9-20.6-2.9L30,8.4l-0.5,4.5c2.1,1.8,4.7,2.7,7.5,2.8
			L60.1,18C62.5,18.2,91.6,18.4,91.7,18.4L91.7,18.4z"/>
		<path class="st2" d="M91.6,19.6c-1.2,0-29.2-0.3-31.6-0.5l-23.2-2.3c-3,0-5.9-1.2-8.2-3.2c-0.1-0.1-0.2-0.3-0.2-0.4
			c0-0.2,0-0.3,0-0.5l0.5-4.5c0-0.3,0.1-0.5,0.3-0.7s0.4-0.3,0.7-0.3l24.3-1.2C61.2,6,68.3,7,75.1,9.1c0.9,0.4,4.7,2.3,10,4.9
			l6.9,3.4c0.2,0.1,0.4,0.3,0.6,0.5c0.1,0.2,0.2,0.5,0.1,0.8c-0.1,0.3-0.2,0.5-0.4,0.7C92.1,19.5,91.8,19.6,91.6,19.6L91.6,19.6z
			 M30.7,12.4c1.9,1.2,4.1,1.9,6.4,2.1l23.1,2.3c1.8,0.1,18,0.4,26.4,0.5L84.1,16l-9.8-4.8c-6.6-1.9-13.4-2.8-20.2-2.8l-23.2,1
			L30.7,12.4z"/>
		<path class="st2" d="M56.6,33.2c-0.2,0-0.3-0.1-0.4-0.2c-0.1-0.1-0.2-0.2-0.2-0.4c-0.6-10-1.8-20-3.8-29.8c0-0.1,0-0.3,0.1-0.4
			c0.1-0.1,0.2-0.2,0.4-0.2c0.2,0,0.3,0,0.4,0.1c0.1,0.1,0.2,0.2,0.3,0.4c2,9.9,3.3,19.9,3.8,30c0,0.2-0.1,0.3-0.2,0.4
			C56.9,33.1,56.7,33.2,56.6,33.2L56.6,33.2z M34.1,20.4h-4.8c-0.1,0-0.2-0.1-0.3-0.2c-0.1-0.1-0.1-0.2-0.1-0.4c0-0.1,0-0.3,0.1-0.4
			c0.1-0.1,0.2-0.2,0.3-0.2h4.7c0.1,0,0.2,0.1,0.3,0.2c0.1,0.1,0.1,0.2,0.1,0.4c0,0.1,0,0.3-0.1,0.4C34.3,20.3,34.2,20.3,34.1,20.4
			L34.1,20.4z M62.9,22.4h-4.7c-0.1,0-0.2-0.1-0.3-0.2s-0.1-0.2-0.1-0.4c0-0.1,0-0.3,0.1-0.4c0.1-0.1,0.2-0.2,0.3-0.2h4.7
			c0.1,0,0.2,0.1,0.3,0.2c0.1,0.1,0.1,0.2,0.1,0.4c0,0.1,0,0.3-0.1,0.4S63,22.3,62.9,22.4z M82.7,19.7h3.4c0.4,0,0.7-0.1,1-0.4
			c0.3-0.2,0.4-0.6,0.4-0.9c0-0.4-0.2-0.7-0.4-0.9c-0.3-0.2-0.6-0.4-1-0.4h-3.4V19.7z"/>
		<path class="st2" d="M86,20.8h-3.4c-0.3,0-0.6-0.1-0.8-0.3c-0.2-0.2-0.3-0.5-0.3-0.8V17c0-0.3,0.1-0.6,0.3-0.8
			c0.2-0.2,0.5-0.3,0.8-0.3H86c0.7,0,1.3,0.3,1.8,0.7c0.5,0.5,0.7,1.1,0.7,1.8c0,0.7-0.3,1.3-0.7,1.8C87.3,20.6,86.7,20.9,86,20.8
			L86,20.8z M83.8,18.5H86v-0.3h-2.2V18.5z M29.7,3.9l-0.5-2c0,0,3-0.1,3.7,1.7"/>
		<path class="st2" d="M29.7,4.5c-0.1,0-0.3-0.1-0.4-0.1c-0.1-0.1-0.2-0.2-0.2-0.3l-0.5-2c0-0.1,0-0.2,0-0.3c0-0.1,0.1-0.2,0.1-0.2
			c0.1-0.1,0.1-0.1,0.2-0.2c0.1,0,0.2-0.1,0.3-0.1c0.2,0,3.4,0,4.2,2.1c0,0.1,0,0.1,0,0.2c0,0.1,0,0.1,0,0.2c0,0.1-0.1,0.1-0.1,0.2
			c-0.1,0.1-0.1,0.1-0.2,0.1c-0.1,0-0.3,0-0.4,0c-0.1-0.1-0.2-0.2-0.3-0.3c-0.4-0.9-1.6-1.2-2.4-1.3l0.3,1.2c0,0.1,0,0.2,0,0.2
			c0,0.1,0,0.2-0.1,0.2c0,0.1-0.1,0.1-0.2,0.2c-0.1,0-0.1,0.1-0.2,0.1C29.8,4.5,29.8,4.5,29.7,4.5z M34.1,15.7
			c-0.2,0-0.3-0.1-0.4-0.2c-0.1-0.1-0.2-0.3-0.2-0.4V8.1c0-0.1,0-0.2,0-0.3c0-0.1,0.1-0.2,0.1-0.3c0.1-0.1,0.1-0.1,0.2-0.2
			c0.1,0,0.2-0.1,0.3-0.1s0.2,0,0.3,0.1c0.1,0,0.2,0.1,0.2,0.2c0.1,0.1,0.1,0.2,0.1,0.3c0,0.1,0,0.2,0,0.3v7.1
			c0,0.2-0.1,0.3-0.2,0.4C34.4,15.7,34.3,15.7,34.1,15.7L34.1,15.7z M125.6,30.2c-0.1,0-0.2,0-0.2,0l-7.8-3.5
			c-1.2-0.6-7.2-4.3-7.4-4.5c-0.1-0.1-0.2-0.2-0.2-0.3c0-0.1,0-0.2,0-0.3c0-0.1,0.1-0.2,0.2-0.3c0.1-0.1,0.2-0.1,0.3-0.2
			c4.2,0.2,8.4,1.1,12.5,2.4c0.1,0.1,0.2,0.2,0.2,0.3c0,0.1,0.1,0.3,0,0.4c0,0.1-0.1,0.2-0.2,0.3c-0.1,0.1-0.2,0.1-0.4,0.1
			c-3.3-1-6.6-1.8-10-2.3l5.5,3.3l7.8,3.4c0.1,0.1,0.2,0.2,0.2,0.3c0,0.1,0.1,0.2,0,0.4c0,0.1-0.1,0.2-0.2,0.3
			C125.9,30.2,125.8,30.2,125.6,30.2z"/>
		<path class="st2" d="M117.9,26.3c-1.2-0.6-7.4-4.5-7.4-4.5c1.7-0.1,3.4,0.1,5.1,0.6L117.9,26.3z M119.1,38.5
			c-0.1,0-0.3-0.1-0.4-0.2c-0.1-0.1-0.2-0.2-0.2-0.4c0-0.1,0-0.1,0-0.2c0-0.1,0-0.1,0.1-0.2s0.1-0.1,0.2-0.1c0.1,0,0.1-0.1,0.2-0.1
			l6.2-0.6c0.1,0,0.2,0,0.2,0c0.1,0,0.1,0.1,0.2,0.1c0.1,0,0.1,0.1,0.1,0.2c0,0.1,0,0.1,0,0.2c0,0.1,0,0.1,0,0.2
			c0,0.1,0,0.1-0.1,0.2s-0.1,0.1-0.2,0.1c-0.1,0-0.1,0.1-0.2,0.1L119.1,38.5L119.1,38.5z M29.4,14.1c-0.2,0-0.5-0.1-0.6-0.2
			c-1-0.7-2.2-1.2-3.5-1.4l-14.8,0.7c-0.3,0-0.6,0-0.8-0.2c-0.2-0.2-0.4-0.4-0.5-0.7c-0.1-0.3,0-0.6,0.1-0.8
			c0.1-0.3,0.3-0.5,0.6-0.6c5.1-0.5,10.3-0.8,15.5-0.8c1.7,0.2,3.4,0.8,4.8,1.8c0.2,0.1,0.3,0.3,0.4,0.6c0.1,0.2,0.1,0.5,0,0.7
			c-0.1,0.2-0.2,0.4-0.4,0.6C29.9,13.9,29.7,14,29.4,14.1L29.4,14.1z M5.4,19.6c-0.1,0-0.2-0.1-0.3-0.2C5,19.3,5,19.2,4.9,19.1
			s0-0.2,0.1-0.3c0.1-0.1,0.1-0.2,0.2-0.3c1.5-0.4,2.9-0.6,4.4-0.6l7.4,0.3l1.2-0.5L7,14.6c-0.2,0-0.3-0.1-0.4-0.3
			c-0.1-0.1-0.1-0.3-0.1-0.4c0-0.2,0.1-0.3,0.3-0.4c0.1-0.1,0.3-0.1,0.5-0.1L20.1,17c0.1,0,0.2,0.1,0.3,0.2c0.1,0.1,0.1,0.2,0.1,0.4
			c0,0.1,0,0.2-0.1,0.3c-0.1,0.1-0.2,0.2-0.3,0.2l-2.9,1.1c-0.1,0-0.2,0-0.2,0c-0.1,0-5.7-0.3-7.5-0.3C8.2,19.1,6.8,19.3,5.4,19.6
			C5.4,19.6,5.4,19.6,5.4,19.6L5.4,19.6z"/>
		<path class="st2" d="M13.4,18.6l3.9,0.2l2.9-1.2l-6.5-1.8L13.4,18.6z M90.2,37.5H33.2c-0.1,0-0.2-0.1-0.3-0.2
			c-0.1-0.1-0.1-0.2-0.1-0.4s0-0.3,0.1-0.4c0.1-0.1,0.2-0.2,0.3-0.2h57.1c0.1,0,0.2,0.1,0.3,0.2c0.1,0.1,0.1,0.2,0.1,0.4
			s0,0.3-0.1,0.4C90.5,37.4,90.4,37.5,90.2,37.5L90.2,37.5z M13.2,36.3H13L1.8,34.2c-0.1-0.1-0.2-0.1-0.3-0.3
			c-0.1-0.1-0.1-0.3-0.1-0.4c0-0.1,0.1-0.3,0.2-0.3C1.8,33.1,1.9,33,2.1,33l11.2,2.2c0.1,0.1,0.2,0.1,0.2,0.3
			c0.1,0.1,0.1,0.2,0.1,0.3c0,0.1-0.1,0.2-0.1,0.3C13.4,36.2,13.3,36.3,13.2,36.3L13.2,36.3z"/>
	</g>
</g>
</svg>
