<?xml version="1.0" encoding="utf-8"?>
<!-- Generator: Adobe Illustrator 24.2.0, SVG Export Plug-In . SVG Version: 6.00 Build 0)  -->
<svg version="1.1" id="Layer_1" xmlns="http://www.w3.org/2000/svg" xmlns:xlink="http://www.w3.org/1999/xlink" x="0px" y="0px"
	 viewBox="0 0 46.8 47.3" style="enable-background:new 0 0 46.8 47.3;" xml:space="preserve">
<style type="text/css">
	.st0{fill:url(#SVGID_1_);}
	.st1{fill:#FFFFFF;}
	.st2{fill:#A97D58;}
	.st3{fill:#E9DCD4;}
</style>
<linearGradient id="SVGID_1_" gradientUnits="userSpaceOnUse" x1="8.3149" y1="13.1906" x2="42.9106" y2="43.8564" gradientTransform="matrix(1 0 0 -1 0 50.2128)">
	<stop  offset="0" style="stop-color:#E22939"/>
	<stop  offset="5.492750e-02" style="stop-color:#E72F31"/>
	<stop  offset="0.23" style="stop-color:#EF4023"/>
	<stop  offset="0.425" style="stop-color:#F04D23"/>
	<stop  offset="0.654" style="stop-color:#F05423"/>
	<stop  offset="1" style="stop-color:#F15623"/>
</linearGradient>
<path class="st0" d="M23.4,46.9c12.7,0,23-10.4,23-23.2c0-12.8-10.3-23.2-23-23.2s-23,10.4-23,23.2C0.3,36.5,10.7,46.9,23.4,46.9z"
	/>
<path class="st1" d="M11.9,24.5l23-11.7l-5.7,19.6L11.9,24.5l23-11.7L11.9,24.5z"/>
<path class="st2" d="M21,28.7l1.7,0.8l-2.3,3.4L21,28.7z"/>
<path class="st3" d="M18.2,27.4L34.7,13L21,28.7l-0.7,4.2L18.2,27.4z"/>
</svg>
