<svg width="199" height="55" viewBox="0 0 199 55" fill="none" xmlns="http://www.w3.org/2000/svg">
<path d="M56.3841 35.2182H52.3438V18.6575H62.8968V22.1823H56.3841V25.3426H61.54V28.8066H56.3841V35.2182Z" fill="#3F2355"/>
<path d="M64.4941 20.2984C64.4941 19.6907 64.7354 19.1741 65.1876 18.7487C65.6399 18.3233 66.1826 18.1106 66.7857 18.1106C67.4188 18.1106 67.9616 18.3233 68.3837 18.7487C68.8058 19.1741 69.047 19.6907 69.047 20.2984C69.047 20.9062 68.836 21.4228 68.3837 21.8482C67.9616 22.2736 67.4188 22.4863 66.7857 22.4863C66.1525 22.4863 65.6399 22.2736 65.1876 21.8482C64.7354 21.4228 64.4941 20.9062 64.4941 20.2984ZM64.9163 24.036V35.2183H68.7154V24.036H64.9163Z" fill="#3F2355"/>
<path d="M75.3499 29.3232V35.2182H71.5508V24.0359H75.3499V25.7984C75.5308 25.1602 75.9529 24.6437 76.5861 24.3094C77.2494 23.9448 77.8826 23.7625 78.4555 23.7625C79.9027 23.7625 81.0183 24.2486 81.7721 25.1906C82.5259 26.1326 82.8877 27.5 82.8877 29.2928V35.2486H79.0886V29.384C79.0886 28.7155 78.9077 28.2293 78.5459 27.895C78.1841 27.5912 77.762 27.4392 77.2796 27.4392C76.767 27.4392 76.3147 27.5912 75.9227 27.895C75.5308 28.1989 75.3499 28.6851 75.3499 29.3232Z" fill="#3F2355"/>
<path d="M93.5613 25.221V24.0055H97.3604V35.1879H93.5613V33.9116C92.8678 34.9144 91.8427 35.4006 90.4859 35.4006C89.0386 35.4006 87.7722 34.8536 86.6868 33.7901C85.6013 32.7265 85.0586 31.2984 85.0586 29.5663C85.0586 27.8343 85.6013 26.4061 86.6868 25.3426C87.7722 24.2486 89.0386 23.7321 90.4859 23.7321C91.0587 23.7321 91.6618 23.8536 92.2045 24.1271C92.7774 24.3702 93.2296 24.7348 93.5613 25.221ZM89.6115 27.9862C89.1592 28.442 88.918 28.989 88.918 29.6271C88.918 30.2652 89.1592 30.8122 89.6115 31.268C90.0637 31.7238 90.6065 31.9669 91.2397 31.9669C91.8728 31.9669 92.4156 31.7238 92.8678 31.268C93.3201 30.8122 93.5613 30.2652 93.5613 29.6271C93.5613 28.989 93.3201 28.442 92.8678 27.9862C92.4156 27.5304 91.8728 27.2873 91.2397 27.2873C90.6065 27.2873 90.0637 27.5304 89.6115 27.9862Z" fill="#3F2355"/>
<path d="M103.992 29.3232V35.2182H100.193V24.0359H103.992V25.7984C104.173 25.1602 104.595 24.6437 105.229 24.3094C105.862 23.9752 106.525 23.7625 107.098 23.7625C108.545 23.7625 109.661 24.2486 110.415 25.1906C111.169 26.1326 111.53 27.5 111.53 29.2928V35.2486H107.731V29.384C107.731 28.7155 107.55 28.2293 107.189 27.895C106.827 27.5912 106.405 27.4392 105.922 27.4392C105.41 27.4392 104.957 27.5912 104.565 27.895C104.173 28.1989 103.992 28.6851 103.992 29.3232Z" fill="#3F2355"/>
<path d="M121.631 30.9033L124.797 32.6658C123.561 34.5194 121.933 35.431 119.882 35.431C118.164 35.431 116.716 34.884 115.51 33.8205C114.304 32.7265 113.701 31.3287 113.701 29.5967C113.701 27.8647 114.304 26.4669 115.51 25.3729C116.716 24.279 118.164 23.7321 119.882 23.7321C121.902 23.7321 123.531 24.6437 124.767 26.4972L121.661 28.3812C121.209 27.6519 120.576 27.2873 119.701 27.2873C119.068 27.2873 118.525 27.5304 118.073 27.9862C117.621 28.442 117.38 28.989 117.38 29.6271C117.38 30.2652 117.621 30.8122 118.073 31.268C118.525 31.7238 119.068 31.9669 119.701 31.9669C120.515 31.9061 121.149 31.5718 121.631 30.9033Z" fill="#3F2355"/>
<path d="M137.763 29.4448C137.763 29.6271 137.733 30.0525 137.703 30.6602H129.743C129.803 31.1768 130.075 31.5718 130.587 31.9061C131.1 32.21 131.642 32.3619 132.276 32.3619C133.15 32.3619 133.874 32.058 134.386 31.4199C134.567 31.5718 135.019 31.9061 135.743 32.3923C136.467 32.9089 136.889 33.2127 137.009 33.3039C135.954 34.7017 134.296 35.4006 131.974 35.4006C130.346 35.4006 128.959 34.8536 127.783 33.7597C126.637 32.6658 126.064 31.2376 126.064 29.5359C126.064 27.8343 126.637 26.4365 127.783 25.3426C128.929 24.2486 130.316 23.7321 131.974 23.7321C133.602 23.7321 134.989 24.2486 136.075 25.3122C137.19 26.3453 137.763 27.7431 137.763 29.4448ZM129.713 28.5332H134.145C133.994 27.895 133.693 27.4696 133.241 27.2265C132.788 26.9834 132.366 26.8619 131.944 26.8619C131.703 26.8619 131.431 26.8923 131.16 26.953C130.889 27.0138 130.617 27.1961 130.316 27.4696C130.014 27.7431 129.803 28.1077 129.713 28.5332Z" fill="#3F2355"/>
<path d="M138.939 18.6575H151.121V20.7845H146.146V35.2182H143.914V20.7845H138.939V18.6575Z" fill="#FE5600"/>
<path d="M155.794 29.1713V35.2183H153.623V17.8978H155.794V25.6768C156.095 25.0387 156.608 24.5829 157.332 24.2487C158.055 23.9144 158.779 23.7625 159.472 23.7625C160.859 23.7625 161.975 24.1879 162.789 25.0691C163.603 25.9503 163.995 27.1658 163.995 28.7155V35.1879H161.824V28.8674C161.824 27.9558 161.583 27.2266 161.101 26.71C160.618 26.163 159.985 25.9199 159.201 25.9199C158.297 25.9199 157.513 26.1934 156.849 26.71C156.156 27.2266 155.794 28.047 155.794 29.1713Z" fill="#FE5600"/>
<path d="M176.326 35.2183V33.4862C175.965 34.1243 175.422 34.5801 174.698 34.9448C173.975 35.3094 173.221 35.4614 172.407 35.4614C170.839 35.4614 169.512 34.9144 168.397 33.8205C167.311 32.7265 166.738 31.3288 166.738 29.5967C166.738 27.8647 167.281 26.4365 168.397 25.373C169.482 24.3094 170.839 23.7625 172.407 23.7625C173.221 23.7625 173.975 23.9448 174.698 24.279C175.422 24.6133 175.965 25.0995 176.296 25.7072V24.0055H178.437V35.2183H176.326ZM176.296 29.5663C176.296 28.442 175.934 27.5304 175.181 26.8923C174.427 26.2238 173.583 25.9199 172.618 25.9199C171.593 25.9199 170.718 26.2542 170.025 26.9531C169.331 27.6216 169 28.5028 169 29.5967C169 30.6906 169.361 31.5718 170.055 32.2707C170.748 32.9696 171.623 33.3343 172.618 33.3343C173.643 33.3343 174.517 33 175.241 32.3315C175.934 31.6326 176.296 30.721 176.296 29.5663Z" fill="#FE5600"/>
<path d="M184.981 24.0056H187.333V25.8592H184.981V35.2183H182.81V25.8592H180.82V24.0056H182.81V19.7819H184.981V24.0056Z" fill="#FE5600"/>
<path d="M25.358 51.3231C38.0803 51.3231 48.3938 40.9292 48.3938 28.1077C48.3938 15.2861 38.0803 4.89221 25.358 4.89221C12.6357 4.89221 2.32227 15.2861 2.32227 28.1077C2.32227 40.9292 12.6357 51.3231 25.358 51.3231Z" fill="url(#paint0_linear)"/>
<path d="M13.8691 28.9889L36.8446 17.29L31.1158 36.8591L13.8691 28.9889L36.8446 17.29L13.8691 28.9889Z" fill="white"/>
<path d="M23.0051 33.1216L24.6635 33.9116L22.3418 37.2846L23.0051 33.1216Z" fill="#A97C57"/>
<path d="M20.1699 31.8453L36.693 17.442L23.0042 33.1216L22.3408 37.2846L20.1699 31.8453Z" fill="#E9DDD4"/>
<defs>
<linearGradient id="paint0_linear" x1="10.3899" y1="41.5781" x2="44.9818" y2="10.9158" gradientUnits="userSpaceOnUse">
<stop stop-color="#E32738"/>
<stop offset="0.0549275" stop-color="#E72D30"/>
<stop offset="0.23" stop-color="#F03E1B"/>
<stop offset="0.425" stop-color="#F6490C"/>
<stop offset="0.654" stop-color="#FA5003"/>
<stop offset="1" stop-color="#FB5200"/>
</linearGradient>
</defs>
</svg>
