<?xml version="1.0" encoding="utf-8"?>
<!-- Generator: Adobe Illustrator 24.2.0, SVG Export Plug-In . SVG Version: 6.00 Build 0)  -->
<svg version="1.1" id="Layer_1" xmlns="http://www.w3.org/2000/svg" xmlns:xlink="http://www.w3.org/1999/xlink" x="0px" y="0px"
	 viewBox="0 0 199 55" style="enable-background:new 0 0 199 55;" xml:space="preserve">
<style type="text/css">
	.st0{fill:#FFFFFF;}
	.st1{fill:#FE5600;}
	.st2{fill:url(#SVGID_1_);}
	.st3{fill:#A97C57;}
	.st4{fill:#E9DDD4;}
</style>
<path class="st0" d="M56.4,35.2h-4V18.7h10.6v3.5h-6.5v3.2h5.2v3.5h-5.2V35.2z"/>
<path class="st0" d="M64.5,20.3c0-0.6,0.2-1.1,0.7-1.5c0.5-0.4,1-0.6,1.6-0.6c0.6,0,1.2,0.2,1.6,0.6c0.4,0.4,0.7,0.9,0.7,1.5
	c0,0.6-0.2,1.1-0.7,1.5c-0.4,0.4-1,0.6-1.6,0.6c-0.6,0-1.1-0.2-1.6-0.6C64.7,21.4,64.5,20.9,64.5,20.3z M64.9,24v11.2h3.8V24H64.9z"
	/>
<path class="st0" d="M75.3,29.3v5.9h-3.8V24h3.8v1.8c0.2-0.6,0.6-1.2,1.2-1.5c0.7-0.4,1.3-0.5,1.9-0.5c1.4,0,2.6,0.5,3.3,1.4
	c0.8,0.9,1.1,2.3,1.1,4.1v6h-3.8v-5.9c0-0.7-0.2-1.2-0.5-1.5c-0.4-0.3-0.8-0.5-1.3-0.5c-0.5,0-1,0.2-1.4,0.5
	C75.5,28.2,75.3,28.7,75.3,29.3z"/>
<path class="st0" d="M93.6,25.2V24h3.8v11.2h-3.8v-1.3c-0.7,1-1.7,1.5-3.1,1.5c-1.4,0-2.7-0.5-3.8-1.6c-1.1-1.1-1.6-2.5-1.6-4.2
	c0-1.7,0.5-3.2,1.6-4.2c1.1-1.1,2.4-1.6,3.8-1.6c0.6,0,1.2,0.1,1.7,0.4C92.8,24.4,93.2,24.7,93.6,25.2z M89.6,28
	c-0.5,0.5-0.7,1-0.7,1.6s0.2,1.2,0.7,1.6c0.5,0.5,1,0.7,1.6,0.7c0.6,0,1.2-0.2,1.6-0.7c0.5-0.5,0.7-1,0.7-1.6s-0.2-1.2-0.7-1.6
	c-0.5-0.5-1-0.7-1.6-0.7C90.6,27.3,90.1,27.5,89.6,28z"/>
<path class="st0" d="M104,29.3v5.9h-3.8V24h3.8v1.8c0.2-0.6,0.6-1.2,1.2-1.5c0.6-0.3,1.3-0.5,1.9-0.5c1.4,0,2.6,0.5,3.3,1.4
	c0.8,0.9,1.1,2.3,1.1,4.1v6h-3.8v-5.9c0-0.7-0.2-1.2-0.5-1.5c-0.4-0.3-0.8-0.5-1.3-0.5c-0.5,0-1,0.2-1.4,0.5
	C104.2,28.2,104,28.7,104,29.3z"/>
<path class="st0" d="M121.6,30.9l3.2,1.8c-1.2,1.9-2.9,2.8-4.9,2.8c-1.7,0-3.2-0.5-4.4-1.6c-1.2-1.1-1.8-2.5-1.8-4.2
	c0-1.7,0.6-3.1,1.8-4.2c1.2-1.1,2.7-1.6,4.4-1.6c2,0,3.6,0.9,4.9,2.8l-3.1,1.9c-0.5-0.7-1.1-1.1-2-1.1c-0.6,0-1.2,0.2-1.6,0.7
	c-0.5,0.5-0.7,1-0.7,1.6s0.2,1.2,0.7,1.6c0.5,0.5,1,0.7,1.6,0.7C120.5,31.9,121.1,31.6,121.6,30.9z"/>
<path class="st0" d="M137.8,29.4c0,0.2,0,0.6-0.1,1.2h-8c0.1,0.5,0.3,0.9,0.8,1.2c0.5,0.3,1.1,0.5,1.7,0.5c0.9,0,1.6-0.3,2.1-0.9
	c0.2,0.2,0.6,0.5,1.4,1c0.7,0.5,1.1,0.8,1.3,0.9c-1.1,1.4-2.7,2.1-5,2.1c-1.6,0-3-0.5-4.2-1.6c-1.1-1.1-1.7-2.5-1.7-4.2
	c0-1.7,0.6-3.1,1.7-4.2c1.1-1.1,2.5-1.6,4.2-1.6c1.6,0,3,0.5,4.1,1.6C137.2,26.3,137.8,27.7,137.8,29.4z M129.7,28.5h4.4
	c-0.2-0.6-0.5-1.1-0.9-1.3c-0.5-0.2-0.9-0.4-1.3-0.4c-0.2,0-0.5,0-0.8,0.1c-0.3,0.1-0.5,0.2-0.8,0.5C130,27.7,129.8,28.1,129.7,28.5
	z"/>
<path class="st1" d="M138.9,18.7h12.2v2.1h-5v14.4h-2.2V20.8h-5V18.7z"/>
<path class="st1" d="M155.8,29.2v6h-2.2V17.9h2.2v7.8c0.3-0.6,0.8-1.1,1.5-1.4c0.7-0.3,1.4-0.5,2.1-0.5c1.4,0,2.5,0.4,3.3,1.3
	c0.8,0.9,1.2,2.1,1.2,3.6v6.5h-2.2v-6.3c0-0.9-0.2-1.6-0.7-2.2c-0.5-0.5-1.1-0.8-1.9-0.8c-0.9,0-1.7,0.3-2.4,0.8
	C156.2,27.2,155.8,28,155.8,29.2z"/>
<path class="st1" d="M176.3,35.2v-1.7c-0.4,0.6-0.9,1.1-1.6,1.5c-0.7,0.4-1.5,0.5-2.3,0.5c-1.6,0-2.9-0.5-4-1.6
	c-1.1-1.1-1.7-2.5-1.7-4.2c0-1.7,0.5-3.2,1.7-4.2c1.1-1.1,2.4-1.6,4-1.6c0.8,0,1.6,0.2,2.3,0.5c0.7,0.3,1.3,0.8,1.6,1.4V24h2.1v11.2
	H176.3z M176.3,29.6c0-1.1-0.4-2-1.1-2.7c-0.8-0.7-1.6-1-2.6-1c-1,0-1.9,0.3-2.6,1c-0.7,0.7-1,1.5-1,2.6c0,1.1,0.4,2,1.1,2.7
	c0.7,0.7,1.6,1.1,2.6,1.1c1,0,1.9-0.3,2.6-1C175.9,31.6,176.3,30.7,176.3,29.6z"/>
<path class="st1" d="M185,24h2.4v1.9H185v9.4h-2.2v-9.4h-2V24h2v-4.2h2.2V24z"/>
<linearGradient id="SVGID_1_" gradientUnits="userSpaceOnUse" x1="10.2893" y1="14.5354" x2="44.8851" y2="45.2011" gradientTransform="matrix(1 0 0 -1 0 56)">
	<stop  offset="0" style="stop-color:#E32738"/>
	<stop  offset="5.492750e-02" style="stop-color:#E72D30"/>
	<stop  offset="0.23" style="stop-color:#F03E1B"/>
	<stop  offset="0.425" style="stop-color:#F6490C"/>
	<stop  offset="0.654" style="stop-color:#FA5003"/>
	<stop  offset="1" style="stop-color:#FB5200"/>
</linearGradient>
<path class="st2" d="M25.4,51.3c12.7,0,23-10.4,23-23.2c0-12.8-10.3-23.2-23-23.2s-23,10.4-23,23.2C2.3,40.9,12.6,51.3,25.4,51.3z"
	/>
<path class="st0" d="M13.9,29l23-11.7l-5.7,19.6L13.9,29l23-11.7L13.9,29z"/>
<path class="st3" d="M23,33.1l1.7,0.8l-2.3,3.4L23,33.1z"/>
<path class="st4" d="M20.2,31.8l16.5-14.4L23,33.1l-0.7,4.2L20.2,31.8z"/>
</svg>
