<?xml version="1.0" encoding="utf-8"?>
<!-- Generator: Adobe Illustrator 24.2.0, SVG Export Plug-In . SVG Version: 6.00 Build 0)  -->
<svg version="1.1" id="Layer_1" xmlns="http://www.w3.org/2000/svg" xmlns:xlink="http://www.w3.org/1999/xlink" x="0px" y="0px"
	 viewBox="0 0 142 46" style="enable-background:new 0 0 142 46;" xml:space="preserve">
<style type="text/css">
	.st0{display:none;}
	.st1{display:inline;fill:#FFFFFF;}
	.st2{display:inline;fill:#333333;}
	.st3{fill:#FFFFFF;}
	.st4{fill:#333333;stroke:#333333;stroke-width:0.3708;stroke-miterlimit:10;}
	.st5{fill:#333333;}
	.st6{fill:url(#SVGID_1_);}
	.st7{fill:url(#SVGID_2_);}
	.st8{fill:url(#SVGID_3_);}
	.st9{fill:url(#SVGID_4_);}
	.st10{opacity:0.2;fill:#FFFFFF;enable-background:new    ;}
	.st11{opacity:0.2;fill:#333333;enable-background:new    ;}
</style>
<g class="st0">
	<path class="st1" d="M172,0h125c2.8,0,5,2.2,5,5v36c0,2.8-2.2,5-5,5H172c-2.8,0-5-2.2-5-5V5C167,2.2,169.2,0,172,0z"/>
	<path class="st2" d="M201.1,21.8c0-2.5,2-3.7,2.1-3.7c-1.2-1.7-3-1.9-3.6-1.9c-1.5-0.2-3,0.9-3.7,0.9c-0.8,0-2-0.9-3.2-0.9
		c-1.6,0-3.2,1-4,2.5c-1.7,3-0.4,7.4,1.2,9.9c0.8,1.2,1.8,2.5,3.1,2.5c1.2,0,1.7-0.8,3.2-0.8s1.9,0.8,3.2,0.8s2.2-1.2,3-2.4
		c1-1.4,1.3-2.7,1.4-2.8C203.7,25.7,201.2,24.8,201.1,21.8z"/>
	<path class="st2" d="M198.7,14.5c0.7-0.8,1.1-2,1-3.1c-1,0-2.2,0.7-2.9,1.5c-0.6,0.7-1.2,1.9-1,3C196.9,16,198,15.3,198.7,14.5z"/>
	<path class="st2" d="M219.2,30.8h-1.7l-1-3h-3.3l-0.9,3h-1.7l3.3-10.2h2L219.2,30.8z M216.2,26.5l-0.9-2.7
		c-0.1-0.3-0.3-0.9-0.5-1.9l0,0c-0.1,0.4-0.3,1.1-0.5,1.9l-0.9,2.7H216.2z"/>
	<path class="st2" d="M227.6,27c0,1.3-0.3,2.2-1,3c-0.6,0.6-1.4,1-2.3,1c-1,0-1.7-0.3-2.1-1v3.9h-1.6V26c0-0.8,0-1.6-0.1-2.4h1.4
		l0.1,1.2l0,0c0.5-0.9,1.4-1.3,2.5-1.3c0.9,0,1.6,0.3,2.2,1C227.4,25,227.6,25.9,227.6,27z M226,27.1c0-0.7-0.2-1.3-0.5-1.8
		c-0.4-0.5-0.8-0.7-1.4-0.7c-0.4,0-0.8,0.1-1.1,0.4s-0.5,0.6-0.6,1.1c0,0.2-0.1,0.4-0.1,0.5v1.2c0,0.5,0.2,1,0.5,1.4
		s0.8,0.6,1.3,0.6c0.6,0,1.1-0.2,1.4-0.7C225.8,28.5,226,27.9,226,27.1z"/>
	<path class="st2" d="M236.1,27c0,1.3-0.3,2.2-1,3c-0.6,0.6-1.4,1-2.3,1c-1,0-1.7-0.3-2.1-1v3.9h-1.6V26c0-0.8,0-1.6-0.1-2.4h1.4
		l0.1,1.2l0,0c0.5-0.9,1.4-1.3,2.5-1.3c0.9,0,1.6,0.3,2.2,1C235.8,25,236.1,25.9,236.1,27z M234.4,27.1c0-0.7-0.2-1.3-0.5-1.8
		c-0.4-0.5-0.8-0.7-1.4-0.7c-0.4,0-0.8,0.1-1.1,0.4s-0.5,0.6-0.6,1.1c0,0.2-0.1,0.4-0.1,0.5v1.2c0,0.5,0.2,1,0.5,1.4
		s0.8,0.6,1.3,0.6c0.6,0,1.1-0.2,1.4-0.7C234.3,28.5,234.4,27.9,234.4,27.1z"/>
	<path class="st2" d="M245.6,27.9c0,0.9-0.3,1.6-0.9,2.1c-0.7,0.6-1.6,0.9-2.8,0.9c-1.1,0-2-0.2-2.6-0.6l0.4-1.4
		c0.7,0.4,1.5,0.6,2.4,0.6c0.6,0,1.1-0.1,1.4-0.4c0.3-0.3,0.5-0.6,0.5-1.1c0-0.4-0.1-0.8-0.4-1c-0.3-0.3-0.8-0.5-1.4-0.8
		c-1.8-0.7-2.7-1.6-2.7-2.9c0-0.8,0.3-1.5,0.9-2.1c0.6-0.5,1.5-0.8,2.5-0.8c0.9,0,1.7,0.2,2.3,0.5l-0.4,1.3c-0.6-0.3-1.2-0.5-2-0.5
		c-0.6,0-1,0.1-1.4,0.4c-0.3,0.3-0.4,0.6-0.4,0.9c0,0.4,0.2,0.7,0.5,1c0.3,0.2,0.8,0.5,1.5,0.8c0.9,0.4,1.5,0.8,1.9,1.2
		C245.4,26.6,245.6,27.2,245.6,27.9z"/>
	<path class="st2" d="M251,24.7h-1.8v3.6c0,0.9,0.3,1.4,1,1.4c0.3,0,0.5,0,0.7-0.1v1.2c-0.3,0.1-0.7,0.2-1.3,0.2
		c-0.7,0-1.1-0.2-1.5-0.6s-0.5-1.1-0.5-2v-3.7h-1.1v-1.2h1.1v-1.3l1.6-0.5v1.8h1.8V24.7z"/>
	<path class="st2" d="M259.1,27c0,1.1-0.3,2.1-1,2.8c-0.7,0.7-1.6,1.1-2.7,1.1c-1.1,0-1.9-0.4-2.6-1.1c-0.6-0.7-1-1.6-1-2.7
		s0.3-2.1,1-2.8c0.7-0.7,1.6-1.1,2.7-1.1c1.1,0,1.9,0.4,2.6,1.1C258.8,25,259.1,25.9,259.1,27z M257.4,27.1c0-0.7-0.1-1.3-0.4-1.7
		c-0.3-0.6-0.8-0.9-1.5-0.9c-0.7,0-1.2,0.3-1.5,0.9c-0.3,0.5-0.4,1.1-0.4,1.8c0,0.7,0.1,1.3,0.4,1.7c0.4,0.6,0.9,0.9,1.5,0.9
		s1.1-0.3,1.5-0.9C257.3,28.3,257.4,27.8,257.4,27.1z"/>
	<path class="st2" d="M264.4,24.9c-0.2,0-0.3,0-0.5,0c-0.6,0-1,0.2-1.3,0.6s-0.4,0.9-0.4,1.5v3.9h-1.6v-5c0-0.9,0-1.6,0-2.3h1.4
		l0.1,1.4l0,0c0.2-0.5,0.4-0.9,0.8-1.2c0.4-0.3,0.8-0.4,1.2-0.4c0.2,0,0.3,0,0.4,0L264.4,24.9z"/>
	<path class="st2" d="M271.8,26.8c0,0.3,0,0.5-0.1,0.7h-4.9c0,0.7,0.3,1.3,0.7,1.7c0.4,0.3,0.9,0.5,1.6,0.5s1.4-0.1,2-0.3l0.3,1.1
		c-0.7,0.3-1.5,0.5-2.5,0.5c-1.1,0-2-0.3-2.7-1c-0.6-0.7-1-1.6-1-2.7s0.3-2,0.9-2.8s1.5-1.2,2.6-1.2s1.9,0.4,2.4,1.2
		C271.5,25.1,271.8,25.8,271.8,26.8z M270.2,26.3c0-0.5-0.1-0.9-0.3-1.3c-0.3-0.5-0.7-0.7-1.3-0.7c-0.5,0-1,0.2-1.3,0.7
		c-0.3,0.4-0.4,0.8-0.5,1.3H270.2z"/>
	<path class="st2" d="M215.4,16.9h-0.9l-0.5-1.5h-1.6l-0.4,1.5h-0.8l1.6-5h1L215.4,16.9z M214,14.8l-0.4-1.3c0-0.1-0.1-0.4-0.3-0.9
		l0,0c-0.1,0.2-0.1,0.5-0.2,0.9l-0.4,1.3H214z"/>
	<path class="st2" d="M219.5,13.3l-1.4,3.6h-0.8l-1.3-3.6h0.9l0.6,1.9c0.1,0.3,0.2,0.6,0.3,0.9l0,0c0.1-0.3,0.2-0.6,0.3-0.9l0.6-1.9
		C218.7,13.3,219.5,13.3,219.5,13.3z"/>
	<path class="st2" d="M222.4,16.9l-0.1-0.4l0,0c-0.2,0.3-0.6,0.5-1.1,0.5c-0.6,0-1.1-0.5-1.1-1.1c0-0.9,0.8-1.4,2.1-1.4v-0.1
		c0-0.5-0.3-0.7-0.8-0.7c-0.4,0-0.7,0.1-0.9,0.3l-0.2-0.5c0.3-0.2,0.8-0.3,1.2-0.3c0.9,0,1.4,0.5,1.4,1.5V16c0,0.4,0,0.6,0.1,0.9
		H222.4z M222.3,15.1c-0.9,0-1.3,0.2-1.3,0.7c0,0.4,0.2,0.6,0.6,0.6c0.4,0,0.8-0.3,0.8-0.7v-0.6H222.3z"/>
	<path class="st2" d="M224.9,12.7c-0.3,0-0.5-0.2-0.5-0.5s0.2-0.5,0.5-0.5s0.5,0.2,0.5,0.5S225.1,12.7,224.9,12.7z M224.5,13.3h0.8
		v3.6h-0.8V13.3z"/>
	<path class="st2" d="M226.7,11.6h0.8v5.3h-0.8V11.6z"/>
	<path class="st2" d="M230.9,16.9l-0.1-0.4l0,0c-0.2,0.3-0.6,0.5-1.1,0.5c-0.6,0-1.1-0.5-1.1-1.1c0-0.9,0.8-1.4,2.1-1.4v-0.1
		c0-0.5-0.3-0.7-0.8-0.7c-0.4,0-0.7,0.1-0.9,0.3l-0.2-0.5c0.3-0.2,0.8-0.3,1.2-0.3c0.9,0,1.4,0.5,1.4,1.5V16c0,0.4,0,0.6,0,0.9
		H230.9L230.9,16.9z M230.8,15.1c-0.9,0-1.3,0.2-1.3,0.7c0,0.4,0.2,0.6,0.6,0.6c0.4,0,0.8-0.3,0.8-0.7v-0.6H230.8z"/>
	<path class="st2" d="M234.8,17c-0.5,0-0.9-0.2-1.1-0.6l0,0V17H233c0-0.3,0-0.6,0-1v-4.3h0.8v2.2l0,0c0.2-0.4,0.6-0.6,1.2-0.6
		c0.9,0,1.5,0.7,1.5,1.8C236.4,16.2,235.8,17,234.8,17z M234.7,13.9c-0.5,0-0.9,0.4-0.9,1v0.6c0,0.5,0.4,0.9,0.9,0.9
		c0.6,0,1-0.5,1-1.3C235.6,14.4,235.3,13.9,234.7,13.9z"/>
	<path class="st2" d="M237.6,11.6h0.8v5.3h-0.8V11.6z"/>
	<path class="st2" d="M242.8,15.3h-2.4c0,0.7,0.5,1.1,1.1,1.1c0.4,0,0.7-0.1,1-0.2l0.1,0.6c-0.3,0.2-0.7,0.2-1.2,0.2
		c-1.1,0-1.8-0.7-1.8-1.8s0.7-1.9,1.7-1.9c0.9,0,1.5,0.7,1.5,1.7C242.9,15.1,242.8,15.2,242.8,15.3z M242.1,14.7c0-0.6-0.3-1-0.8-1
		s-0.8,0.4-0.9,1H242.1z"/>
	<path class="st2" d="M247.7,17c-1.1,0-1.7-0.8-1.7-1.9s0.7-1.9,1.8-1.9c1,0,1.7,0.8,1.7,1.9S248.8,17,247.7,17z M247.7,13.8
		c-0.6,0-1,0.5-1,1.3c0,0.7,0.4,1.3,0.9,1.3s0.9-0.6,0.9-1.3C248.7,14.4,248.3,13.8,247.7,13.8z"/>
	<path class="st2" d="M253.8,16.9H253v-2.1c0-0.6-0.2-1-0.7-1s-0.8,0.4-0.8,0.9v2.2h-0.8v-2.6c0-0.3,0-0.7,0-1h0.7v0.6l0,0
		c0.2-0.4,0.7-0.6,1.1-0.6c0.8,0,1.3,0.6,1.3,1.5V16.9z"/>
	<path class="st2" d="M259.1,13.9h-0.9v1.8c0,0.4,0.2,0.7,0.5,0.7c0.1,0,0.3,0,0.4,0V17c-0.2,0.1-0.4,0.1-0.6,0.1
		c-0.6,0-1-0.4-1-1.3V14H257v-0.6h0.5v-0.7l0.8-0.2v0.9h0.9L259.1,13.9"/>
	<path class="st2" d="M263.3,16.9h-0.8v-2.1c0-0.6-0.2-1-0.7-1c-0.4,0-0.8,0.3-0.8,0.9v2.2h-0.8v-5.3h0.8v2.2l0,0
		c0.3-0.4,0.6-0.6,1.1-0.6c0.8,0,1.2,0.6,1.2,1.5L263.3,16.9L263.3,16.9z"/>
	<path class="st2" d="M267.4,15.3H265c0,0.7,0.5,1.1,1.1,1.1c0.4,0,0.7-0.1,1-0.2l0.1,0.6c-0.3,0.2-0.7,0.2-1.2,0.2
		c-1.1,0-1.8-0.7-1.8-1.8s0.7-1.9,1.7-1.9c0.9,0,1.5,0.7,1.5,1.7C267.5,15.1,267.5,15.2,267.4,15.3z M266.7,14.7c0-0.6-0.3-1-0.8-1
		s-0.8,0.4-0.9,1H266.7z"/>
</g>
<g>
	<path class="st3" d="M5,0h132c2.8,0,5,2.2,5,5v36c0,2.8-2.2,5-5,5H5c-2.8,0-5-2.2-5-5V5C0,2.2,2.2,0,5,0z"/>
	<path class="st4" d="M64,15.8c0,0.7-0.2,1.4-0.6,1.8c-0.5,0.6-1.2,0.8-2,0.8s-1.5-0.3-2-0.8c-0.5-0.6-0.8-1.2-0.8-2
		c0-0.8,0.3-1.5,0.8-2c0.5-0.6,1.2-0.8,2-0.8c0.4,0,0.7,0.1,1.1,0.3c0.4,0.2,0.6,0.4,0.8,0.6l-0.5,0.5c-0.4-0.5-0.8-0.6-1.5-0.6
		c-0.5,0-1.1,0.2-1.5,0.6c-0.5,0.4-0.6,0.9-0.6,1.6c0,0.6,0.2,1.2,0.6,1.6c0.5,0.4,0.9,0.6,1.5,0.6s1.1-0.2,1.6-0.6
		c0.3-0.3,0.5-0.6,0.5-1.1h-2v-0.7H64V15.8z M68.2,13.5h-2.5v1.7H68v0.6h-2.3v1.7h2.5v0.7H65v-5.5h3.2V13.5z M71.2,18.4h-0.7v-4.9
		h-1.6v-0.6h3.8v0.6h-1.6L71.2,18.4L71.2,18.4z M75.4,18.4v-5.5h0.7v5.5H75.4z M79.3,18.4h-0.7v-4.9H77v-0.6h3.8v0.6h-1.6L79.3,18.4
		L79.3,18.4z M88,17.7c-0.5,0.6-1.2,0.8-2,0.8s-1.5-0.3-2-0.8c-0.5-0.6-0.8-1.2-0.8-2c0-0.8,0.3-1.5,0.8-2c0.5-0.6,1.2-0.8,2-0.8
		s1.5,0.3,2,0.8c0.5,0.6,0.8,1.2,0.8,2C88.8,16.5,88.5,17.1,88,17.7z M84.5,17.2c0.4,0.4,0.9,0.6,1.5,0.6c0.5,0,1.1-0.2,1.5-0.6
		s0.6-0.9,0.6-1.6c0-0.6-0.2-1.2-0.6-1.6c-0.4-0.4-0.9-0.6-1.5-0.6c-0.5,0-1.1,0.2-1.5,0.6c-0.4,0.4-0.6,0.9-0.6,1.6
		C83.9,16.3,84,16.8,84.5,17.2z M89.8,18.4v-5.5h0.8l2.7,4.3v-4.3H94v5.5h-0.7l-2.8-4.5v4.5C90.5,18.4,89.8,18.4,89.8,18.4z"/>
	<path class="st5" d="M77.1,25.9c-1.7,0-3,1.2-3,2.9c0,1.6,1.3,2.9,3,2.9s3-1.2,3-2.9C80,27.1,78.7,25.9,77.1,25.9z M77.1,30.5
		c-0.9,0-1.7-0.7-1.7-1.8c0-1,0.8-1.8,1.7-1.8c0.9,0,1.7,0.7,1.7,1.8C78.7,29.8,78,30.5,77.1,30.5z M70.7,25.9c-1.7,0-3,1.2-3,2.9
		c0,1.6,1.3,2.9,3,2.9s3-1.2,3-2.9C73.6,27.1,72.3,25.9,70.7,25.9z M70.7,30.5c-0.9,0-1.7-0.7-1.7-1.8c0-1,0.8-1.8,1.7-1.8
		c0.9,0,1.7,0.7,1.7,1.8C72.3,29.8,71.6,30.5,70.7,30.5z M63,26.8V28h3c-0.1,0.7-0.3,1.2-0.7,1.5c-0.4,0.4-1.1,0.9-2.3,0.9
		c-1.9,0-3.2-1.4-3.2-3.2c0-1.8,1.4-3.2,3.2-3.2c1,0,1.7,0.4,2.3,0.9l0.9-0.9c-0.8-0.7-1.7-1.2-3.1-1.2c-2.5,0-4.6,2-4.6,4.4
		s2.1,4.4,4.6,4.4c1.4,0,2.3-0.4,3.2-1.3c0.8-0.8,1.1-2,1.1-2.8c0-0.3,0-0.5-0.1-0.7C67.3,26.8,63,26.8,63,26.8z M94.3,27.7
		c-0.3-0.7-1-1.8-2.5-1.8S89,27,89,28.8c0,1.6,1.2,2.9,2.9,2.9c1.3,0,2.1-0.8,2.4-1.3l-1-0.7c-0.3,0.5-0.8,0.8-1.4,0.8
		c-0.7,0-1.1-0.3-1.4-0.9l3.9-1.6L94.3,27.7z M90.3,28.7c0-1.1,0.9-1.7,1.5-1.7c0.5,0,1,0.3,1.1,0.6L90.3,28.7z M87.1,31.4h1.3V23
		h-1.3V31.4z M85,26.5c-0.3-0.3-0.9-0.7-1.6-0.7c-1.4,0-2.8,1.3-2.8,2.9s1.3,2.8,2.8,2.8c0.7,0,1.2-0.3,1.5-0.7H85v0.4
		c0,1.1-0.6,1.7-1.6,1.7c-0.8,0-1.3-0.5-1.4-1l-1.1,0.5c0.3,0.7,1.2,1.7,2.6,1.7c1.5,0,2.8-0.9,2.8-3V26H85V26.5z M83.5,30.5
		c-0.9,0-1.7-0.7-1.7-1.8c0-1,0.8-1.8,1.7-1.8c0.9,0,1.6,0.7,1.6,1.8S84.4,30.5,83.5,30.5z M100.3,23h-3.1v8.4h1.3v-3.2h1.8
		c1.4,0,2.8-1,2.8-2.6C103.1,24,101.8,23,100.3,23z M100.4,27.1h-1.9v-2.9h1.9c1,0,1.5,0.8,1.5,1.4
		C101.8,26.3,101.3,27.1,100.4,27.1z M108.3,25.9c-1,0-1.9,0.4-2.3,1.3l1.2,0.5c0.3-0.5,0.7-0.6,1.2-0.6c0.7,0,1.3,0.4,1.4,1.1v0.1
		c-0.2-0.1-0.8-0.3-1.3-0.3c-1.2,0-2.5,0.7-2.5,1.9c0,1.1,1,1.9,2.1,1.9c0.9,0,1.3-0.4,1.7-0.8h0.1v0.7h1.2v-3.2
		C110.9,26.7,109.8,25.9,108.3,25.9z M108.2,30.5c-0.4,0-1-0.2-1-0.7c0-0.7,0.8-0.9,1.4-0.9s0.8,0.1,1.2,0.3
		C109.6,30,108.9,30.5,108.2,30.5z M115.4,26.1l-1.4,3.6h-0.1l-1.5-3.6H111l2.3,5.1L112,34h1.3l3.5-7.9H115.4z M103.8,31.4h1.3V23
		h-1.3V31.4z"/>
	
		<linearGradient id="SVGID_1_" gradientUnits="userSpaceOnUse" x1="36.5498" y1="1163.551" x2="19.1417" y2="1180.958" gradientTransform="matrix(1 0 0 1 0 -1152)">
		<stop  offset="0" style="stop-color:#00A0FF"/>
		<stop  offset="7.000001e-03" style="stop-color:#00A1FF"/>
		<stop  offset="0.26" style="stop-color:#00BEFF"/>
		<stop  offset="0.512" style="stop-color:#00D2FF"/>
		<stop  offset="0.76" style="stop-color:#00DFFF"/>
		<stop  offset="1" style="stop-color:#00E3FF"/>
	</linearGradient>
	<path class="st6" d="M24.7,10.3c-0.3,0.3-0.4,0.8-0.4,1.5v22.9c0,0.6,0.2,1.1,0.5,1.5l0.1,0.1l12.9-12.9v-0.2L24.7,10.3z"/>
	
		<linearGradient id="SVGID_2_" gradientUnits="userSpaceOnUse" x1="49.0578" y1="1175.25" x2="23.9596" y2="1175.25" gradientTransform="matrix(1 0 0 1 0 -1152)">
		<stop  offset="0" style="stop-color:#FFE000"/>
		<stop  offset="0.409" style="stop-color:#FFBD00"/>
		<stop  offset="0.775" style="stop-color:#FFA500"/>
		<stop  offset="1" style="stop-color:#FF9C00"/>
	</linearGradient>
	<path class="st7" d="M42,27.7l-4.3-4.3v-0.3l4.3-4.3l0.1,0.1l5.1,2.9c1.5,0.8,1.5,2.2,0,3L42,27.7z"/>
	
		<linearGradient id="SVGID_3_" gradientUnits="userSpaceOnUse" x1="39.6726" y1="1177.6274" x2="16.067" y2="1201.2329" gradientTransform="matrix(1 0 0 1 0 -1152)">
		<stop  offset="0" style="stop-color:#FF3A44"/>
		<stop  offset="1" style="stop-color:#C31162"/>
	</linearGradient>
	<path class="st8" d="M42.1,27.6l-4.4-4.4l-13,13c0.5,0.5,1.2,0.5,2.2,0.1L42.1,27.6z"/>
	
		<linearGradient id="SVGID_4_" gradientUnits="userSpaceOnUse" x1="21.5292" y1="1154.7294" x2="32.0707" y2="1165.2708" gradientTransform="matrix(1 0 0 1 0 -1152)">
		<stop  offset="0" style="stop-color:#32A071"/>
		<stop  offset="6.900000e-02" style="stop-color:#2DA771"/>
		<stop  offset="0.476" style="stop-color:#15CF74"/>
		<stop  offset="0.801" style="stop-color:#06E775"/>
		<stop  offset="1" style="stop-color:#00F076"/>
	</linearGradient>
	<path class="st9" d="M42.1,18.9L27,10.3c-0.9-0.5-1.7-0.4-2.2,0.1l13,12.9L42.1,18.9z"/>
	<path class="st10" d="M42,27.5L27,36c-0.8,0.5-1.6,0.4-2.1,0l-0.1,0.1l0.1,0.1c0.5,0.4,1.2,0.5,2.1,0L42,27.5z"/>
	<path class="st10" d="M24.7,36c-0.3-0.3-0.4-0.8-0.4-1.5v0.1c0,0.6,0.2,1.1,0.5,1.5V36H24.7z M47.2,24.6L42,27.5l0.1,0.1l5.1-2.9
		c0.7-0.4,1-0.9,1-1.5C48.2,23.8,47.8,24.2,47.2,24.6z"/>
	<path class="st11" d="M26.9,10.4l20.2,11.5c0.6,0.4,1,0.8,1,1.3c0-0.5-0.3-1-1-1.5L26.9,10.4c-1.5-0.9-2.6-0.3-2.6,1.4v0.1
		C24.3,10.3,25.5,9.6,26.9,10.4z"/>
</g>
</svg>
