<svg width="34" height="34" viewBox="0 0 34 34" fill="none" xmlns="http://www.w3.org/2000/svg">
<g clip-path="url(#clip0)">
<path d="M29.2717 4.49138C29.27 3.10545 28.1462 1.98242 26.76 1.98242H16.2427C15.5766 1.98242 14.9377 2.24697 14.4666 2.71797L0.775982 16.4058C-0.205197 17.3868 -0.205275 18.9773 0.775747 19.9585L11.293 30.4759C11.7835 30.9663 12.4264 31.2116 13.0693 31.2116C13.474 31.2116 13.8743 31.103 14.241 30.9086C15.5828 29.8036 13.5975 31.7237 28.5361 16.7881C29.0073 16.3169 29.272 15.6779 29.272 15.0116C29.272 4.34341 29.2721 6.1658 29.2717 4.49138ZM28.016 15.0116C28.016 15.3471 27.8853 15.6626 27.6481 15.8998L13.9573 29.5879C13.7201 29.8251 13.4047 29.9557 13.0692 29.9557C12.7337 29.9557 12.4183 29.825 12.181 29.5879L1.6639 19.0704C1.42667 18.8332 1.29605 18.5177 1.29605 18.1823C1.29605 17.8468 1.42675 17.5313 1.66398 17.2941L15.3546 3.60621C15.5919 3.36906 15.9072 3.23843 16.2427 3.23843H26.7601C27.4526 3.23843 28.0161 3.80191 28.0161 4.49444V15.0116H28.016Z" fill="#3F2355"/>
<path d="M31.784 4.49414V16.2672C31.784 16.6027 31.6533 16.9182 31.416 17.1554L16.5771 31.9916L17.4652 32.8798L32.304 18.0437C32.7753 17.5725 33.04 16.9335 33.04 16.2672V4.49414H31.784Z" fill="#FB5100"/>
<path d="M22.3641 6.37891C20.9792 6.37891 19.8521 7.50547 19.8521 8.89093C19.8521 10.2764 20.9792 11.4029 22.3641 11.4029C23.7489 11.4029 24.8761 10.2764 24.8761 8.89093C24.8761 7.50547 23.7488 6.37891 22.3641 6.37891ZM22.3641 10.1469C21.6711 10.1469 21.1081 9.5833 21.1081 8.89093C21.1081 8.19855 21.6711 7.63492 22.3641 7.63492C23.0571 7.63492 23.6201 8.19855 23.6201 8.89093C23.6201 9.5833 23.0571 10.1469 22.3641 10.1469Z" fill="#3F2355"/>
<path d="M9.84816 20.4513L10.7175 21.344L11.6001 20.4844C13.0588 21.7215 14.8023 21.6456 15.8354 20.6396C16.9988 19.5066 16.8873 18.2081 15.7424 16.4505L17.8988 14.3505C18.3146 15.0985 18.2442 15.9292 17.8169 16.7948L19.1584 17.169C19.7794 15.8803 19.6679 14.5819 18.8416 13.4324L19.7443 12.5533L18.875 11.6606L17.9924 12.5202C16.6899 11.4436 15.1673 11.2848 14.1443 12.2811C13.041 13.3555 13.1795 14.8622 14.0807 16.3295L11.7137 18.6346C11.1126 17.6762 11.2252 16.648 12.0318 15.5499L10.6124 15.0757C9.67467 16.3602 9.59272 18.0619 10.7508 19.5722L9.84816 20.4513ZM14.7404 19.5954C14.2088 20.1131 13.3668 20.1514 12.5629 19.5468L14.7595 17.4077C15.2814 18.3651 15.3321 19.0191 14.7404 19.5954ZM15.1606 13.2846C15.6722 12.7864 16.383 12.9345 17.0496 13.4383L15.1038 15.3332C14.6803 14.4167 14.6993 13.7339 15.1606 13.2846Z" fill="#3F2355"/>
</g>
<defs>
<clipPath id="clip0">
<rect width="33" height="33" fill="white" transform="translate(0.0400391 0.931641)"/>
</clipPath>
</defs>
</svg>
