<svg width="30" height="36" viewBox="0 0 30 36" fill="none" xmlns="http://www.w3.org/2000/svg">
<path d="M25.6118 14.703C25.6118 8.91368 20.8604 4.22046 14.9993 4.22046C9.13809 4.22046 4.38672 8.91368 4.38672 14.703C4.38672 18.998 7.00192 22.6896 10.7453 24.3092C11.4004 24.5926 11.8244 25.2381 11.8244 25.9518V28.3928H18.1741V25.9518C18.1741 25.2381 18.5981 24.5926 19.2532 24.3092C22.9965 22.6896 25.6118 18.998 25.6118 14.703Z" fill="#FFA77D"/>
<path d="M15 4.22046C14.644 4.22046 14.2923 4.23811 13.9453 4.27186C19.3113 4.79484 23.5032 9.26524 23.5032 14.703C23.5032 18.998 20.888 22.6896 17.1446 24.3092C16.4895 24.5926 16.0655 25.2381 16.0655 25.9518V28.3928H18.1749V25.9518C18.1749 25.2381 18.5989 24.5925 19.254 24.3092C22.9973 22.6896 25.6125 18.998 25.6125 14.703C25.6125 8.91368 20.8611 4.22046 15 4.22046Z" fill="#FB5100"/>
<path d="M17.9982 27.6897H12C11.3204 27.6897 10.7695 28.2406 10.7695 28.9202C10.7695 29.5997 11.3204 30.1506 12 30.1506H17.9982C18.6778 30.1506 19.2287 29.5997 19.2287 28.9202C19.2287 28.2406 18.6777 27.6897 17.9982 27.6897Z" fill="white"/>
<path d="M17.998 27.6897H15.8887C16.5682 27.6897 17.1191 28.2406 17.1191 28.9202C17.1191 29.5997 16.5682 30.1506 15.8887 30.1506H17.998C18.6776 30.1506 19.2285 29.5997 19.2285 28.9202C19.2285 28.2406 18.6775 27.6897 17.998 27.6897Z" fill="#FB5100"/>
<path d="M14.999 22.4573C19.3348 22.4573 22.8496 18.9855 22.8496 14.7029C22.8496 10.4203 19.3348 6.94849 14.999 6.94849C10.6633 6.94849 7.14844 10.4203 7.14844 14.7029C7.14844 18.9855 10.6633 22.4573 14.999 22.4573Z" fill="white"/>
<path d="M15 6.94849C14.6423 6.94849 14.2903 6.9726 13.9453 7.01838C17.7823 7.52737 20.7412 10.7736 20.7412 14.703C20.7412 18.6323 17.7823 21.8786 13.9453 22.3876C14.2903 22.4333 14.6423 22.4575 15 22.4575C19.3358 22.4575 22.8506 18.9857 22.8506 14.703C22.8506 10.4202 19.3358 6.94849 15 6.94849Z" fill="white"/>
<path d="M17.9982 30.1506H12C11.3204 30.1506 10.7695 30.7015 10.7695 31.3811C10.7695 32.0607 11.3204 32.6116 12 32.6116H17.9982C18.6778 32.6116 19.2287 32.0607 19.2287 31.3811C19.2287 30.7015 18.6777 30.1506 17.9982 30.1506Z" fill="#EAF6FF"/>
<path d="M17.998 30.1506H15.8887C16.5682 30.1506 17.1191 30.7015 17.1191 31.3811C17.1191 32.0607 16.5682 32.6116 15.8887 32.6116H17.998C18.6776 32.6116 19.2285 32.0607 19.2285 31.3811C19.2285 30.7015 18.6775 30.1506 17.998 30.1506Z" fill="white"/>
<path d="M15.7782 35.4727H14.2207C13.9261 35.4727 13.6628 35.2891 13.5609 35.0127L12.6758 32.6116H17.323L16.4379 35.0127C16.336 35.2891 16.0727 35.4727 15.7782 35.4727Z" fill="white"/>
<path d="M15.2124 32.6116L14.3272 35.0127C14.2589 35.1981 14.1177 35.3414 13.9434 35.4158C14.0289 35.4524 14.1223 35.4727 14.2193 35.4727H15.7768C16.0713 35.4727 16.3346 35.2891 16.4365 35.0127L17.3217 32.6116H15.2124Z" fill="#FB5100"/>
<path d="M20.1786 20.5545C20.3834 20.7616 20.7173 20.7634 20.9244 20.5587C22.5065 18.9945 23.3778 16.9149 23.3778 14.703C23.3778 10.1365 19.6195 6.42129 14.9999 6.42129C10.3802 6.42129 6.62191 10.1365 6.62191 14.703C6.62191 19.2696 10.3802 22.9849 14.9999 22.9849C16.3226 22.9849 17.5885 22.6888 18.7621 22.1048C19.0229 21.975 19.1291 21.6584 18.9994 21.3977C18.8696 21.137 18.553 21.0308 18.2923 21.1605C17.2659 21.6712 16.1582 21.9302 14.9999 21.9302C10.9618 21.9302 7.67659 18.6881 7.67659 14.703C7.67659 10.718 10.9618 7.47598 14.9999 7.47598C19.038 7.47598 22.3231 10.718 22.3231 14.703C22.3231 16.6309 21.563 18.4442 20.1829 19.8087C19.9757 20.0134 19.9738 20.3473 20.1786 20.5545ZM29.1755 14.1756H27.5918C27.3005 14.1756 27.0644 14.4117 27.0644 14.703C27.0644 14.9942 27.3005 15.2303 27.5918 15.2303H29.1755C29.4668 15.2303 29.7028 14.9942 29.7028 14.703C29.7028 14.4117 29.4668 14.1756 29.1755 14.1756ZM26.1684 8.86373L27.54 8.07188C27.7922 7.92626 27.8786 7.60373 27.733 7.35152C27.5875 7.09931 27.2647 7.0129 27.0127 7.15852L25.6411 7.95038C25.3889 8.09599 25.3025 8.41852 25.4481 8.67073C25.5952 8.92547 25.9201 9.00752 26.1684 8.86373ZM8.24718 4.06174C8.3942 4.31662 8.71898 4.39819 8.96753 4.25475C9.21974 4.10913 9.30616 3.78661 9.16054 3.5344L8.36868 2.16281C8.22306 1.9106 7.90047 1.82419 7.64833 1.9698C7.39612 2.11542 7.3097 2.43795 7.45532 2.69016L8.24718 4.06174ZM14.9999 2.63841C15.2912 2.63841 15.5272 2.4023 15.5272 2.11106V0.527344C15.5272 0.236109 15.2912 0 14.9999 0C14.7086 0 14.4725 0.236109 14.4725 0.527344V2.11106C14.4725 2.40237 14.7086 2.63841 14.9999 2.63841ZM21.0321 4.25475C21.2799 4.39784 21.6054 4.31677 21.7525 4.06174L22.5444 2.69016C22.69 2.43795 22.6036 2.11542 22.3514 1.9698C22.0992 1.82412 21.7766 1.91053 21.631 2.16281L20.8391 3.5344C20.6934 3.78661 20.7799 4.10913 21.0321 4.25475ZM3.83127 20.5422L2.45969 21.3341C2.20748 21.4797 2.12106 21.8022 2.26668 22.0544C2.41384 22.3092 2.73869 22.3912 2.98703 22.2474L4.35862 21.4556C4.61083 21.31 4.69724 20.9874 4.55162 20.7352C4.40601 20.483 4.08348 20.3966 3.83127 20.5422ZM21.7525 25.3442C21.6068 25.092 21.2842 25.0057 21.0321 25.1512C20.7799 25.2968 20.6935 25.6193 20.8391 25.8716L21.631 27.2431C21.7781 27.498 22.1029 27.5796 22.3514 27.4361C22.6036 27.2905 22.69 26.9679 22.5444 26.7157L21.7525 25.3442ZM8.96753 25.1512C8.71525 25.0055 8.3928 25.092 8.24718 25.3442L7.45532 26.7158C7.3097 26.968 7.39612 27.2905 7.64833 27.4361C7.89632 27.5793 8.22159 27.4981 8.36868 27.2431L9.16054 25.8716C9.30623 25.6193 9.21981 25.2968 8.96753 25.1512ZM27.5399 21.3341L26.1684 20.5422C25.9159 20.3965 25.5936 20.483 25.448 20.7352C25.3024 20.9874 25.3888 21.31 25.641 21.4556L27.0126 22.2474C27.2602 22.3907 27.5857 22.3094 27.733 22.0544C27.8786 21.8022 27.7922 21.4797 27.5399 21.3341ZM15.9123 11.1745C16.3762 11.1745 16.7537 11.6202 16.7537 12.1681C16.7537 12.4593 16.9897 12.6954 17.281 12.6954C17.5723 12.6954 17.8083 12.4593 17.8083 12.1681C17.8083 11.0386 16.9578 10.1198 15.9123 10.1198H15.5272V9.49563C15.5272 9.2044 15.2912 8.96829 14.9999 8.96829C14.7086 8.96829 14.4725 9.2044 14.4725 9.49563V10.1198H14.0873C13.0419 10.1198 12.1913 11.0386 12.1913 12.1681V13.182C12.1913 13.7188 12.3817 14.226 12.7276 14.6103C13.0874 15.0102 13.5703 15.2303 14.0874 15.2303H14.4725V18.2315H14.0873C13.6234 18.2315 13.246 17.7858 13.246 17.238C13.246 16.9467 13.0099 16.7106 12.7186 16.7106C12.4274 16.7106 12.1913 16.9467 12.1913 17.238C12.1913 18.3674 13.0419 19.2862 14.0873 19.2862H14.4725V19.9104C14.4725 20.2016 14.7086 20.4377 14.9999 20.4377C15.2912 20.4377 15.5272 20.2016 15.5272 19.9104V19.2862H15.9124C16.9578 19.2862 17.8084 18.3674 17.8084 17.238V16.2239C17.8084 15.6871 17.618 15.1799 17.2722 14.7956C16.9123 14.3958 16.4294 14.1756 15.9123 14.1756H15.5272V11.1745H15.9123ZM14.4725 14.1756H14.0873C13.8732 14.1756 13.6687 14.0794 13.5115 13.9047C13.3403 13.7145 13.246 13.4578 13.246 13.182V12.1681C13.246 11.6202 13.6234 11.1745 14.0873 11.1745H14.4725V14.1756ZM15.9122 15.2303C16.1264 15.2303 16.3309 15.3264 16.4881 15.5012C16.6594 15.6914 16.7536 15.9481 16.7536 16.2239V17.2379C16.7536 17.7858 16.3761 18.2315 15.9122 18.2315H15.5272V15.2303H15.9122ZM14.9999 3.69281C13.4297 3.69281 11.9114 4.00936 10.4874 4.63366C10.2207 4.75059 10.0992 5.06166 10.2161 5.32835C10.3331 5.59512 10.6441 5.71648 10.9108 5.59962C12.2006 5.03423 13.5763 4.7475 14.9999 4.7475C20.5607 4.7475 25.0848 9.21354 25.0848 14.703C25.0848 18.6573 22.7138 22.2379 19.0445 23.8251C18.1957 24.1921 17.6472 25.0268 17.6472 25.9516V27.1624H12.3527V25.9516C12.3527 25.0269 11.8041 24.1921 10.9553 23.8251C7.28594 22.2379 4.91493 18.6572 4.91493 14.703C4.91493 11.5623 6.37026 8.67023 8.90769 6.76856C9.14071 6.59391 9.1881 6.26337 9.01337 6.03028C8.83879 5.79727 8.50818 5.74988 8.27509 5.9246C6.93388 6.92979 5.82301 8.24302 5.06259 9.72232C4.26475 11.2745 3.86017 12.9502 3.86017 14.703C3.86017 19.0782 6.48079 23.0388 10.5366 24.7932C10.9991 24.9931 11.2979 25.4479 11.2979 25.9516V27.3094C10.6776 27.5812 10.2429 28.2007 10.2429 28.9202C10.2429 29.3989 10.4355 29.8333 10.747 30.1506C10.4355 30.468 10.2429 30.9023 10.2429 31.3811C10.2429 32.3504 11.0315 33.1389 12.0007 33.1389H12.3086L13.0665 35.1951C13.244 35.6766 13.708 36 14.2211 36H15.7786C16.2917 36 16.7557 35.6766 16.9332 35.1951L17.6911 33.1389H17.9989C18.9681 33.1389 19.7567 32.3504 19.7567 31.3811C19.7567 30.9023 19.5641 30.468 19.2526 30.1506C19.5641 29.8333 19.7567 29.3989 19.7567 28.9202C19.7567 28.2007 19.3221 27.5813 18.7018 27.3094V25.9516C18.7018 25.4479 19.0006 24.9931 19.4631 24.7932C23.5188 23.0388 26.1394 19.0782 26.1394 14.703C26.1394 8.63198 21.1422 3.69281 14.9999 3.69281ZM15.9436 34.8303C15.9183 34.8991 15.8519 34.9453 15.7786 34.9453H14.2211C14.1478 34.9453 14.0815 34.8991 14.0561 34.8304L13.4326 33.1389H16.567L15.9436 34.8303ZM17.9989 32.0842H12.0007C11.613 32.0842 11.2976 31.7688 11.2976 31.3811C11.2976 30.9934 11.613 30.678 12.0007 30.678H17.9989C18.3866 30.678 18.702 30.9934 18.702 31.3811C18.702 31.7688 18.3866 32.0842 17.9989 32.0842ZM18.702 28.9202C18.702 29.3079 18.3866 29.6233 17.9989 29.6233H12.0007C11.613 29.6233 11.2976 29.3079 11.2976 28.9202C11.2976 28.5325 11.613 28.217 12.0007 28.217H17.9989C18.3866 28.217 18.702 28.5325 18.702 28.9202ZM2.45969 8.07188L3.83127 8.86373C4.07898 9.0071 4.40439 8.92568 4.55162 8.67073C4.69724 8.41852 4.61083 8.09599 4.35862 7.95038L2.98703 7.15852C2.73482 7.01283 2.4123 7.09931 2.26668 7.35152C2.12106 7.60373 2.20748 7.92626 2.45969 8.07188ZM2.93528 14.703C2.93528 14.4117 2.69917 14.1756 2.40794 14.1756H0.824219C0.532984 14.1756 0.296875 14.4117 0.296875 14.703C0.296875 14.9942 0.532984 15.2303 0.824219 15.2303H2.40794C2.69917 15.2303 2.93528 14.9942 2.93528 14.703Z" fill="#3F2355"/>
</svg>
