<?xml version="1.0" encoding="utf-8"?>
<!-- Generator: Adobe Illustrator 24.2.0, SVG Export Plug-In . SVG Version: 6.00 Build 0)  -->
<svg version="1.1" id="Layer_1" xmlns="http://www.w3.org/2000/svg" xmlns:xlink="http://www.w3.org/1999/xlink" x="0px" y="0px"
	 viewBox="0 0 144 48.7" style="enable-background:new 0 0 144 48.7;" xml:space="preserve">
<style type="text/css">
	.st0{fill:#FFFFFF;}
	.st1{fill:#644E77;}
	.st2{fill:#E6E6E6;}
</style>
<path class="st0" d="M20.9,37.1l-17-2.3C3.3,32.4,3,30,2.8,27.5l2.5-4c0.2-0.5,0.5-7,0.7-9.1L18,12.5c1.7-0.4,3.3-1,4.9-1.7
	c9.4-4.3,19.4-6.9,29.7-7.7c9.9-0.8,19.9-0.1,29.6,2c6.5,2.3,12.7,5.7,18.2,9.9l21.8,1.7c6.1,0.6,12,2.5,17.3,5.6l1.7,11.2
	c-0.1,1.2-0.3,2.4-0.8,3.5l-10.9,1.1"/>
<path class="st1" d="M129.6,39.3c-0.2,0-0.3,0-0.4-0.1c-0.1-0.1-0.3-0.1-0.4-0.2c-0.1-0.1-0.2-0.2-0.3-0.4c-0.1-0.1-0.1-0.3-0.1-0.4
	c0-0.2,0-0.3,0.1-0.4c0.1-0.1,0.1-0.3,0.2-0.4c0.1-0.1,0.2-0.2,0.4-0.3c0.1-0.1,0.3-0.1,0.4-0.1c3.4-0.3,6.8-0.6,10.2-1
	c0.2-0.8,0.4-1.6,0.5-2.4L138.5,23c-5-2.8-10.6-4.5-16.4-5.1l-21.8-1.7c-0.2,0-0.4-0.1-0.6-0.2c-5.4-4.1-11.4-7.4-17.8-9.7
	c-9.6-2-19.5-2.7-29.3-1.9c-10,0.6-19.8,3.1-28.9,7.4l-0.4,0.2c-1.7,0.7-3.4,1.3-5.2,1.8L7.1,15.5l-0.3,4.1c0,1.5-0.1,2.9-0.4,4.4
	c-0.2,0.5-1.6,2.7-2.3,3.9c0.2,2,0.5,4,0.9,6l16.2,2.2c0.3,0,0.6,0.2,0.8,0.4c0.2,0.2,0.3,0.5,0.2,0.8c0,0.2-0.1,0.3-0.1,0.4
	c-0.1,0.1-0.2,0.3-0.3,0.4c-0.1,0.1-0.3,0.2-0.4,0.2c-0.2,0-0.3,0-0.5,0l-17-2.3c-0.2,0-0.4-0.2-0.6-0.3c-0.2-0.2-0.3-0.4-0.3-0.6
	c-0.6-2.4-1-4.9-1.2-7.4c0-0.2,0-0.5,0.2-0.7L4.1,23l0.2-3.6l0.4-5.2c0-0.2,0.1-0.5,0.3-0.7c0.2-0.2,0.4-0.3,0.6-0.4l12.1-1.8
	c1.6-0.4,3.1-1,4.6-1.7l0.3-0.1c9.4-4.4,19.5-7,29.8-7.6c10-0.8,20.1-0.1,29.9,2c6.6,2.3,12.8,5.6,18.3,9.8l21.6,1.7
	c6.3,0.7,12.4,2.7,17.9,5.9c0.2,0.2,0.4,0.4,0.4,0.7l1.7,11.2c0,1.5-0.4,2.9-0.9,4.2c-0.1,0.2-0.2,0.3-0.4,0.4
	c-0.2,0.1-0.3,0.2-0.5,0.2C140.2,38.2,132.2,39.1,129.6,39.3z"/>
<path class="st2" d="M75.4,47.6c33.2,0,60.1-1.2,60.1-2.6c0-1.4-26.9-2.6-60.1-2.6c-33.2,0-60.1,1.2-60.1,2.6
	C15.3,46.5,42.2,47.6,75.4,47.6z"/>
<path class="st2" d="M30.1,43.9c5.3,0,9.6-4.2,9.6-9.5c0-5.2-4.3-9.5-9.6-9.5c-5.3,0-9.6,4.2-9.6,9.5C20.5,39.7,24.8,43.9,30.1,43.9
	z"/>
<path class="st1" d="M30.1,45.1c-2.1,0-4.2-0.6-6-1.8c-1.8-1.2-3.1-2.8-4-4.8c-0.8-1.9-1-4.1-0.6-6.1c0.4-2.1,1.4-3.9,2.9-5.4
	c1.5-1.5,3.4-2.5,5.5-2.9c2.1-0.4,4.2-0.2,6.2,0.6c2,0.8,3.6,2.2,4.8,3.9c1.2,1.7,1.8,3.8,1.8,5.9c0,2.8-1.1,5.5-3.1,7.5
	C35.7,43.9,32.9,45,30.1,45.1L30.1,45.1z M30.1,26.2c-1.6,0-3.3,0.5-4.6,1.4c-1.4,0.9-2.4,2.2-3.1,3.7c-0.6,1.5-0.8,3.2-0.5,4.8
	c0.3,1.6,1.1,3.1,2.3,4.2c1.2,1.2,2.7,1.9,4.3,2.3c1.6,0.3,3.3,0.2,4.8-0.5c1.5-0.6,2.8-1.7,3.8-3c0.9-1.4,1.4-2.9,1.4-4.6
	c0-2.2-0.9-4.3-2.4-5.9S32.3,26.2,30.1,26.2L30.1,26.2z"/>
<path class="st0" d="M30.1,39.9c3,0,5.5-2.4,5.5-5.4c0-3-2.5-5.4-5.5-5.4s-5.5,2.4-5.5,5.4C24.6,37.4,27,39.9,30.1,39.9z"/>
<path class="st0" d="M25.1,36.5c-0.5-1.2-0.5-2.6-0.1-3.8c0.4-1.2,1.3-2.3,2.5-2.9c1.2-0.6,2.5-0.9,3.8-0.6c1.3,0.3,2.5,1,3.3,2.1
	c0.8,1.1,1.2,2.4,1.1,3.7c-0.1,1.3-0.7,2.5-1.7,3.5c-1,0.9-2.2,1.4-3.6,1.5c-1.3,0.1-2.6-0.4-3.7-1.2"/>
<path class="st1" d="M30.1,40.5c-1.4,0-2.7-0.5-3.7-1.3c-0.1-0.1-0.1-0.2-0.1-0.4c0-0.1,0-0.3,0.1-0.4c0.1-0.1,0.2-0.2,0.3-0.2
	c0.1,0,0.3,0,0.4,0c0.9,0.7,1.9,1,3,1c1.1,0,2.2-0.4,3-1.1c0.9-0.7,1.5-1.6,1.7-2.7c0.2-1.1,0.1-2.2-0.4-3.2c-0.5-1-1.3-1.8-2.3-2.2
	c-1-0.5-2.1-0.6-3.2-0.3c-1.1,0.2-2,0.8-2.7,1.7c-0.7,0.9-1.1,1.9-1.1,3c0,0.7,0.1,1.3,0.4,1.9c0,0.1,0,0.3,0,0.4
	c-0.1,0.1-0.2,0.2-0.3,0.3c-0.1,0-0.1,0-0.2,0.1c-0.1,0-0.1,0-0.2,0c-0.1,0-0.1-0.1-0.2-0.1c-0.1,0-0.1-0.1-0.1-0.2
	c-0.5-1.2-0.6-2.5-0.3-3.7c0.3-1.2,1-2.4,2-3.2c1-0.8,2.2-1.3,3.5-1.4c1.3-0.1,2.6,0.3,3.7,1c1.1,0.7,1.9,1.7,2.3,2.9
	c0.4,1.2,0.5,2.5,0.1,3.7c-0.4,1.2-1.1,2.3-2.2,3.1C32.6,40.1,31.4,40.5,30.1,40.5L30.1,40.5z"/>
<path class="st2" d="M120.8,43.9c5.3,0,9.6-4.2,9.6-9.5c0-5.2-4.3-9.5-9.6-9.5c-5.3,0-9.6,4.2-9.6,9.5
	C111.2,39.7,115.5,43.9,120.8,43.9z"/>
<path class="st1" d="M120.8,45.1c-2.1,0-4.2-0.6-6-1.8c-1.8-1.2-3.1-2.8-4-4.8c-0.8-1.9-1-4.1-0.6-6.1c0.4-2.1,1.4-3.9,2.9-5.4
	c1.5-1.5,3.4-2.5,5.5-2.9c2.1-0.4,4.2-0.2,6.2,0.6c2,0.8,3.6,2.2,4.8,3.9c1.2,1.7,1.8,3.8,1.8,5.9c0,2.8-1.1,5.5-3.1,7.5
	C126.4,43.9,123.6,45.1,120.8,45.1z M120.8,26.2c-1.7,0-3.3,0.5-4.6,1.4c-1.4,0.9-2.4,2.2-3.1,3.7c-0.6,1.5-0.8,3.2-0.5,4.8
	c0.3,1.6,1.1,3.1,2.3,4.2c1.2,1.2,2.7,1.9,4.3,2.3c1.6,0.3,3.3,0.2,4.8-0.5s2.8-1.7,3.8-3c0.9-1.4,1.4-2.9,1.4-4.6
	c0-2.2-0.9-4.3-2.5-5.9C125.1,27,123,26.2,120.8,26.2z"/>
<path class="st0" d="M120.8,39.9c3,0,5.5-2.4,5.5-5.4c0-3-2.5-5.4-5.5-5.4c-3,0-5.5,2.4-5.5,5.4C115.3,37.4,117.7,39.9,120.8,39.9z"
	/>
<path class="st0" d="M117.8,29.9c0.6-0.4,1.3-0.7,2-0.8c1.2-0.2,2.4,0,3.5,0.5c1.1,0.5,1.9,1.4,2.4,2.5c0.5,1.1,0.7,2.3,0.4,3.4
	c-0.2,1.2-0.9,2.2-1.8,3c-0.9,0.8-2,1.2-3.2,1.3c-1.2,0.1-2.4-0.2-3.4-0.9c-1-0.7-1.8-1.6-2.1-2.7c-0.4-1.1-0.4-2.3,0-3.5"/>
<path class="st1" d="M120.8,40.5c-1.4,0-2.8-0.5-3.9-1.4c-1.1-0.9-1.8-2.1-2.1-3.5c-0.2-1-0.1-2,0.2-2.9c0-0.1,0.2-0.3,0.3-0.3
	c0.1-0.1,0.3-0.1,0.4,0c0.1,0,0.3,0.2,0.3,0.3c0.1,0.1,0.1,0.3,0,0.4c-0.3,1-0.3,2.1,0,3.1c0.3,1,1,1.9,1.9,2.4
	c0.9,0.6,1.9,0.9,3,0.8c1.1-0.1,2.1-0.5,2.9-1.1c0.8-0.7,1.4-1.6,1.6-2.6c0.2-1,0.1-2.1-0.3-3.1c-0.5-1-1.2-1.7-2.2-2.2
	s-2-0.7-3.1-0.5c-0.7,0.1-1.3,0.3-1.9,0.6c-0.1,0-0.2,0-0.3,0c-0.1,0-0.2-0.1-0.3-0.2c-0.1-0.1-0.1-0.2-0.1-0.3c0-0.1,0-0.2,0.1-0.3
	c0.7-0.5,1.4-0.8,2.2-0.9c1.6-0.3,3.2,0.1,4.5,1s2.2,2.3,2.5,3.9c0.3,1.6-0.1,3.2-1,4.5c-0.9,1.3-2.3,2.2-3.9,2.5
	C121.5,40.4,121.1,40.5,120.8,40.5z M111.9,39.1H45.5c-0.3,0-0.6-0.1-0.8-0.3c-0.2-0.2-0.3-0.5-0.3-0.8c0-0.3,0.1-0.6,0.3-0.8
	c0.2-0.2,0.5-0.3,0.8-0.3h66.4c0.3,0,0.6,0.1,0.8,0.3c0.2,0.2,0.3,0.5,0.3,0.8c0,0.3-0.1,0.6-0.3,0.8
	C112.6,39,112.3,39.1,111.9,39.1z"/>
<path class="st2" d="M33,15.5c-2.3-2.8-1.1-4.6,1.6-5.4c5.5-1.7,11.3-2.7,17.1-2.9c9.9-0.8,19.8-0.1,29.5,2
	c5.5,1.8,10.6,4.5,15.3,7.8L33,15.5z"/>
<path class="st1" d="M96.5,18.1L33,16.6c-0.2,0-0.3,0-0.5-0.1c-0.2-0.1-0.3-0.2-0.4-0.3c-0.6-0.5-1-1.2-1.3-2
	c-0.2-0.8-0.3-1.6-0.1-2.3c0.3-0.7,0.8-1.4,1.4-1.9c0.6-0.5,1.4-0.8,2.1-1c5.6-1.8,11.5-2.8,17.4-3c10-0.8,20.1-0.1,29.9,2
	c5.6,1.9,10.9,4.6,15.7,7.9c0.2,0.1,0.4,0.3,0.5,0.6c0.1,0.2,0.1,0.5,0,0.7c-0.1,0.2-0.2,0.4-0.4,0.6C97,18,96.8,18.1,96.5,18.1z
	 M33.5,14.3l59,1.4c-3.6-2.3-7.5-4.2-11.6-5.5c-9.6-2-19.4-2.7-29.2-1.9C46,8.5,40.4,9.5,34.9,11.2c-1.1,0.3-1.8,0.8-1.9,1.4
	c0,0.3,0,0.6,0.1,0.9C33.3,13.8,33.4,14.1,33.5,14.3L33.5,14.3z M20.9,32.4h-0.1C14.5,31.6,8.4,30.2,2.6,28c-0.1,0-0.2,0-0.3-0.1
	c-0.1-0.1-0.1-0.1-0.2-0.2c0-0.1-0.1-0.2-0.1-0.3c0-0.1,0-0.2,0-0.3c0-0.1,0.1-0.2,0.2-0.2c0.1-0.1,0.2-0.1,0.2-0.1s0.2,0,0.3,0
	c0.1,0,0.2,0.1,0.2,0.1c5.8,2.1,11.8,3.5,17.9,4.3c0.1,0,0.2,0.1,0.3,0.2c0.1,0.1,0.1,0.2,0.1,0.4c0,0.1-0.1,0.3-0.2,0.4
	C21.1,32.3,21,32.4,20.9,32.4L20.9,32.4z M5.4,22c-0.1,0-0.2,0-0.3,0c-0.1,0-0.2-0.1-0.3-0.1c-0.1-0.1-0.1-0.1-0.2-0.2
	c0-0.1-0.1-0.2-0.1-0.3c0-0.1,0-0.2,0.1-0.3c0-0.1,0.1-0.2,0.2-0.2c0.1-0.1,0.2-0.1,0.3-0.1s0.2,0,0.3,0c1.6,0,3.5-1.7,4.9-2.8
	l0.9-0.8c0.1-0.1,0.2-0.1,0.2-0.2c-0.2,0-0.5-0.1-0.7,0h-5c-0.1,0-0.2-0.1-0.3-0.2c-0.1-0.1-0.1-0.2-0.1-0.4c0-0.1,0-0.3,0.1-0.4
	c0.1-0.1,0.2-0.2,0.3-0.2h4.9c1.1,0,1.8,0.3,2,0.8c0.3,0.7-0.5,1.4-0.7,1.5L11,18.8C9.5,20.4,7.6,21.6,5.4,22L5.4,22z"/>
<path class="st1" d="M9.3,16.3h1.4c0.5,0,2.3,0.1,0.9,1.3l-2.3,2V16.3z M105,34.9H39.9c-0.1,0-0.2,0-0.3,0s-0.2-0.1-0.3-0.1
	c-0.1-0.1-0.1-0.1-0.2-0.2c0-0.1-0.1-0.2-0.1-0.3s0-0.2,0.1-0.3c0-0.1,0.1-0.2,0.2-0.2c0.1-0.1,0.2-0.1,0.3-0.1c0.1,0,0.2,0,0.3,0
	h64.8l2.1-4.5c0.1-0.1,0.2-0.2,0.3-0.3c0.1-0.1,0.3-0.1,0.4,0c0.1,0.1,0.2,0.2,0.3,0.3c0.1,0.1,0,0.3,0,0.4l-2.2,4.8
	c0,0.1-0.1,0.2-0.2,0.2C105.3,34.8,105.2,34.9,105,34.9L105,34.9z M137.4,26.4c-1.3,0-1.4-0.1-1.5-0.2l-0.5-0.4l-4.2-3
	c-0.2-0.2-0.9-0.9-0.7-1.5c0.2-0.6,1.1-0.6,1.6-0.6c0.4,0,6.8,1,7.5,1.1c0.1,0.1,0.2,0.1,0.3,0.3c0.1,0.1,0.1,0.3,0.1,0.4
	c0,0.1-0.1,0.3-0.2,0.3c-0.1,0.1-0.2,0.1-0.4,0.2l-7.4-1.1h-0.1c0,0,0.1,0.1,0.1,0.1c0.9,0.9,3,2.3,4,2.9l0.5,0.3c0.5,0,2.1,0,3.6,0
	c0.2,0,0.3,0.1,0.4,0.2c0.1,0.1,0.2,0.2,0.2,0.4c0,0.2-0.1,0.3-0.2,0.4c-0.1,0.1-0.2,0.2-0.4,0.2L137.4,26.4L137.4,26.4z"/>
<path class="st1" d="M136.2,25.7l-4.6-3.3c-1.4-1.1,0-1.1,0.5-1.1l3.1,0.5L136.2,25.7z M42.9,20.2h-4.7c-0.1,0-0.2-0.1-0.3-0.2
	c-0.1-0.1-0.1-0.2-0.1-0.4s0-0.3,0.1-0.4c0.1-0.1,0.2-0.2,0.3-0.2h4.7c0.1,0,0.2,0.1,0.3,0.2c0.1,0.1,0.1,0.2,0.1,0.4s0,0.3-0.1,0.4
	C43.2,20.1,43,20.1,42.9,20.2z M75.4,20.2h-4.6c-0.1,0-0.2-0.1-0.3-0.2s-0.1-0.2-0.1-0.4s0-0.3,0.1-0.4s0.2-0.2,0.3-0.2h4.6
	c0.1,0,0.2,0.1,0.3,0.2c0.1,0.1,0.1,0.2,0.1,0.4s0,0.3-0.1,0.4C75.7,20.1,75.6,20.1,75.4,20.2z M68.9,31.1c-0.1,0-0.3,0-0.4-0.1
	c-0.1-0.1-0.2-0.2-0.2-0.4c-0.7-9.2-2-18.3-3.8-27.3c0-0.1,0-0.3,0.1-0.4c0.1-0.1,0.2-0.2,0.4-0.2c0.1,0,0.2,0,0.2,0
	c0.1,0,0.2,0,0.2,0.1c0.1,0,0.1,0.1,0.2,0.2c0,0.1,0.1,0.1,0.1,0.2c1.8,9.1,3.1,18.3,3.8,27.5c0,0.2-0.1,0.3-0.2,0.4
	S69.1,31.1,68.9,31.1L68.9,31.1z M89,18.2h3.4c0.4,0,0.7-0.2,1-0.4c0.3-0.3,0.4-0.6,0.4-1c0-0.3-0.2-0.7-0.4-0.9
	c-0.3-0.2-0.6-0.4-1-0.4H89V18.2z"/>
<path class="st1" d="M92.4,19.4H89c-0.3,0-0.6-0.1-0.8-0.3c-0.2-0.2-0.3-0.5-0.3-0.8v-2.7c0-0.3,0.1-0.6,0.3-0.8
	c0.2-0.2,0.5-0.3,0.8-0.3h3.4c0.7,0,1.3,0.3,1.8,0.7c0.5,0.5,0.7,1.1,0.7,1.8c0,0.7-0.3,1.3-0.7,1.8C93.8,19.1,93.2,19.4,92.4,19.4
	L92.4,19.4z M90.2,17.1h2.3v-0.5h-2.3V17.1z M43.3,16.3c-0.2,0-0.3-0.1-0.4-0.2s-0.2-0.2-0.2-0.4l-0.5-7.6c0-0.1,0.1-0.2,0.2-0.3
	c0.1-0.1,0.2-0.1,0.4-0.1c0.1,0,0.3,0,0.4,0.1c0.1,0.1,0.2,0.2,0.2,0.3l0.5,7.6c0,0.1,0,0.2,0,0.2c0,0.1-0.1,0.1-0.1,0.2
	c-0.1,0.1-0.1,0.1-0.2,0.1C43.4,16.3,43.3,16.3,43.3,16.3L43.3,16.3z M33,16.6h-4.2c-0.3,0-0.6-0.1-0.8-0.3s-0.3-0.5-0.3-0.8
	s0.1-0.6,0.3-0.8s0.5-0.3,0.8-0.3H33c0.3,0,0.6,0.1,0.8,0.3c0.2,0.2,0.3,0.5,0.3,0.8s-0.1,0.6-0.3,0.8C33.6,16.5,33.3,16.6,33,16.6z
	 M134.9,34.3c-0.2,0-0.3-0.1-0.4-0.2c-0.1-0.1-0.2-0.2-0.2-0.4c0-0.2,0.1-0.3,0.2-0.4c0.1-0.1,0.2-0.2,0.4-0.2l6.3-0.2
	c0.1,0,0.2,0.1,0.3,0.2s0.1,0.2,0.1,0.4c0,0.1,0,0.3-0.1,0.4c-0.1,0.1-0.2,0.2-0.3,0.2L134.9,34.3z"/>
</svg>
