<svg width="70" height="70" viewBox="0 0 70 70" fill="none" xmlns="http://www.w3.org/2000/svg">
<g clip-path="url(#clip0)">
<path d="M69.0297 40.6707C68.0489 39.3003 66.4148 38.3793 64.7656 38.2672C63.4193 38.1766 62.1993 38.6312 61.3314 39.5499C61.141 39.7514 60.9355 39.9728 60.7181 40.2099C59.7579 39.3302 58.4997 38.7642 57.2312 38.678C55.8844 38.5878 54.6649 39.0421 53.7971 39.9608C51.908 41.9604 48.5631 45.8668 45.9361 48.9766C45.5935 48.774 45.227 48.6069 44.8392 48.4815C43.5836 47.9408 26.2745 40.5485 18.6021 40.5485C6.20831 40.5485 0.514489 47.2102 0.278238 47.4936C-0.0842054 47.9286 -0.025416 48.5738 0.408395 48.9375C0.842343 49.3013 1.48985 49.2443 1.85489 48.8114C1.86801 48.796 3.19816 47.2385 5.91505 45.7038C8.4192 44.2896 12.6531 42.6033 18.6019 42.6033C25.973 42.6033 43.8914 50.3104 44.0716 50.3882C44.4009 50.5303 44.7407 50.639 45.0414 50.8397C45.3254 51.0292 45.5796 51.2631 45.7926 51.5298C46.2063 52.0481 46.4654 52.6893 46.5198 53.3508C46.6342 54.7366 45.8564 56.0755 44.6009 56.6673C43.8092 57.0406 42.9722 57.0518 42.1404 56.8239L30.9299 53.7363C30.3902 53.5876 29.8151 53.9145 29.6665 54.454C29.5179 54.9938 29.8445 55.5687 30.3842 55.7173L41.579 58.8006C42.9392 59.2202 44.4257 59.0829 45.6859 58.422C46.966 57.7508 47.9082 56.6211 48.3386 55.2415C48.4791 54.7914 48.5584 54.3322 48.5799 53.8732L51.5866 53.5566C51.8527 53.5285 52.0974 53.3978 52.2687 53.1922C52.3428 53.1032 59.7154 44.2524 62.8252 40.9607C64.1178 39.5919 66.4256 40.5622 67.359 41.8662C68.7943 43.8715 67.0106 46.0605 66.4298 46.6838C63.5757 49.746 58.3419 56.0552 57.4012 57.1925L36.0998 67.8431L25.1403 63.2285C24.6243 63.0113 24.0119 63.2605 23.7947 63.7768C23.5774 64.2927 23.8268 64.905 24.3428 65.1222L35.7381 69.9201C36.0121 70.0356 36.3305 70.0251 36.5963 69.8922L58.5145 58.9331C58.6427 58.8689 58.7561 58.7787 58.8474 58.668C58.9075 58.5951 64.8985 51.3407 67.9332 48.0845C70.1669 45.6882 70.5875 42.8469 69.0297 40.6707ZM50.957 51.557L48.2799 51.839C48.0902 51.3016 47.8164 50.7967 47.4714 50.3435C49.709 47.6947 53.3452 43.4315 55.2906 41.3722C55.8527 40.7771 56.58 40.6929 57.0916 40.7286C57.897 40.7834 58.723 41.1633 59.3441 41.738C56.2616 45.2178 52.065 50.2299 50.957 51.557Z" fill="#3F2355"/>
<path d="M20.096 61.1059L15.7127 59.2602C15.5865 59.207 15.4509 59.1797 15.3139 59.1797H1.067C0.499612 59.1797 0.0395508 59.6396 0.0395508 60.2071C0.0395508 60.7747 0.499612 61.2346 1.067 61.2346H15.1063L19.2984 62.9996C19.8499 63.2319 20.4963 62.93 20.677 62.3615C20.8356 61.8625 20.5781 61.3088 20.096 61.1059Z" fill="#3F2355"/>
<path d="M54.622 34.2574L50.2471 34.8825C53.8047 31.0709 55.7946 26.0775 55.7946 20.7538C55.7946 9.31019 46.4844 0 35.0409 0C23.5972 0 14.2871 9.31019 14.2871 20.7538C14.2871 25.3455 15.7563 29.6969 18.5358 33.3372C21.2259 36.8604 25.0405 39.4739 29.2772 40.6964C29.8376 40.8578 30.4326 40.5054 30.5633 39.9382C30.6843 39.4139 30.363 38.8711 29.8467 38.722C21.8953 36.4278 16.3419 29.0388 16.3419 20.7536C16.3419 10.4429 24.7303 2.05462 35.0409 2.05462C45.3516 2.05462 53.7399 10.4429 53.7399 20.7536C53.7399 25.8507 51.7164 30.6126 48.1233 34.1173V28.6989C48.1233 28.1314 47.6634 27.6715 47.0958 27.6715C46.5283 27.6715 46.0684 28.1314 46.0684 28.6989V36.3703C46.0684 36.9846 46.6325 37.4748 47.2412 37.3875L54.9125 36.2915C55.4668 36.2124 55.8637 35.6834 55.7844 35.1291C55.7052 34.5754 55.1755 34.1791 54.622 34.2574Z" fill="#3F2355"/>
<path d="M35.0406 19.7264H33.9447C32.6983 19.7264 31.6844 18.7124 31.6844 17.4662C31.6844 16.2198 32.6985 15.2058 33.9447 15.2058H38.3283C38.8958 15.2058 39.3557 14.7458 39.3557 14.1783C39.3557 13.6108 38.8958 13.1509 38.3283 13.1509H36.0679V11.9864C36.0679 11.4189 35.608 10.959 35.0405 10.959C34.4731 10.959 34.013 11.4189 34.013 11.9864V13.1509H33.9445C31.5652 13.1509 29.6294 15.0867 29.6294 17.466C29.6294 19.8453 31.5652 21.7812 33.9445 21.7812H35.0405C36.2868 21.7812 37.3009 22.7952 37.3009 24.0414C37.3009 25.2876 36.2868 26.3017 35.0405 26.3017H30.6568C30.0895 26.3017 29.6294 26.7616 29.6294 27.3291C29.6294 27.8966 30.0895 28.3565 30.6568 28.3565H34.013V29.521C34.013 30.0885 34.4731 30.5484 35.0405 30.5484C35.608 30.5484 36.0679 30.0885 36.0679 29.521V28.2321C37.9527 27.7699 39.3556 26.0669 39.3556 24.0415C39.3557 21.6622 37.4199 19.7264 35.0406 19.7264Z" fill="#FB5100"/>
</g>
<defs>
<clipPath id="clip0">
<rect width="70" height="70" fill="white"/>
</clipPath>
</defs>
</svg>
