<svg width="94" height="84" viewBox="0 0 94 84" fill="none" xmlns="http://www.w3.org/2000/svg">
<path d="M90.041 28.3848H92.2181V23.8068C92.2156 21.4715 91.753 19.1595 90.8569 17.0029C89.9608 14.8463 88.6487 12.8874 86.9955 11.2379C85.3422 9.58848 83.3803 8.2808 81.2217 7.38964C79.0631 6.49848 76.7501 6.04115 74.4148 6.04396V14.1623C76.0603 14.6943 77.6169 15.4693 79.0334 16.4614L90.041 28.3848Z" fill="#FA9566"/>
<path d="M24.5451 63.8894C24.0693 66.5215 22.7182 68.9155 20.7111 70.6834C18.704 72.4513 16.1586 73.4895 13.4876 73.6294C10.8165 73.7692 8.17653 73.0026 5.99581 71.4539C3.81509 69.9052 2.22159 67.6652 1.47356 65.0973C0.725539 62.5293 0.866892 59.7838 1.87481 57.3063C2.88273 54.8288 4.698 52.7644 7.0263 51.448C9.3546 50.1315 12.0593 49.6403 14.7019 50.0539C17.3444 50.4674 19.7698 51.7615 21.5846 53.7263" stroke="#FA9566" stroke-width="2" stroke-miterlimit="10" stroke-linecap="round"/>
<path d="M78.2196 50.1053C78.9282 49.9787 79.6464 49.9141 80.3662 49.9121C83.1356 49.9126 85.8176 50.8822 87.947 52.6529C90.0764 54.4236 91.5191 56.8837 92.0248 59.6066C92.5305 62.3295 92.0674 65.1435 90.7157 67.5607C89.3641 69.9779 87.2091 71.8458 84.6245 72.8406C82.0399 73.8354 79.1886 73.8944 76.5651 73.0073C73.9416 72.1202 71.7112 70.3429 70.2608 67.9837C68.8103 65.6244 68.2312 62.8321 68.6239 60.0907C69.0165 57.3492 70.3562 54.8315 72.4106 52.9743" stroke="#FA9566" stroke-width="2" stroke-miterlimit="10" stroke-linecap="round"/>
<path d="M33.6502 63.8895C33.6604 63.7166 33.6604 63.5334 33.6604 63.3605C33.6604 49.0242 18.6659 39.6382 7.95138 34.7611C7.49819 34.5533 7.12945 34.1973 6.90611 33.7515C6.68276 33.3058 6.61822 32.7971 6.72306 32.3097C6.82789 31.8223 7.09584 31.3851 7.4827 31.0706C7.86956 30.7561 8.35218 30.5832 8.85074 30.58C11.4582 30.5566 14.2528 30.5393 16.9426 30.5393L28.0733 30.6034C29.3328 30.6109 30.5778 30.8727 31.7335 31.3733C32.8893 31.874 33.9319 32.6033 34.7988 33.517V33.517C35.6636 34.4285 36.7033 35.1561 37.8558 35.6565C39.0082 36.157 40.2497 36.42 41.5061 36.4297V36.4297C42.4523 36.4372 43.3806 36.1717 44.1799 35.6652C44.9791 35.1588 45.6155 34.4327 46.0128 33.5739L46.6548 32.1873C47.7853 29.7446 49.5954 27.6792 51.8685 26.2377C54.1416 24.7963 56.7817 24.0398 59.4733 24.0588L68.738 24.1261V14.5479C89.8986 14.5479 92.2802 33.5099 92.3463 41.4553C92.3493 41.8155 92.263 42.1708 92.0952 42.4895C91.9275 42.8082 91.6834 43.0806 91.3848 43.2821C91.0862 43.4835 90.7423 43.6079 90.3839 43.6442C90.0256 43.6805 89.6639 43.6275 89.331 43.4899C84.3122 41.5108 78.7309 41.5013 73.7054 43.4634C68.6799 45.4254 64.5814 49.214 62.2312 54.0701C61.6555 55.4218 61.1795 56.8139 60.8069 58.2351C60.5031 59.3702 59.973 60.4323 59.2484 61.3574C59.1578 61.4693 59.0662 61.5771 58.9737 61.6768C58.3248 62.3775 57.5379 62.9363 56.6624 63.318C55.787 63.6997 54.842 63.8959 53.887 63.8945H14.68C14.2334 63.8945 13.7912 63.8066 13.3786 63.6357C12.9659 63.4648 12.591 63.2143 12.2752 62.8985C11.9594 62.5827 11.7089 62.2079 11.538 61.7952C11.3671 61.3826 11.2791 60.9401 11.2791 60.4935V60.4935C11.2791 59.8342 11.4709 59.1893 11.8308 58.6369C12.1908 58.0846 12.7035 57.6489 13.3067 57.3826L29.0234 50.4454" stroke="#3F2355" stroke-width="2" stroke-miterlimit="10" stroke-linecap="round"/>
<path d="M80.4984 18.2354C79.6538 18.9243 79.0431 19.8577 78.7503 20.9076C78.4574 21.9575 78.4967 23.0723 78.8628 24.0989C79.2289 25.1256 79.9037 26.0138 80.7948 26.6415C81.6858 27.2693 82.7493 27.6058 83.8393 27.605C84.7227 27.6042 85.5922 27.3838 86.3695 26.9639" stroke="#3F2355" stroke-width="2" stroke-miterlimit="10" stroke-linecap="round"/>
<path d="M48.1169 5.4502H38.4868" stroke="#DBDAE1" stroke-width="2" stroke-miterlimit="10" stroke-linecap="round"/>
<path d="M43.3019 10.2649L43.3385 1" stroke="#DBDAE1" stroke-width="2" stroke-miterlimit="10" stroke-linecap="round"/>
<path d="M48.489 78.084H38.8589" stroke="#DBDAE1" stroke-width="2" stroke-miterlimit="10" stroke-linecap="round"/>
<path d="M43.674 82.8986L43.7106 73.6338" stroke="#DBDAE1" stroke-width="2" stroke-miterlimit="10" stroke-linecap="round"/>
<path d="M56.0417 50.1357H52.9897" stroke="#3F2355" stroke-width="2" stroke-miterlimit="10" stroke-linecap="round"/>
<path d="M54.007 56.2393H46.8857" stroke="#3F2355" stroke-width="2" stroke-miterlimit="10" stroke-linecap="round"/>
<path d="M74.9509 43.373L79.942 53.643L83.4354 60.8336C83.6256 61.2168 83.7381 61.6338 83.7664 62.0606C83.7947 62.4874 83.7381 62.9155 83.6001 63.3203C83.4621 63.7252 83.2453 64.0987 82.9623 64.4194C82.6792 64.7401 82.3355 65.0016 81.9509 65.1888C81.5663 65.3761 81.1485 65.4855 80.7215 65.5105C80.2945 65.5355 79.8668 65.4755 79.463 65.3344C79.0592 65.1933 78.6873 64.9736 78.3688 64.6881C78.0503 64.4026 77.7914 64.0568 77.6071 63.6708L74.0251 56.3023L69.0229 45.9998" stroke="#3F2355" stroke-width="2" stroke-miterlimit="10" stroke-linecap="round"/>
<path d="M44.3871 36.4465C45.711 37.6068 47.1582 38.6184 48.7027 39.463C50.5766 40.2989 52.6062 40.7291 54.6581 40.7255C62.4204 40.7255 68.7074 34.7335 68.7074 27.3375C68.7074 26.4728 68.7176 25.3637 68.7278 24.1226C68.738 23.9496 68.738 23.7665 68.738 23.5833C68.738 23.095 68.7482 22.5966 68.7482 22.0879" stroke="#3F2355" stroke-width="2" stroke-miterlimit="10" stroke-linecap="round"/>
</svg>
