<svg width="70" height="70" viewBox="0 0 70 70" fill="none" xmlns="http://www.w3.org/2000/svg">
<path d="M28.4377 50.3125V41.5625C28.4377 40.6923 28.092 39.8577 27.4767 39.2423C26.8613 38.627 26.0267 38.2812 25.1565 38.2812C24.2862 38.2812 23.4516 38.627 22.8363 39.2423C22.2209 39.8577 21.8752 40.6923 21.8752 41.5625V50.3125C21.0519 50.9353 20.4216 51.7784 20.0573 52.7444C19.6931 53.7103 19.6096 54.7596 19.8167 55.771C20.0238 56.7824 20.5129 57.7145 21.2275 58.4596C21.9421 59.2046 22.853 59.7322 23.8549 59.9813C24.2808 60.0881 24.7174 60.1468 25.1565 60.1562C26.3043 60.1562 27.423 59.7951 28.3541 59.124C29.2852 58.4529 29.9816 57.5058 30.3446 56.4169C30.7075 55.328 30.7187 54.1525 30.3765 53.0569C30.0342 51.9613 29.3559 51.0012 28.4377 50.3125ZM27.1908 57.2359C26.8402 57.5341 26.4307 57.7551 25.989 57.8846C25.5473 58.0141 25.0833 58.0493 24.6272 57.9878C24.171 57.9263 23.7329 57.7695 23.3413 57.5277C22.9497 57.2858 22.6134 56.9642 22.3542 56.5839C22.0949 56.2036 21.9186 55.7729 21.8367 55.32C21.7548 54.8671 21.7691 54.402 21.8786 53.9549C21.9882 53.5079 22.1906 53.0889 22.4726 52.7252C22.7547 52.3614 23.1101 52.0611 23.5158 51.8438C23.6827 51.7474 23.8212 51.6086 23.9173 51.4415C24.0133 51.2744 24.0635 51.0849 24.0627 50.8922V41.5625C24.0627 41.2724 24.1779 40.9942 24.3831 40.7891C24.5882 40.584 24.8664 40.4688 25.1565 40.4688C25.4465 40.4688 25.7247 40.584 25.9299 40.7891C26.135 40.9942 26.2502 41.2724 26.2502 41.5625V50.9141C26.2494 51.1068 26.2996 51.2963 26.3957 51.4634C26.4917 51.6305 26.6302 51.7693 26.7971 51.8656C27.2562 52.1345 27.6431 52.511 27.9244 52.9626C28.2057 53.4143 28.3729 53.9275 28.4116 54.4582C28.4504 54.9889 28.3595 55.521 28.1468 56.0087C27.9341 56.4964 27.6061 56.9251 27.1908 57.2578V57.2359Z" fill="#FB5100"/>
<path d="M66.9594 41.5625L63.3391 40.7641C61.5291 40.3491 59.8213 39.5734 58.3179 38.4834C56.8145 37.3934 55.5463 36.0115 54.5891 34.4203C54.4922 34.2571 54.3546 34.1219 54.1897 34.028C54.0247 33.9341 53.8382 33.8847 53.6484 33.8847C53.4587 33.8847 53.2721 33.9341 53.1072 34.028C52.9423 34.1219 52.8047 34.2571 52.7078 34.4203C51.3513 36.6619 49.3815 38.4685 47.0312 39.6266V35C47.0307 33.9364 46.72 32.896 46.1372 32.0063C45.5544 31.1165 44.7248 30.4161 43.75 29.9906V19.6875C43.75 14.7561 41.791 10.0267 38.304 6.53973C34.817 3.05273 30.0876 1.09375 25.1562 1.09375C20.2249 1.09375 15.4955 3.05273 12.0085 6.53973C8.52148 10.0267 6.5625 14.7561 6.5625 19.6875V29.9906C5.58768 30.4161 4.75808 31.1165 4.17529 32.0063C3.59249 32.896 3.2818 33.9364 3.28125 35V38.2812H2.1875C1.89742 38.2812 1.61922 38.3965 1.4141 38.6016C1.20898 38.8067 1.09375 39.0849 1.09375 39.375V59.0625C1.09375 59.3526 1.20898 59.6308 1.4141 59.8359C1.61922 60.041 1.89742 60.1562 2.1875 60.1562H3.28125V63.4375C3.28125 64.8879 3.85742 66.2789 4.88301 67.3045C5.9086 68.3301 7.2996 68.9062 8.75 68.9062H41.5625C43.0129 68.9062 44.4039 68.3301 45.4295 67.3045C46.4551 66.2789 47.0312 64.8879 47.0312 63.4375V63.2953C48.5314 65.052 50.2184 66.64 52.0625 68.0312L52.9375 68.6875C53.1268 68.8295 53.3571 68.9062 53.5938 68.9062C53.8304 68.9062 54.0607 68.8295 54.25 68.6875L55.125 68.0312C59.055 65.068 62.2455 61.235 64.4466 56.8327C66.6478 52.4304 67.7998 47.5782 67.8125 42.6562C67.8187 42.4034 67.737 42.1563 67.5815 41.9568C67.4259 41.7574 67.2061 41.6181 66.9594 41.5625ZM8.75 19.6875C8.75 15.3363 10.4785 11.1633 13.5553 8.08653C16.632 5.00976 20.805 3.28125 25.1562 3.28125C29.5075 3.28125 33.6805 5.00976 36.7572 8.08653C39.834 11.1633 41.5625 15.3363 41.5625 19.6875V29.5312H37.1875V19.6875C37.1875 16.4966 35.9199 13.4364 33.6636 11.1801C31.4073 8.92382 28.3471 7.65625 25.1562 7.65625C21.9654 7.65625 18.9052 8.92382 16.6489 11.1801C14.3926 13.4364 13.125 16.4966 13.125 19.6875V29.5312H8.75V19.6875ZM35 29.5312H15.3125V19.6875C15.3125 17.0768 16.3496 14.573 18.1957 12.7269C20.0417 10.8809 22.5455 9.84375 25.1562 9.84375C27.767 9.84375 30.2708 10.8809 32.1168 12.7269C33.9629 14.573 35 17.0768 35 19.6875V29.5312ZM14.2188 40.4688V44.8438H3.28125V40.4688H14.2188ZM3.28125 57.9688V53.5938H14.2188V57.9688H3.28125ZM14.2188 51.4062H3.28125V47.0312H14.2188V51.4062ZM44.8438 63.4375C44.8438 64.3077 44.498 65.1423 43.8827 65.7577C43.2673 66.373 42.4327 66.7188 41.5625 66.7188H8.75C7.87976 66.7188 7.04516 66.373 6.42981 65.7577C5.81445 65.1423 5.46875 64.3077 5.46875 63.4375V60.1562H15.3125C15.6026 60.1562 15.8808 60.041 16.0859 59.8359C16.291 59.6308 16.4062 59.3526 16.4062 59.0625V39.375C16.4062 39.0849 16.291 38.8067 16.0859 38.6016C15.8808 38.3965 15.6026 38.2812 15.3125 38.2812H5.46875V35C5.46875 34.1298 5.81445 33.2952 6.42981 32.6798C7.04516 32.0645 7.87976 31.7188 8.75 31.7188H41.5625C42.4327 31.7188 43.2673 32.0645 43.8827 32.6798C44.498 33.2952 44.8438 34.1298 44.8438 35V40.4688C44.5156 40.5672 44.1875 40.6656 43.8484 40.7422L40.2281 41.5625C39.9814 41.6181 39.7615 41.7574 39.606 41.9568C39.4505 42.1563 39.3688 42.4034 39.375 42.6562C39.3928 48.9889 41.2967 55.1727 44.8438 60.4188V63.4375ZM53.8125 66.2812L53.5938 66.4453L53.375 66.2812C49.8319 63.6123 46.9317 60.1834 44.8875 56.2465C42.8434 52.3096 41.7072 47.9648 41.5625 43.5312L44.3078 42.9188C48.012 42.0956 51.3031 39.983 53.5938 36.9578C55.8817 39.9808 59.1686 42.0932 62.8687 42.9188L65.625 43.5312C65.4803 47.9648 64.3441 52.3096 62.3 56.2465C60.2558 60.1834 57.3556 63.6123 53.8125 66.2812Z" fill="#3F2355"/>
<path d="M59.0624 46.1124L57.3452 44.7343C55.6569 43.7364 53.6533 43.4152 51.7377 43.8354C49.8221 44.2556 48.1368 45.386 47.0213 46.999C45.9058 48.6119 45.4428 50.5877 45.7256 52.5283C46.0084 54.469 47.016 56.2304 48.5455 57.4579C50.075 58.6854 52.0128 59.2878 53.9687 59.1437C55.9245 58.9997 57.7532 58.12 59.0864 56.6818C60.4196 55.2435 61.1584 53.3535 61.1539 51.3924C61.1495 49.4312 60.4021 47.5446 59.0624 46.1124ZM59.0624 51.4062C59.0748 52.6274 58.6821 53.8183 57.9458 54.7926C57.2095 55.7669 56.171 56.4698 54.9927 56.7911C53.8145 57.1125 52.563 57.0343 51.4339 56.5688C50.3048 56.1033 49.3619 55.2768 48.7525 54.2184C48.1431 53.16 47.9017 51.9295 48.066 50.7193C48.2303 49.5091 48.791 48.3875 49.6605 47.5299C50.53 46.6723 51.6592 46.1271 52.8715 45.9794C54.0839 45.8318 55.3109 46.0901 56.3608 46.714L53.4077 52.6203L51.2202 49.6562L49.4702 50.9687L52.7514 55.3437C52.8533 55.4795 52.9854 55.5898 53.1373 55.6657C53.2892 55.7417 53.4566 55.7812 53.6264 55.7812H53.7249C53.9098 55.7635 54.0872 55.699 54.2403 55.5937C54.3934 55.4885 54.5171 55.346 54.5999 55.1796L58.0671 48.2452C58.7231 49.168 59.0714 50.2741 59.0624 51.4062Z" fill="#FB5100"/>
</svg>
