<svg width="113" height="83" viewBox="0 0 113 83" fill="none" xmlns="http://www.w3.org/2000/svg">
<path d="M72.7001 48.2755C71.6696 51.0907 69.7988 53.5215 67.3412 55.2384C64.8836 56.9553 61.9577 57.8755 58.9598 57.8746H25.3948C24.2883 57.874 23.2271 57.4342 22.4446 56.6517C21.6622 55.8693 21.2224 54.8081 21.2218 53.7015V43.2211C21.2222 42.174 21.6168 41.1655 22.3271 40.3961C23.0374 39.6268 24.0113 39.1531 25.055 39.0693V47.957C25.0541 48.5054 25.1611 49.0487 25.3701 49.5557C25.5791 50.0628 25.8858 50.5237 26.273 50.9122C26.6601 51.3007 27.1199 51.6091 27.6263 51.8199C28.1326 52.0307 28.6754 52.1396 29.2238 52.1406H62.7782C66.4538 52.1457 69.9965 50.7656 72.7001 48.2755Z" fill="#FA9566"/>
<path d="M9.89502 79.1133H20.7673" stroke="#3F2355" stroke-width="2" stroke-miterlimit="10" stroke-linecap="round"/>
<path d="M1 79.1133H2.97716" stroke="#3F2355" stroke-width="2" stroke-miterlimit="10" stroke-linecap="round"/>
<path d="M40.5367 50.8857V33.4502" stroke="#3F2355" stroke-width="2" stroke-miterlimit="10" stroke-linecap="round"/>
<path d="M59.3165 50.8857V33.4502" stroke="#3F2355" stroke-width="2" stroke-miterlimit="10" stroke-linecap="round"/>
<path d="M75.0946 10.4635C77.5512 10.4635 79.5427 8.47206 79.5427 6.01545C79.5427 3.55885 77.5512 1.56738 75.0946 1.56738C72.638 1.56738 70.6465 3.55885 70.6465 6.01545C70.6465 8.47206 72.638 10.4635 75.0946 10.4635Z" stroke="#FA9566" stroke-width="2" stroke-miterlimit="10" stroke-linecap="round"/>
<path d="M68.6672 74.1709H45.0241" stroke="#3F2355" stroke-width="2" stroke-miterlimit="10" stroke-linecap="round"/>
<path d="M87.5255 74.1711H91.0647C94.1787 74.1708 97.1652 72.9336 99.3671 70.7316C101.569 68.5296 102.806 65.5431 102.807 62.4291V34.5163C102.811 32.8525 102.458 31.2071 101.769 29.6924C100.841 27.6305 99.337 25.8806 97.438 24.6532C95.539 23.4257 93.3258 22.773 91.0647 22.7734H26.582C23.4678 22.774 20.4814 24.0114 18.2794 26.2135C16.0775 28.4157 14.8404 31.4022 14.8401 34.5163V62.427C14.8396 65.4692 16.0203 68.3927 18.1333 70.5814C20.2463 72.77 23.1265 74.0528 26.1668 74.1593" stroke="#3F2355" stroke-width="2" stroke-miterlimit="10" stroke-linecap="round"/>
<path d="M29.8886 32.6572H73.918C75.0261 32.6572 76.0889 33.0975 76.8725 33.8811C77.6561 34.6647 78.0963 35.7275 78.0963 36.8357V36.8357C78.0963 40.722 76.5525 44.4491 73.8044 47.1972C71.0564 49.9453 67.3292 51.489 63.4429 51.489H29.8886C28.7804 51.489 27.7176 51.0489 26.934 50.2653C26.1504 49.4817 25.7102 48.4189 25.7102 47.3107V47.3107V36.8357C25.7102 35.7275 26.1504 34.6647 26.934 33.8811C27.7176 33.0975 28.7804 32.6572 29.8886 32.6572Z" stroke="#3F2355" stroke-width="2" stroke-miterlimit="10" stroke-linecap="round"/>
<path d="M102.997 37.7379V56.3202C98.1414 55.8937 93.6219 53.6641 90.3289 50.0709C87.0358 46.4777 85.2079 41.7815 85.2054 36.9076C85.2059 35.8489 85.6268 34.8336 86.3754 34.085C87.124 33.3364 88.1392 32.9156 89.1979 32.915H101.958C102.648 34.4292 103.002 36.0743 102.997 37.7379V37.7379Z" stroke="#3F2355" stroke-width="2" stroke-miterlimit="10" stroke-linecap="round"/>
<path d="M36.5824 22.7731V20.8364C36.5827 19.7773 37.0035 18.7616 37.7524 18.0127C38.5013 17.2638 39.517 16.8431 40.576 16.8428H77.0706C78.1297 16.8431 79.1453 17.2638 79.8942 18.0127C80.6431 18.7616 81.0639 19.7773 81.0642 20.8364V22.7731" stroke="#3F2355" stroke-width="2" stroke-miterlimit="10" stroke-linecap="round"/>
<path d="M78.0953 81.0886C83.5539 81.0886 87.979 76.6635 87.979 71.2049C87.979 65.7464 83.5539 61.3213 78.0953 61.3213C72.6367 61.3213 68.2117 65.7464 68.2117 71.2049C68.2117 76.6635 72.6367 81.0886 78.0953 81.0886Z" stroke="#3F2355" stroke-width="2" stroke-miterlimit="10" stroke-linecap="round"/>
<path d="M78.0964 75.1575C80.2797 75.1575 82.0496 73.3875 82.0496 71.2042C82.0496 69.0209 80.2797 67.251 78.0964 67.251C75.9131 67.251 74.1431 69.0209 74.1431 71.2042C74.1431 73.3875 75.9131 75.1575 78.0964 75.1575Z" fill="#FA9566"/>
<path d="M35.5939 81.0886C41.0525 81.0886 45.4775 76.6635 45.4775 71.2049C45.4775 65.7464 41.0525 61.3213 35.5939 61.3213C30.1353 61.3213 25.7102 65.7464 25.7102 71.2049C25.7102 76.6635 30.1353 81.0886 35.5939 81.0886Z" stroke="#3F2355" stroke-width="2" stroke-miterlimit="10" stroke-linecap="round"/>
<path d="M35.5938 75.1575C37.7771 75.1575 39.5471 73.3875 39.5471 71.2042C39.5471 69.0209 37.7771 67.251 35.5938 67.251C33.4105 67.251 31.6406 69.0209 31.6406 71.2042C31.6406 73.3875 33.4105 75.1575 35.5938 75.1575Z" fill="#FA9566"/>
<path d="M17.6285 13.7012H7.74481" stroke="#DBDAE1" stroke-width="2" stroke-miterlimit="10" stroke-linecap="round"/>
<path d="M12.6866 18.6436L12.7238 9.13477" stroke="#DBDAE1" stroke-width="2" stroke-miterlimit="10" stroke-linecap="round"/>
<path d="M102.997 5.56738H93.1132" stroke="#DBDAE1" stroke-width="2" stroke-miterlimit="10" stroke-linecap="round"/>
<path d="M98.055 10.5088L98.0922 1" stroke="#DBDAE1" stroke-width="2" stroke-miterlimit="10" stroke-linecap="round"/>
<path d="M101.777 62.3604H95.8461" stroke="#3F2355" stroke-width="2" stroke-miterlimit="10" stroke-linecap="round"/>
<path d="M102.807 28.2988H105.439C107.179 28.2991 108.848 28.9904 110.078 30.2208C111.308 31.4512 112 33.1199 112 34.8599V40.0014" stroke="#3F2355" stroke-width="2" stroke-miterlimit="10" stroke-linecap="round"/>
</svg>
