<svg width="42" height="32" viewBox="0 0 42 32" fill="none" xmlns="http://www.w3.org/2000/svg">
<path d="M38.5372 27.9249H3.46408C1.91443 27.9249 0.658203 26.6687 0.658203 25.1191V4.07517C0.658203 2.52551 1.91443 1.26929 3.46408 1.26929H38.5371C40.0868 1.26929 41.343 2.52551 41.343 4.07517V25.119C41.343 26.6686 40.0868 27.9249 38.5372 27.9249Z" fill="white"/>
<path d="M12.5829 18.8062C8.70884 18.8062 5.56836 21.9467 5.56836 25.8208C5.56836 26.5541 5.68173 27.2607 5.8905 27.9252H19.2755C19.4842 27.2607 19.5976 26.5541 19.5976 25.8208C19.5976 21.9466 16.457 18.8062 12.5829 18.8062Z" fill="#DBC7EB"/>
<path d="M20.9994 25.1192H4.16434C3.77699 25.1192 3.46289 24.8051 3.46289 24.4178V4.77689C3.46289 4.38954 3.77699 4.07544 4.16434 4.07544H20.9994C21.3868 4.07544 21.7009 4.38954 21.7009 4.77689V24.4178C21.7009 24.8051 21.3868 25.1192 20.9994 25.1192Z" fill="#FFA77D"/>
<path d="M5.60352 25.1193H19.5618C19.2097 21.5746 16.2199 18.8062 12.5826 18.8062C8.94522 18.8062 5.95551 21.5746 5.60352 25.1193Z" fill="#959CB5"/>
<path d="M18.1925 22.3132C18.5798 22.3132 18.8939 21.9991 18.8939 21.6118V19.8171C18.8939 19.2132 18.5075 18.6771 17.9346 18.4861L15.1637 17.5624C14.8777 17.4671 14.6847 17.1999 14.6841 16.8985L14.6814 15.6511C15.1193 15.4322 15.4115 15.0008 15.4521 14.5129L15.6054 12.8425C15.8989 12.5854 16.088 12.2122 16.088 11.7913V7.58252H11.1778C10.0156 7.58252 9.07346 8.52465 9.07346 9.68687V11.7912C9.07346 12.2121 9.2627 12.5854 9.55613 12.8425L9.70936 14.5128C9.74997 15.0006 10.0421 15.4321 10.48 15.651L10.4774 16.8984C10.4768 17.1998 10.2837 17.4671 9.99779 17.5624L7.22685 18.486C6.65395 18.677 6.26758 19.2131 6.26758 19.817V21.6117C6.26758 21.999 6.58168 22.3131 6.96903 22.3131H18.1925V22.3132Z" fill="white"/>
<path d="M6.97152 22.3132H18.1949C18.338 22.3132 18.4635 22.2598 18.5745 22.1862C17.344 20.1623 15.1249 18.8059 12.5832 18.8059C10.0415 18.8059 7.82227 20.1623 6.5918 22.1862C6.70287 22.2598 6.82837 22.3132 6.97152 22.3132Z" fill="#DBC7EB"/>
<path d="M25.9107 14.5973C26.6855 14.5973 27.3136 13.9692 27.3136 13.1944C27.3136 12.4196 26.6855 11.7915 25.9107 11.7915C25.1359 11.7915 24.5078 12.4196 24.5078 13.1944C24.5078 13.9692 25.1359 14.5973 25.9107 14.5973Z" fill="#FB5100"/>
<path d="M31.522 14.5973C32.2968 14.5973 32.9249 13.9692 32.9249 13.1944C32.9249 12.4196 32.2968 11.7915 31.522 11.7915C30.7472 11.7915 30.1191 12.4196 30.1191 13.1944C30.1191 13.9692 30.7472 14.5973 31.522 14.5973Z" fill="#FFA77D"/>
<path d="M37.1353 14.5973C37.9101 14.5973 38.5382 13.9692 38.5382 13.1944C38.5382 12.4196 37.9101 11.7915 37.1353 11.7915C36.3605 11.7915 35.7324 12.4196 35.7324 13.1944C35.7324 13.9692 36.3605 14.5973 37.1353 14.5973Z" fill="#FFA77D"/>
<path d="M12.5821 30.7309C15.2939 30.7309 17.4923 28.5325 17.4923 25.8206C17.4923 23.1088 15.2939 20.9104 12.5821 20.9104C9.87026 20.9104 7.67188 23.1088 7.67188 25.8206C7.67188 28.5325 9.87026 30.7309 12.5821 30.7309Z" fill="#FB5100"/>
<path d="M38.5366 0.611816H3.46344C1.55375 0.611816 0 2.16557 0 4.07526V25.1191C0 27.0288 1.55375 28.5825 3.46344 28.5825H7.75105C8.71213 30.2571 10.5171 31.3884 12.5824 31.3884C14.6478 31.3884 16.4528 30.2571 17.4138 28.5825H38.5365C40.4462 28.5825 41.9999 27.0288 41.9999 25.1191V4.07526C42 2.16557 40.4462 0.611816 38.5366 0.611816ZM8.89284 21.6557H6.97077C6.94657 21.6557 6.92696 21.6359 6.92696 21.6119V19.8172C6.92696 19.4958 7.1318 19.2117 7.43654 19.1101L10.2075 18.1865C10.7621 18.0017 11.1355 17.4847 11.1368 16.9L11.1394 15.6527C11.1399 15.403 10.9992 15.1747 10.7759 15.063C10.5448 14.9475 10.3879 14.7158 10.366 14.4529L10.2128 12.7825C10.1974 12.6146 10.1181 12.4591 9.99124 12.348C9.82464 12.202 9.73284 12.0044 9.73284 11.7914V9.6871C9.73284 8.88934 10.3819 8.24031 11.1796 8.24031H15.4321V11.7914C15.4321 12.0044 15.3403 12.2021 15.1737 12.348C15.0468 12.4591 14.9676 12.6148 14.9522 12.7825L14.7984 14.4584C14.7769 14.7159 14.6201 14.9475 14.389 15.0631C14.1658 15.1747 14.025 15.4031 14.0255 15.6527L14.0281 16.9001C14.0293 17.4847 14.4027 18.0016 14.9574 18.1866L17.7283 19.1102C18.0331 19.2118 18.2379 19.4959 18.2379 19.8173V21.612C18.2379 21.6361 18.2183 21.6558 18.1941 21.6558H16.272C15.2888 20.7839 13.9968 20.2529 12.5824 20.2529C11.1681 20.2529 9.87607 20.7838 8.89284 21.6557ZM17.3634 22.9709H18.1942C18.9436 22.9709 19.5533 22.3613 19.5533 21.6118V19.8171C19.5533 18.9288 18.987 18.1433 18.1443 17.8623L15.3734 16.9387C15.3555 16.9328 15.3435 16.9161 15.3434 16.8972L15.3416 16.0058C15.7777 15.6557 16.0619 15.1352 16.1087 14.5731L16.2405 13.1366C16.5654 12.7634 16.7475 12.2863 16.7475 11.7914V7.58259C16.7475 7.21943 16.4531 6.92494 16.0899 6.92494H11.1796C9.65664 6.92494 8.41764 8.16402 8.41764 9.68693V11.7913C8.41764 12.2863 8.59975 12.7633 8.92459 13.1365L9.05592 14.5674C9.10309 15.1338 9.38741 15.6553 9.82349 16.0056L9.82168 16.897C9.82168 16.9159 9.80954 16.9325 9.79166 16.9385L7.02073 17.8622C6.17802 18.143 5.61176 18.9287 5.61176 19.817V21.6117C5.61176 22.3611 6.22141 22.9707 6.97085 22.9707H7.80166C7.52727 23.4292 7.31694 23.9302 7.18323 24.4613H4.16489C4.14069 24.4613 4.12109 24.4416 4.12109 24.4175V4.77679C4.12109 4.75267 4.14069 4.73299 4.16489 4.73299H21C21.0242 4.73299 21.0438 4.75267 21.0438 4.77679V24.4177C21.0438 24.4418 21.0242 24.4615 21 24.4615H17.9819C17.848 23.9303 17.6377 23.4294 17.3634 22.9709ZM12.5824 30.0732C10.2376 30.0732 8.32986 28.1655 8.32986 25.8206C8.32986 23.4757 10.2376 21.568 12.5824 21.568C14.9273 21.568 16.835 23.4757 16.835 25.8206C16.8351 28.1655 14.9274 30.0732 12.5824 30.0732ZM40.6848 25.1191C40.6848 26.3037 39.7211 27.2674 38.5366 27.2674H17.9584C18.0828 26.8057 18.1503 26.321 18.1503 25.8206C18.1503 25.806 18.1493 25.7914 18.1492 25.7768H21C21.7494 25.7768 22.3591 25.1671 22.3591 24.4177V4.77679C22.3591 4.02735 21.7494 3.4177 21 3.4177H4.16489C3.41545 3.4177 2.8058 4.02735 2.8058 4.77679V24.4177C2.8058 25.1671 3.41545 25.7768 4.16489 25.7768H7.01572C7.01564 25.7914 7.01457 25.806 7.01457 25.8206C7.01457 26.321 7.082 26.8057 7.20636 27.2674H3.46344C2.27891 27.2674 1.31521 26.3037 1.31521 25.1191V4.07526C1.31521 2.89073 2.27891 1.92702 3.46344 1.92702H38.5365C39.721 1.92702 40.6847 2.89073 40.6847 4.07526V25.1191H40.6848Z" fill="#3F2355"/>
<path d="M14.2021 23.9735L12.0598 26.3105L10.906 25.3216C10.6301 25.0852 10.2151 25.1171 9.97869 25.3928C9.74228 25.6686 9.77419 26.0838 10.05 26.3201L11.6867 27.723C11.8105 27.8291 11.9628 27.8813 12.1145 27.8813C12.2926 27.8813 12.47 27.8093 12.5994 27.6681L15.1714 24.8622C15.4169 24.5945 15.3987 24.1785 15.131 23.9331C14.8634 23.6877 14.4475 23.7058 14.2021 23.9735Z" fill="#3F2355"/>
<path d="M24.5073 6.13585H34.3277C34.6909 6.13585 34.9854 5.84144 34.9854 5.4782C34.9854 5.11505 34.6909 4.82056 34.3277 4.82056H24.5073C24.1441 4.82056 23.8496 5.11497 23.8496 5.4782C23.8496 5.84144 24.144 6.13585 24.5073 6.13585Z" fill="#3F2355"/>
<path d="M24.5073 8.94175H37.835C38.1982 8.94175 38.4927 8.64734 38.4927 8.28411C38.4927 7.92087 38.1983 7.62646 37.835 7.62646H24.5073C24.1441 7.62646 23.8496 7.92087 23.8496 8.28411C23.8496 8.64734 24.144 8.94175 24.5073 8.94175Z" fill="#3F2355"/>
<path d="M37.8352 17.4468H28.7162C28.3531 17.4468 28.0586 17.7412 28.0586 18.1044C28.0586 18.4676 28.353 18.7621 28.7162 18.7621H37.8352C38.1984 18.7621 38.4929 18.4677 38.4929 18.1044C38.4928 17.7412 38.1984 17.4468 37.8352 17.4468Z" fill="#3F2355"/>
<path d="M25.9102 17.4468H24.5073C24.1441 17.4468 23.8496 17.7412 23.8496 18.1044C23.8496 18.4676 24.144 18.7621 24.5073 18.7621H25.9102C26.2733 18.7621 26.5678 18.4677 26.5678 18.1044C26.5678 17.7412 26.2733 17.4468 25.9102 17.4468Z" fill="#3F2355"/>
<path d="M35.7308 20.2529H28.7162C28.3531 20.2529 28.0586 20.5473 28.0586 20.9106C28.0586 21.2737 28.353 21.5682 28.7162 21.5682H35.7308C36.094 21.5682 36.3885 21.2738 36.3885 20.9106C36.3885 20.5474 36.094 20.2529 35.7308 20.2529Z" fill="#3F2355"/>
<path d="M25.9102 20.2529H24.5073C24.1441 20.2529 23.8496 20.5473 23.8496 20.9106C23.8496 21.2737 24.144 21.5682 24.5073 21.5682H25.9102C26.2733 21.5682 26.5678 21.2738 26.5678 20.9106C26.5678 20.5474 26.2733 20.2529 25.9102 20.2529Z" fill="#3F2355"/>
<path d="M35.7308 23.0586H28.7162C28.3531 23.0586 28.0586 23.353 28.0586 23.7162C28.0586 24.0794 28.353 24.3739 28.7162 24.3739H35.7308C36.094 24.3739 36.3885 24.0795 36.3885 23.7162C36.3885 23.353 36.094 23.0586 35.7308 23.0586Z" fill="#3F2355"/>
<path d="M25.9102 23.0586H24.5073C24.1441 23.0586 23.8496 23.353 23.8496 23.7162C23.8496 24.0794 24.144 24.3739 24.5073 24.3739H25.9102C26.2733 24.3739 26.5678 24.0795 26.5678 23.7162C26.5678 23.353 26.2733 23.0586 25.9102 23.0586Z" fill="#3F2355"/>
<path d="M25.9102 11.1335C24.7739 11.1335 23.8496 12.0579 23.8496 13.1941C23.8496 14.3303 24.7739 15.2546 25.9102 15.2546C27.0464 15.2546 27.9707 14.3303 27.9707 13.1941C27.9707 12.058 27.0464 11.1335 25.9102 11.1335ZM25.9102 13.9394C25.4992 13.9394 25.1648 13.6051 25.1648 13.1941C25.1648 12.7831 25.4992 12.4488 25.9102 12.4488C26.3211 12.4488 26.6555 12.7831 26.6555 13.1941C26.6555 13.6051 26.3211 13.9394 25.9102 13.9394Z" fill="#3F2355"/>
<path d="M29.4609 13.1941C29.4609 14.3303 30.3853 15.2546 31.5215 15.2546C32.6577 15.2546 33.582 14.3303 33.582 13.1941C33.582 12.0579 32.6577 11.1335 31.5215 11.1335C30.3853 11.1335 29.4609 12.058 29.4609 13.1941ZM32.2668 13.1941C32.2668 13.6051 31.9325 13.9394 31.5215 13.9394C31.1105 13.9394 30.7761 13.6051 30.7761 13.1941C30.7761 12.7831 31.1105 12.4488 31.5215 12.4488C31.9325 12.4488 32.2668 12.7832 32.2668 13.1941Z" fill="#3F2355"/>
<path d="M37.1348 11.1335C35.9985 11.1335 35.0742 12.0579 35.0742 13.1941C35.0742 14.3303 35.9985 15.2546 37.1348 15.2546C38.271 15.2546 39.1953 14.3303 39.1953 13.1941C39.1953 12.058 38.271 11.1335 37.1348 11.1335ZM37.1348 13.9394C36.7238 13.9394 36.3894 13.6051 36.3894 13.1941C36.3894 12.7831 36.7238 12.4488 37.1348 12.4488C37.5457 12.4488 37.8801 12.7831 37.8801 13.1941C37.8801 13.6051 37.5457 13.9394 37.1348 13.9394Z" fill="#3F2355"/>
</svg>
