<svg width="112" height="83" viewBox="0 0 112 83" fill="none" xmlns="http://www.w3.org/2000/svg">
<path d="M108.685 32.7574L98.8689 37.1605C99.0947 35.3625 98.649 33.5442 97.6171 32.0545C95.7175 29.3004 92.9493 27.2629 89.7551 26.2677L73.1856 21.1289L77.973 15.3532C78.6246 14.5585 79.4786 13.9546 80.4449 13.6048C81.4112 13.255 82.454 13.1722 83.4633 13.3657L105.084 20.0749C107.495 20.824 109.584 22.3635 111.013 24.4451C111.479 25.1239 111.79 25.8966 111.924 26.7087C112.059 27.5208 112.014 28.3524 111.792 29.145C111.57 29.9377 111.176 30.6719 110.64 31.2961C110.103 31.9202 109.436 32.4191 108.685 32.7574Z" fill="#FA9566"/>
<path d="M68.2252 6.07324H79.2057" stroke="#DBDAE1" stroke-width="2" stroke-miterlimit="10" stroke-linecap="round"/>
<path d="M73.7154 11.5632L73.6737 1" stroke="#DBDAE1" stroke-width="2" stroke-miterlimit="10" stroke-linecap="round"/>
<path d="M18.3041 76.416H29.2845" stroke="#DBDAE1" stroke-width="2" stroke-miterlimit="10" stroke-linecap="round"/>
<path d="M23.7943 81.907L23.7526 71.3438" stroke="#DBDAE1" stroke-width="2" stroke-miterlimit="10" stroke-linecap="round"/>
<path d="M107.62 47.7539C107.62 54.5289 102.548 60.008 96.3181 59.964L68.0906 59.7665" stroke="#3F2355" stroke-width="2" stroke-miterlimit="10" stroke-linecap="round"/>
<path d="M28.3062 31.6581V26.4863C28.3062 22.7079 25.7445 19.6455 22.5843 19.6455H8.09666C7.69017 19.6455 7.28768 19.7253 6.91213 19.8809C6.53657 20.0364 6.19534 20.2644 5.90791 20.5519C5.62047 20.8393 5.39246 21.1805 5.23691 21.5561C5.08135 21.9316 5.00127 22.3342 5.00127 22.7407V22.7407V26.7804" stroke="#FA9566" stroke-width="2" stroke-miterlimit="10" stroke-linecap="round"/>
<path d="M14.0635 60.5687C16.2678 60.5687 18.0549 58.7817 18.0549 56.5773C18.0549 54.3729 16.2678 52.5859 14.0635 52.5859C11.8591 52.5859 10.0721 54.3729 10.0721 56.5773C10.0721 58.7817 11.8591 60.5687 14.0635 60.5687Z" fill="#3F2355"/>
<path d="M48.6388 60.5687C50.8431 60.5687 52.6302 58.7817 52.6302 56.5773C52.6302 54.3729 50.8431 52.5859 48.6388 52.5859C46.4344 52.5859 44.6474 54.3729 44.6474 56.5773C44.6474 58.7817 46.4344 60.5687 48.6388 60.5687Z" fill="#3F2355"/>
<path d="M94.2593 59.4547L85.6901 47.7539" stroke="#3F2355" stroke-width="2" stroke-miterlimit="10" stroke-linecap="round"/>
<path d="M77.6963 59.7102L75.6507 51.5605" stroke="#3F2355" stroke-width="2" stroke-miterlimit="10" stroke-linecap="round"/>
<path d="M49.336 24.7835L44.8812 20.4538C43.1531 18.7741 40.838 17.8346 38.428 17.835H35.8608" stroke="#3F2355" stroke-width="2" stroke-miterlimit="10" stroke-linecap="round"/>
<path d="M58.8934 31.6426H71.8855" stroke="#3F2355" stroke-width="2" stroke-miterlimit="10" stroke-linecap="round"/>
<path d="M87.8555 35.9326H98.1332" stroke="#3F2355" stroke-width="2" stroke-miterlimit="10" stroke-linecap="round"/>
<path d="M23.3364 41.3562C23.3364 41.3562 54.2465 46.8738 55.5477 47.5051C57.2226 48.3147 58.6353 49.5802 59.6239 51.1561C60.6124 52.732 61.1368 54.5544 61.1367 56.4147V56.4147C61.1364 59.0376 60.0943 61.5531 58.2396 63.4078C56.385 65.2625 53.8695 66.3046 51.2466 66.3049H11.9695C10.6706 66.305 9.3844 66.0494 8.18435 65.5524C6.9843 65.0554 5.89389 64.327 4.97539 63.4086C4.0569 62.4902 3.3283 61.3997 2.83121 60.1997C2.33411 58.9997 2.07828 57.7136 2.07828 56.4147C2.07828 51.6667 6.90967 48.3484 11.0076 44.737C12.6725 43.2767 14.6473 42.2137 16.783 41.6281C18.9187 41.0424 21.1596 40.9495 23.3364 41.3562V41.3562Z" stroke="#3F2355" stroke-width="2" stroke-miterlimit="10" stroke-linecap="round"/>
<path d="M67.355 51.6658H75.1291C75.3073 51.6697 75.484 51.632 75.6452 51.5559L94.5316 43.079C95.479 42.6571 96.3267 42.0401 97.0192 41.2681C97.7118 40.4961 98.2336 39.5867 98.5505 38.5992C98.7068 38.1322 98.8135 37.65 98.8689 37.1606C99.0948 35.3626 98.649 33.5443 97.6171 32.0546C95.7175 29.3005 92.9493 27.263 89.7551 26.2678L73.1856 21.1291L65.5651 18.7684L61.1181 17.3848C60.0885 17.1908 59.0299 17.2126 58.0093 17.4489C56.9887 17.6851 56.0281 18.1307 55.1886 18.7574C54.6904 19.1199 54.2403 19.5441 53.849 20.02L46.2066 29.2658C45.5562 30.1071 44.718 30.7844 43.7589 31.2439C42.7999 31.7034 41.7466 31.9322 40.6834 31.9119L36.0277 31.868L23.8174 31.7364L15.0989 27.1793C14.5618 26.9049 13.9672 26.7621 13.364 26.7622L4.72236 26.7842C3.7353 26.7847 2.78883 27.177 2.09088 27.875C1.39292 28.5729 1.00058 29.5194 1 30.5064V43.5404" stroke="#3F2355" stroke-width="2" stroke-miterlimit="10" stroke-linecap="round"/>
</svg>
