<svg width="24" height="24" viewBox="0 0 24 24" fill="none" xmlns="http://www.w3.org/2000/svg">
<g clip-path="url(#clip0)">
<g clip-path="url(#clip1)">
<path d="M20.4856 5.63972C18.2191 3.37324 15.2056 2.125 12.0003 2.125C9.67868 2.125 7.43107 2.78518 5.50032 4.03412C5.33746 4.13947 5.29087 4.35688 5.39618 4.51973C5.50154 4.68263 5.71894 4.72918 5.8818 4.62387C7.69858 3.44858 9.81433 2.82736 12.0003 2.82736C15.018 2.82736 17.8551 4.00251 19.9889 6.13634C22.1227 8.27021 23.2979 11.1073 23.2979 14.125C23.2979 15.9518 22.8549 17.7623 22.0169 19.3608C21.9269 19.5325 21.9931 19.7448 22.1649 19.8349C22.217 19.8622 22.2727 19.8751 22.3276 19.8751C22.4541 19.8751 22.5762 19.8066 22.639 19.6869C23.5295 17.9883 24.0003 16.065 24.0003 14.125C24.0003 10.9197 22.7521 7.90625 20.4856 5.63972Z" fill="#3F2355"/>
<path d="M0.702364 14.1253C0.702364 11.1076 1.87751 8.27044 4.01134 6.13661C4.2308 5.91715 4.46666 5.7004 4.71235 5.49222C4.86036 5.36687 4.87866 5.14525 4.75332 4.99728C4.62797 4.84927 4.4064 4.83087 4.25838 4.95631C3.99795 5.1769 3.74777 5.4069 3.51472 5.63999C1.24824 7.90648 0 10.9199 0 14.1253C0 16.0652 0.470724 17.9885 1.36127 19.6872C1.42407 19.8069 1.54618 19.8754 1.67261 19.8754C1.72758 19.8754 1.78335 19.8624 1.83537 19.8351C2.00712 19.7451 2.07338 19.5328 1.98333 19.3611C1.14532 17.7626 0.702364 15.9521 0.702364 14.1253Z" fill="#3F2355"/>
<path d="M18.0235 10.4268L13.684 12.2045C13.2204 11.7988 12.6193 11.5699 12.0001 11.5699C11.6073 11.5699 11.2301 11.657 10.8788 11.8287C10.7046 11.9139 10.6324 12.1242 10.7176 12.2985C10.8028 12.4727 11.0132 12.5448 11.1874 12.4597C11.4418 12.3353 11.7152 12.2722 12.0001 12.2722C12.33 12.2722 12.6446 12.3574 12.9215 12.5169L11.8505 12.9557C11.5616 13.0741 11.3348 13.3102 11.2282 13.6037C11.1215 13.8972 11.1439 14.224 11.2895 14.5002C11.4351 14.7764 11.692 14.9796 11.9944 15.0575C12.0854 15.0809 12.1782 15.0925 12.2706 15.0925C12.4855 15.0925 12.6983 15.0301 12.8808 14.9103L13.8469 14.2754C13.7704 15.2275 12.9716 15.9791 12.0001 15.9791C10.9781 15.9791 10.1467 15.1477 10.1467 14.1257C10.1467 13.8623 10.2013 13.6072 10.309 13.3675C10.3885 13.1905 10.3096 12.9827 10.1326 12.9032C9.9557 12.8237 9.7478 12.9027 9.66834 13.0796C9.51972 13.4105 9.44434 13.7625 9.44434 14.1257C9.44434 15.535 10.5908 16.6815 12.0001 16.6815C13.4094 16.6815 14.5559 15.535 14.5559 14.1257C14.5559 14.0246 14.5491 13.9231 14.537 13.822L15.2066 13.382C15.3687 13.2755 15.4138 13.0578 15.3072 12.8957C15.2007 12.7335 14.983 12.6885 14.8209 12.795L12.495 14.3233C12.3978 14.3872 12.2823 14.4064 12.1696 14.3774C12.0569 14.3483 11.965 14.2757 11.9108 14.1727C11.8566 14.0698 11.8486 13.9529 11.8883 13.8436C11.928 13.7343 12.0092 13.6498 12.1168 13.6056L16.0359 12.0001C15.9038 12.1134 15.8733 12.3099 15.9714 12.4592C16.078 12.6213 16.2956 12.6664 16.4578 12.5599L18.4558 11.247C18.6573 11.1146 18.7245 10.8539 18.6121 10.6406C18.4996 10.4274 18.2466 10.3354 18.0235 10.4268Z" fill="#3F2355"/>
<path d="M19.4123 6.71275C17.4325 4.73293 14.8002 3.64258 12.0003 3.64258C9.20038 3.64258 6.56806 4.73293 4.58824 6.71275C2.60842 8.69257 1.51807 11.3249 1.51807 14.1248C1.51807 15.8141 1.93012 17.4937 2.70974 18.9818C2.79965 19.1535 3.01167 19.2199 3.18351 19.1301L4.87335 18.2467C5.04524 18.1569 5.11173 17.9447 5.02188 17.7728C4.93207 17.601 4.71986 17.5344 4.54797 17.6243L3.1748 18.3422C2.8585 17.6804 2.6183 16.9821 2.45788 16.2649L3.152 16.1399C3.3429 16.1056 3.46975 15.9229 3.43538 15.732C3.40101 15.5412 3.21835 15.4146 3.02749 15.4487L2.32958 15.5744C2.2578 15.0954 2.22048 14.6106 2.22048 14.1248C2.22048 13.9847 2.22413 13.8455 2.22998 13.7068L2.97397 13.7689C2.9839 13.7697 2.99373 13.7701 3.00352 13.7701C3.18426 13.7701 3.3378 13.6314 3.35311 13.4481C3.36922 13.2548 3.22561 13.0851 3.03232 13.069L2.28477 13.0066C2.35688 12.3759 2.48892 11.7632 2.67566 11.1744L3.37151 11.4242C3.4107 11.4382 3.45074 11.4449 3.49012 11.4449C3.63415 11.4449 3.76924 11.3556 3.8207 11.2123C3.8862 11.0298 3.79134 10.8286 3.60882 10.7631L2.91193 10.513C3.14535 9.92775 3.43351 9.37007 3.77045 8.84658L4.37037 9.26233C4.43138 9.30461 4.5011 9.32489 4.57007 9.32489C4.68137 9.32489 4.79085 9.27212 4.85902 9.17369C4.96948 9.0143 4.92982 8.79549 4.77038 8.68499L4.17136 8.26984C4.54708 7.76868 4.96972 7.30466 5.43271 6.88431L5.84369 7.3689C5.91318 7.45084 6.01212 7.49294 6.11171 7.49294C6.19197 7.49294 6.27265 7.46559 6.33867 7.40959C6.48659 7.28415 6.5048 7.06253 6.37936 6.91461L5.96923 6.43096C6.45919 6.04607 6.98667 5.70687 7.54519 5.41989L7.8672 6.10043C7.92718 6.22723 8.05333 6.30149 8.18485 6.30149C8.23519 6.30149 8.28632 6.29063 8.33483 6.26764C8.51014 6.18471 8.58501 5.97531 8.50209 5.8L8.18111 5.12162C8.75002 4.87935 9.34652 4.68994 9.96427 4.5586L10.0945 5.2722C10.1254 5.44171 10.2732 5.56041 10.4395 5.56041C10.4605 5.56041 10.4817 5.55853 10.503 5.5546C10.6938 5.51976 10.8202 5.33691 10.7854 5.14606L10.6561 4.43761C11.0957 4.37692 11.5443 4.3448 12.0003 4.3448C12.4563 4.3448 12.9049 4.37688 13.3445 4.43761L13.2152 5.14606C13.1803 5.33687 13.3068 5.51976 13.4976 5.5546C13.5189 5.55849 13.5401 5.56041 13.561 5.56041C13.7274 5.56041 13.8752 5.44166 13.9061 5.2722L14.0363 4.5586C14.654 4.68994 15.2505 4.87939 15.8195 5.12162L15.4985 5.8C15.4155 5.97531 15.4904 6.18467 15.6657 6.26764C15.7142 6.29058 15.7653 6.30149 15.8157 6.30149C15.9472 6.30149 16.0734 6.22723 16.1334 6.10043L16.4554 5.41989C17.0139 5.70687 17.5414 6.04607 18.0313 6.43096L17.6212 6.91461C17.4958 7.06253 17.514 7.28415 17.6619 7.40959C17.7279 7.46554 17.8086 7.49294 17.8889 7.49294C17.9884 7.49294 18.0874 7.45079 18.1569 7.3689L18.5679 6.88431C19.0308 7.30466 19.4535 7.76873 19.8292 8.26984L19.2302 8.68499C19.0707 8.79545 19.0311 9.01426 19.1415 9.17369C19.2098 9.27212 19.3192 9.32489 19.4305 9.32489C19.4995 9.32489 19.5692 9.30461 19.6302 9.26233L20.2301 8.84658C20.567 9.37007 20.8552 9.9277 21.0886 10.513L20.3917 10.7631C20.2092 10.8286 20.1143 11.0297 20.1799 11.2123C20.2313 11.3557 20.3664 11.4449 20.5104 11.4449C20.5498 11.4449 20.5899 11.4382 20.6291 11.4242L21.3249 11.1744C21.5116 11.7631 21.6436 12.3759 21.7158 13.0066L20.9682 13.069C20.775 13.0851 20.6313 13.2548 20.6475 13.4481C20.6628 13.6315 20.8163 13.7701 20.997 13.7701C21.0068 13.7701 21.0167 13.7697 21.0266 13.7689L21.7706 13.7068C21.7764 13.8455 21.7801 13.9847 21.7801 14.1248C21.7801 14.6106 21.7428 15.0953 21.671 15.5744L20.9731 15.4487C20.7821 15.4143 20.5996 15.5411 20.5652 15.732C20.5308 15.9229 20.6577 16.1056 20.8486 16.1399L21.5427 16.2649C21.3822 16.9821 21.1421 17.6803 20.8258 18.3422L19.4526 17.6243C19.2808 17.5345 19.0685 17.6009 18.9787 17.7728C18.8888 17.9447 18.9553 18.1569 19.1272 18.2467L20.8171 19.1301C20.869 19.1573 20.9246 19.1702 20.9794 19.1702C21.1059 19.1702 21.2281 19.1016 21.2908 18.9819C22.0704 17.4937 22.4825 15.8141 22.4825 14.1248C22.4825 11.3249 21.3921 8.69262 19.4123 6.71275Z" fill="#3F2355"/>
</g>
</g>
<defs>
<clipPath id="clip0">
<path d="M0 4C0 1.79086 1.79086 0 4 0H24V24H4C1.79086 24 0 22.2091 0 20V4Z" fill="white"/>
</clipPath>
<clipPath id="clip1">
<rect width="24" height="24" fill="white" transform="translate(0 -1)"/>
</clipPath>
</defs>
</svg>
