<svg width="25" height="25" viewBox="0 0 25 25" fill="none" xmlns="http://www.w3.org/2000/svg">
<path d="M14.8535 20.791H10.1465C9.74199 20.791 9.41406 21.1189 9.41406 21.5234C9.41406 21.9279 9.74199 22.2559 10.1465 22.2559H14.8535C15.258 22.2559 15.5859 21.9279 15.5859 21.5234C15.5859 21.1189 15.258 20.791 14.8535 20.791Z" fill="black"/>
<path d="M14.56 16.2705C14.7138 15.9619 14.8007 15.6141 14.8007 15.2459C14.8007 13.9753 13.7707 12.9452 12.5 12.9452C12.1317 12.9452 11.7839 13.0322 11.4752 13.1861L8.02534 9.73601C7.73936 9.44998 7.27559 9.44998 6.98955 9.73601C6.70352 10.022 6.70352 10.4857 6.98955 10.7718L10.4397 14.2221C10.2861 14.5305 10.1993 14.878 10.1993 15.2459C10.1993 16.5166 11.2294 17.5467 12.5 17.5467C12.8681 17.5467 13.2156 17.4598 13.5241 17.3062L14.3356 18.1178C14.6217 18.4039 15.0854 18.404 15.3714 18.1179C15.6575 17.832 15.6575 17.3682 15.3715 17.0822L14.56 16.2705ZM12.5 16.0818C12.0391 16.0818 11.6641 15.7069 11.6641 15.246C11.6641 14.7851 12.0391 14.4101 12.5 14.4101C12.9609 14.4101 13.3359 14.7851 13.3359 15.246C13.3359 15.7069 12.9609 16.0818 12.5 16.0818Z" fill="#FB7333"/>
<path d="M12.5 2.74609C5.60747 2.74609 0 8.35356 0 15.2461C0 17.4429 0.579199 19.6043 1.67505 21.4969C1.87749 21.8465 2.32485 21.9661 2.67476 21.7643L4.71338 20.5875C5.06367 20.3852 5.18369 19.9373 4.98145 19.587C4.7792 19.2367 4.33135 19.1165 3.98096 19.3189L2.59756 20.1176C1.96211 18.8275 1.58589 17.4191 1.49014 15.9786H3.08594C3.49043 15.9786 3.81836 15.6506 3.81836 15.2461C3.81836 14.8417 3.49043 14.5137 3.08594 14.5137H1.48975C1.58701 13.0369 1.97593 11.6386 2.59966 10.3759L3.98101 11.1734C4.3314 11.3758 4.77935 11.2556 4.98149 10.9053C5.18374 10.555 5.06372 10.107 4.71343 9.90483L3.33379 9.10825C4.13677 7.91304 5.16699 6.88281 6.36221 6.07983L7.15869 7.45933C7.36094 7.80967 7.80889 7.92979 8.15918 7.72739C8.50947 7.5251 8.62949 7.0772 8.42725 6.7269L7.62979 5.3457C8.89248 4.72202 10.2908 4.33335 11.7676 4.23594V5.83208C11.7676 6.23657 12.0955 6.5645 12.5 6.5645C12.9045 6.5645 13.2324 6.23657 13.2324 5.83208V4.23594C14.7092 4.33335 16.1075 4.72207 17.3702 5.3457L16.5728 6.7269C16.3705 7.0772 16.4905 7.52515 16.8408 7.72739C17.1911 7.92979 17.6391 7.80967 17.8413 7.45933L18.6378 6.07983C19.833 6.88276 20.8633 7.91299 21.6662 9.10825L20.2866 9.90474C19.9363 10.107 19.8163 10.5549 20.0186 10.9052C20.2208 11.2555 20.6687 11.3757 21.019 11.1733L22.4004 10.3758C23.0241 11.6385 23.413 13.0368 23.5103 14.5136H21.9141C21.5096 14.5136 21.1816 14.8416 21.1816 15.246C21.1816 15.6505 21.5096 15.9785 21.9141 15.9785H23.5099C23.4141 17.419 23.0379 18.8274 22.4024 20.1175L21.019 19.3188C20.6687 19.1164 20.2208 19.2366 20.0186 19.5869C19.8163 19.9372 19.9363 20.3852 20.2866 20.5874L22.3252 21.7642C22.6752 21.966 23.1225 21.8465 23.325 21.4968C24.4208 19.6043 25 17.4429 25 15.2461C25 8.35356 19.3925 2.74609 12.5 2.74609Z" fill="#3F2355"/>
</svg>
