<svg width="94" height="65" viewBox="0 0 94 65" fill="none" xmlns="http://www.w3.org/2000/svg">
<path d="M93.4551 26.3876V37.0036C93.4548 40.1876 92.1984 43.2429 89.9588 45.5059C87.7191 47.769 84.677 49.057 81.4932 49.0904C82.2572 47.474 82.6529 45.7083 82.652 43.9205V33.3036C82.6515 32.9137 82.4964 32.5399 82.2207 32.2642C81.945 31.9885 81.5712 31.8334 81.1813 31.8329H63.9141L67.4705 27.3227C68.0601 26.5743 68.8114 25.969 69.6681 25.5522C70.5248 25.1354 71.4648 24.9179 72.4175 24.916H91.9826C92.373 24.916 92.7474 25.071 93.0235 25.347C93.2997 25.623 93.4549 25.9973 93.4551 26.3876Z" fill="#FB7333"/>
<path d="M37.0864 9.70363V3.90181C37.0864 2.29738 38.8174 1.00047 40.954 1.00047C41.9329 0.986566 42.8911 1.2837 43.6904 1.84905C44.0255 2.07928 44.3022 2.38442 44.4987 2.74029C44.6952 3.09617 44.806 3.4929 44.8224 3.89909V9.70091" stroke="#FB7333" stroke-width="2" stroke-miterlimit="10" stroke-linecap="round"/>
<path d="M20.8432 5.16016H11.9297" stroke="#DBDAE1" stroke-width="2" stroke-miterlimit="10" stroke-linecap="round"/>
<path d="M16.3789 9.61774L16.4128 1.04297" stroke="#DBDAE1" stroke-width="2" stroke-miterlimit="10" stroke-linecap="round"/>
<path d="M86.3549 59.4629H77.4414" stroke="#DBDAE1" stroke-width="2" stroke-miterlimit="10" stroke-linecap="round"/>
<path d="M81.8975 63.9205L81.9313 55.3457" stroke="#DBDAE1" stroke-width="2" stroke-miterlimit="10" stroke-linecap="round"/>
<path d="M69.0004 47.1746C71.1364 47.1746 72.8679 45.443 72.8679 43.307C72.8679 41.171 71.1364 39.4395 69.0004 39.4395C66.8644 39.4395 65.1328 41.171 65.1328 43.307C65.1328 45.443 66.8644 47.1746 69.0004 47.1746Z" stroke="#FB7333" stroke-width="2" stroke-miterlimit="10" stroke-linecap="round"/>
<path d="M69.9584 55.3908H17.7254C14.425 55.3903 11.1916 54.4591 8.39655 52.7042C5.60147 50.9492 3.35794 48.4416 1.9235 45.4692V45.4692C1.63893 44.8796 1.50872 44.2274 1.54501 43.5737C1.58131 42.92 1.78295 42.2862 2.13105 41.7317C2.47915 41.1772 2.96231 40.7203 3.53526 40.4035C4.10821 40.0867 4.75221 39.9206 5.40691 39.9206H49.3049C49.8647 39.9208 50.4173 39.7938 50.921 39.5494C51.4246 39.305 51.8662 38.9495 52.2125 38.5096L56.0631 33.6206C56.6522 32.871 57.4038 32.2649 58.2612 31.848C59.1186 31.4311 60.0594 31.2142 61.0128 31.2139H80.5734C80.9633 31.2139 81.3371 31.3688 81.6128 31.6444C81.8884 31.9201 82.0433 32.2939 82.0433 32.6837V43.3006C82.0439 44.8879 81.7318 46.4597 81.1249 47.9263C80.5181 49.393 79.6283 50.7257 78.5063 51.8485C77.3844 52.9713 76.0523 53.862 74.5861 54.47C73.1199 55.0779 71.5483 55.3911 69.961 55.3917L69.9584 55.3908Z" stroke="#3F2355" stroke-width="2" stroke-miterlimit="10" stroke-linecap="round"/>
<path d="M11.9453 38.711L17.2426 28.0265C17.9128 26.8693 18.8743 25.9078 20.0315 25.2377C21.1888 24.5676 22.5014 24.2122 23.8386 24.207H58.6743C59.9749 24.2132 61.249 24.5763 62.3574 25.2569C63.4659 25.9375 64.3661 26.9094 64.9601 28.0665L65.9717 30.0089" stroke="#3F2355" stroke-width="2" stroke-miterlimit="10" stroke-linecap="round"/>
<path d="M45.8731 24.213H23.3906L27.1343 13.5283C27.965 11.1582 29.4616 9.70898 31.0758 9.70898H51.9031C53.4755 9.70898 54.9203 11.1922 55.6611 13.5676L56.2654 15.5107L59.1667 24.213H45.8731Z" stroke="#3F2355" stroke-width="2" stroke-miterlimit="10" stroke-linecap="round"/>
<path d="M29.0998 33.813C30.1366 33.813 30.977 32.9725 30.977 31.9358C30.977 30.899 30.1366 30.0586 29.0998 30.0586C28.0631 30.0586 27.2227 30.899 27.2227 31.9358C27.2227 32.9725 28.0631 33.813 29.0998 33.813Z" fill="#3F2355"/>
<path d="M35.9426 33.812C36.9793 33.812 37.8198 32.9715 37.8198 31.9348C37.8198 30.8981 36.9793 30.0576 35.9426 30.0576C34.9059 30.0576 34.0654 30.8981 34.0654 31.9348C34.0654 32.9715 34.9059 33.812 35.9426 33.812Z" fill="#3F2355"/>
<path d="M37.8069 19.309C38.8436 19.309 39.684 18.4686 39.684 17.4319C39.684 16.3951 38.8436 15.5547 37.8069 15.5547C36.7701 15.5547 35.9297 16.3951 35.9297 17.4319C35.9297 18.4686 36.7701 19.309 37.8069 19.309Z" fill="#3F2355"/>
<path d="M44.6462 19.3086C45.683 19.3086 46.5234 18.4681 46.5234 17.4314C46.5234 16.3946 45.683 15.5542 44.6462 15.5542C43.6095 15.5542 42.769 16.3946 42.769 17.4314C42.769 18.4681 43.6095 19.3086 44.6462 19.3086Z" fill="#3F2355"/>
<path d="M42.7839 33.812C43.8207 33.812 44.6611 32.9715 44.6611 31.9348C44.6611 30.8981 43.8207 30.0576 42.7839 30.0576C41.7472 30.0576 40.9067 30.8981 40.9067 31.9348C40.9067 32.9715 41.7472 33.812 42.7839 33.812Z" fill="#3F2355"/>
</svg>
