<svg width="78" height="70" viewBox="0 0 78 70" fill="none" xmlns="http://www.w3.org/2000/svg">
<path d="M74.9309 23.7374H76.7385V19.9364C76.7364 17.9974 76.3523 16.0777 75.6083 14.2871C74.8643 12.4965 73.7748 10.87 72.4022 9.50051C71.0295 8.13099 69.4005 7.04523 67.6083 6.30531C65.816 5.56538 63.8956 5.18567 61.9565 5.188V11.9286C63.3228 12.3703 64.6153 13.0138 65.7913 13.8376L74.9309 23.7374Z" fill="#FB5100"/>
<path d="M20.5493 53.2179C20.1543 55.4033 19.0325 57.391 17.366 58.8589C15.6995 60.3268 13.5861 61.1888 11.3684 61.3049C9.15061 61.421 6.95862 60.7845 5.14798 59.4986C3.33735 58.2127 2.01428 56.3529 1.3932 54.2208C0.772117 52.0886 0.889481 49.8091 1.72635 47.752C2.56322 45.6949 4.07042 43.9809 6.0036 42.8878C7.93677 41.7948 10.1825 41.387 12.3766 41.7303C14.5706 42.0737 16.5845 43.1482 18.0913 44.7795" stroke="#FB5100" stroke-width="2" stroke-miterlimit="10" stroke-linecap="round"/>
<path d="M65.1137 41.7723C65.702 41.6671 66.2983 41.6135 66.8959 41.6118C69.1954 41.6122 71.4222 42.4173 73.1902 43.8875C74.9583 45.3577 76.1561 47.4003 76.576 49.6611C76.9959 51.9219 76.6114 54.2583 75.4891 56.2653C74.3668 58.2723 72.5776 59.8232 70.4316 60.6492C68.2856 61.4752 65.9182 61.5241 63.7399 60.7876C61.5616 60.051 59.7098 58.5754 58.5055 56.6165C57.3012 54.6577 56.8203 52.3392 57.1464 50.063C57.4724 47.7868 58.5847 45.6964 60.2904 44.1543" stroke="#FB5100" stroke-width="2" stroke-miterlimit="10" stroke-linecap="round"/>
<path d="M28.1086 53.217C28.117 53.0734 28.117 52.9214 28.117 52.7778C28.117 40.8745 15.6672 33.0814 6.77099 29.032C6.39471 28.8594 6.08854 28.5638 5.90311 28.1937C5.71767 27.8236 5.66407 27.4013 5.75112 26.9966C5.83817 26.5919 6.06064 26.2288 6.38185 25.9677C6.70306 25.7066 7.10377 25.563 7.51772 25.5604C9.68265 25.541 12.003 25.5266 14.2363 25.5266L23.478 25.5798C24.5238 25.586 25.5575 25.8034 26.5171 26.2191C27.4768 26.6348 28.3424 27.2403 29.0622 27.999V27.999C29.7803 28.7558 30.6435 29.3599 31.6004 29.7754C32.5573 30.1909 33.5881 30.4093 34.6312 30.4174V30.4174C35.4169 30.4236 36.1876 30.2031 36.8512 29.7826C37.5149 29.3621 38.0433 28.7593 38.3731 28.0462L38.9061 26.8949C39.8448 24.8668 41.3477 23.1519 43.235 21.9551C45.1224 20.7582 47.3145 20.1301 49.5492 20.1459L57.2417 20.2018V12.249C74.8111 12.249 76.7886 27.9931 76.8435 34.5901C76.846 34.8891 76.7743 35.1841 76.635 35.4488C76.4957 35.7134 76.293 35.9395 76.0451 36.1068C75.7972 36.2741 75.5117 36.3774 75.2141 36.4075C74.9166 36.4376 74.6163 36.3936 74.3399 36.2794C70.1728 34.6362 65.5387 34.6283 61.366 36.2574C57.1934 37.8864 53.7905 41.0321 51.8391 45.0641C51.3611 46.1864 50.9659 47.3422 50.6565 48.5222C50.4043 49.4647 49.9642 50.3466 49.3625 51.1146C49.2873 51.2075 49.2113 51.297 49.1344 51.3798C48.5957 51.9617 47.9423 52.4256 47.2154 52.7425C46.4885 53.0594 45.7039 53.2224 44.911 53.2212H12.3577C11.9869 53.2212 11.6197 53.1482 11.2771 53.0063C10.9345 52.8644 10.6232 52.6564 10.361 52.3942C10.0988 52.132 9.89084 51.8208 9.74894 51.4782C9.60703 51.1356 9.53395 50.7682 9.53395 50.3974V50.3974C9.534 49.85 9.69319 49.3145 9.99207 48.8559C10.291 48.3973 10.7167 48.0355 11.2174 47.8144L24.267 42.0545" stroke="#3F2355" stroke-width="2" stroke-miterlimit="10" stroke-linecap="round"/>
<path d="M67.0033 15.3105C66.302 15.8826 65.795 16.6576 65.5518 17.5293C65.3086 18.401 65.3413 19.3266 65.6452 20.179C65.9492 21.0315 66.5095 21.7689 67.2493 22.2901C67.9891 22.8113 68.8722 23.0908 69.7772 23.0901C70.5107 23.0894 71.2326 22.9064 71.878 22.5578" stroke="#3F2355" stroke-width="2" stroke-miterlimit="10" stroke-linecap="round"/>
<path d="M40.1208 4.69531H32.125" stroke="#DBDAE1" stroke-width="2" stroke-miterlimit="10" stroke-linecap="round"/>
<path d="M36.1211 8.69254L36.1515 1" stroke="#DBDAE1" stroke-width="2" stroke-miterlimit="10" stroke-linecap="round"/>
<path d="M40.4294 65.002H32.4336" stroke="#DBDAE1" stroke-width="2" stroke-miterlimit="10" stroke-linecap="round"/>
<path d="M36.4346 69.0006L36.465 61.3081" stroke="#DBDAE1" stroke-width="2" stroke-miterlimit="10" stroke-linecap="round"/>
<path d="M46.6981 41.7954H44.1641" stroke="#3F2355" stroke-width="2" stroke-miterlimit="10" stroke-linecap="round"/>
<path d="M45.0104 46.8652H39.0977" stroke="#3F2355" stroke-width="2" stroke-miterlimit="10" stroke-linecap="round"/>
<path d="M62.3981 36.1821L66.5421 44.7092L69.4427 50.6795C69.6006 50.9976 69.694 51.3439 69.7175 51.6983C69.741 52.0526 69.694 52.408 69.5794 52.7442C69.4649 53.0804 69.2849 53.3905 69.0499 53.6567C68.8148 53.923 68.5295 54.1402 68.2101 54.2956C67.8908 54.4511 67.5439 54.5419 67.1893 54.5627C66.8348 54.5834 66.4797 54.5336 66.1444 54.4165C65.8091 54.2993 65.5003 54.1169 65.2359 53.8799C64.9714 53.6428 64.7565 53.3557 64.6035 53.0352L61.6294 46.9172L57.4761 38.3631" stroke="#3F2355" stroke-width="2" stroke-miterlimit="10" stroke-linecap="round"/>
<path d="M37.0229 30.4312C38.1222 31.3945 39.3238 32.2344 40.6062 32.9357C42.1621 33.6298 43.8472 33.987 45.5509 33.984C51.9959 33.984 57.216 29.0088 57.216 22.868C57.216 22.15 57.2244 21.2292 57.2329 20.1986C57.2413 20.055 57.2413 19.903 57.2413 19.7509C57.2413 19.3455 57.2498 18.9316 57.2498 18.5093" stroke="#3F2355" stroke-width="2" stroke-miterlimit="10" stroke-linecap="round"/>
</svg>
