<svg width="75" height="75" viewBox="0 0 75 75" fill="none" xmlns="http://www.w3.org/2000/svg">
<path d="M51.8917 22.0559C55.1972 22.0559 57.8767 19.3764 57.8767 16.0709C57.8767 12.7655 55.1972 10.0859 51.8917 10.0859C48.5863 10.0859 45.9067 12.7655 45.9067 16.0709C45.9067 19.3764 48.5863 22.0559 51.8917 22.0559Z" fill="#FB7333"/>
<path d="M23.4727 38.5856L22.1326 33.1687C22.021 32.7832 21.9978 32.3776 22.0647 31.9819C22.1315 31.5862 22.2868 31.2103 22.5189 30.8829C22.751 30.5555 23.0539 30.2848 23.4051 30.0907C23.7564 29.8966 24.1469 29.784 24.5476 29.7617H52.6352C53.0359 29.784 53.4264 29.8966 53.7776 30.0907C54.1289 30.2848 54.4318 30.5555 54.6639 30.8829C54.896 31.2103 55.0513 31.5862 55.1182 31.9819C55.185 32.3776 55.1617 32.7832 55.0501 33.1687L53.7102 38.5856C53.5904 39.1422 53.2874 39.6426 52.8495 40.0065C52.4116 40.3703 51.8643 40.5766 51.2952 40.5924H25.8877C25.3185 40.5767 24.7711 40.3704 24.3332 40.0065C23.8953 39.6426 23.5923 39.1422 23.4727 38.5856V38.5856Z" stroke="#3F2355" stroke-width="2" stroke-miterlimit="10" stroke-linecap="round"/>
<path d="M29.1641 29.7635L29.6391 28.0386C29.7843 27.5103 30.099 27.0443 30.5349 26.7123C30.9708 26.3803 31.5036 26.2008 32.0516 26.2012H45.1203C45.6665 26.201 46.1977 26.38 46.6323 26.7108C47.067 27.0416 47.3812 27.5057 47.5266 28.0322L48.0078 29.7635" stroke="#3F2355" stroke-width="2" stroke-miterlimit="10" stroke-linecap="round"/>
<path d="M26.9602 40.8932V54.0557C26.9602 54.7188 26.6967 55.3548 26.2279 55.8236C25.7591 56.2925 25.1232 56.5557 24.4602 56.5557H21.6289C20.9659 56.5557 20.3299 56.2925 19.8611 55.8236C19.3923 55.3548 19.1289 54.7188 19.1289 54.0557V38.7246C19.1289 38.0616 19.3923 37.4256 19.8611 36.9567C20.3299 36.4879 20.9659 36.2246 21.6289 36.2246H22.6851" stroke="#3F2355" stroke-width="2" stroke-miterlimit="10" stroke-linecap="round"/>
<path d="M54.8667 36.2256H55.5417C56.2048 36.2256 56.8406 36.4889 57.3094 36.9577C57.7783 37.4265 58.0417 38.0625 58.0417 38.7256V54.0567C58.0417 54.7197 57.7783 55.3557 57.3094 55.8246C56.8406 56.2934 56.2048 56.5567 55.5417 56.5567H52.7104C52.0474 56.5567 51.4116 56.2934 50.9427 55.8246C50.4739 55.3557 50.2104 54.7197 50.2104 54.0567V40.8942" stroke="#3F2355" stroke-width="2" stroke-miterlimit="10" stroke-linecap="round"/>
<path d="M23.2651 17.4575H29.3726C29.8605 17.4574 30.3377 17.6002 30.7455 17.868C31.1533 18.1357 31.4738 18.5168 31.6676 18.9645L34.3052 25.0601" stroke="#3F2355" stroke-width="2" stroke-miterlimit="10" stroke-linecap="round"/>
<path d="M53.9062 17.4575H47.7981C47.3103 17.4575 46.8332 17.6002 46.4256 17.868C46.0179 18.1357 45.6974 18.5169 45.5037 18.9645L42.8662 25.0601" stroke="#3F2355" stroke-width="2" stroke-miterlimit="10" stroke-linecap="round"/>
<path d="M44.7497 20.708H32.4185" stroke="#3F2355" stroke-width="2" stroke-miterlimit="10" stroke-linecap="round"/>
<path d="M31.1633 45.5547L26.957 47.6547" stroke="#3F2355" stroke-width="2" stroke-miterlimit="10" stroke-linecap="round"/>
<path d="M50.2039 47.6547L46.0039 45.5547" stroke="#3F2355" stroke-width="2" stroke-miterlimit="10" stroke-linecap="round"/>
<path d="M40.4529 47.2373H36.7217" stroke="#3F2355" stroke-width="2" stroke-miterlimit="10" stroke-linecap="round"/>
<path d="M45.5523 37.5002C46.8347 37.5002 47.8742 36.4607 47.8742 35.1783C47.8742 33.896 46.8347 32.8564 45.5523 32.8564C44.27 32.8564 43.2305 33.896 43.2305 35.1783C43.2305 36.4607 44.27 37.5002 45.5523 37.5002Z" stroke="#FB7333" stroke-width="2" stroke-miterlimit="10" stroke-linecap="round"/>
<path d="M31.6187 37.4992C32.9011 37.4992 33.9406 36.4597 33.9406 35.1773C33.9406 33.895 32.9011 32.8555 31.6187 32.8555C30.3364 32.8555 29.2969 33.895 29.2969 35.1773C29.2969 36.4597 30.3364 37.4992 31.6187 37.4992Z" stroke="#FB7333" stroke-width="2" stroke-miterlimit="10" stroke-linecap="round"/>
<path d="M19.187 51.2598H22.097" stroke="#3F2355" stroke-width="2" stroke-miterlimit="10" stroke-linecap="round"/>
<path d="M23.3164 45.3076H26.2264" stroke="#3F2355" stroke-width="2" stroke-miterlimit="10" stroke-linecap="round"/>
<path d="M57.4842 51.2598H54.5742" stroke="#3F2355" stroke-width="2" stroke-miterlimit="10" stroke-linecap="round"/>
<path d="M53.3475 45.3066H50.4375" stroke="#3F2355" stroke-width="2" stroke-miterlimit="10" stroke-linecap="round"/>
<path d="M36.7193 40.5942V48.2694C36.7193 49.0062 36.4267 49.7128 35.9057 50.2338C35.3847 50.7548 34.6781 51.0474 33.9413 51.0474C33.2044 51.0474 32.4978 50.7548 31.9768 50.2338C31.4558 49.7128 31.1631 49.0062 31.1631 48.2694V40.5942" stroke="#3F2355" stroke-width="2" stroke-miterlimit="10" stroke-linecap="round"/>
<path d="M46.0133 40.5938V48.2689C46.0133 49.0057 45.7205 49.7123 45.1995 50.2333C44.6785 50.7543 43.9719 51.0469 43.2351 51.0469C42.4983 51.0469 41.7917 50.7543 41.2707 50.2333C40.7497 49.7123 40.457 49.0057 40.457 48.2689V40.5938" stroke="#3F2355" stroke-width="2" stroke-miterlimit="10" stroke-linecap="round"/>
<path d="M17.2131 23.9922H11.2969" stroke="#DBDAE1" stroke-width="2" stroke-miterlimit="10" stroke-linecap="round"/>
<path d="M14.2544 26.9502L14.2769 21.2583" stroke="#DBDAE1" stroke-width="2" stroke-miterlimit="10" stroke-linecap="round"/>
<path d="M47.7097 60.9795H41.7935" stroke="#DBDAE1" stroke-width="2" stroke-miterlimit="10" stroke-linecap="round"/>
<path d="M44.751 63.9394L44.7735 58.2476" stroke="#DBDAE1" stroke-width="2" stroke-miterlimit="10" stroke-linecap="round"/>
</svg>
