<svg width="86" height="64" viewBox="0 0 86 64" fill="none" xmlns="http://www.w3.org/2000/svg">
<path d="M83.4014 25.3006L75.8902 28.6697C76.063 27.2939 75.7219 25.9026 74.9324 24.7628C73.4789 22.6555 71.3607 21.0964 68.9167 20.335L56.2383 16.403L59.9015 11.9836C60.4 11.3755 61.0535 10.9134 61.7929 10.6458C62.5322 10.3781 63.3301 10.3148 64.1024 10.4628L80.6456 15.5964C82.4907 16.1696 84.089 17.3476 85.1826 18.9403C85.5389 19.4597 85.7769 20.051 85.8798 20.6724C85.9827 21.2938 85.948 21.9301 85.7781 22.5366C85.6082 23.1431 85.3074 23.7049 84.8967 24.1825C84.4861 24.66 83.9756 25.0418 83.4014 25.3006Z" fill="#FB7333"/>
<path d="M52.4365 4.88184H60.8384" stroke="#DBDAE1" stroke-width="2" stroke-miterlimit="10" stroke-linecap="round"/>
<path d="M56.6335 9.08257L56.6016 1" stroke="#DBDAE1" stroke-width="2" stroke-miterlimit="10" stroke-linecap="round"/>
<path d="M14.2383 58.7051H22.6401" stroke="#DBDAE1" stroke-width="2" stroke-miterlimit="10" stroke-linecap="round"/>
<path d="M18.4421 62.9068L18.4102 54.8242" stroke="#DBDAE1" stroke-width="2" stroke-miterlimit="10" stroke-linecap="round"/>
<path d="M82.5826 36.7754C82.5826 41.9593 78.7018 46.1517 73.9345 46.1181L52.3359 45.967" stroke="#3F2355" stroke-width="2" stroke-miterlimit="10" stroke-linecap="round"/>
<path d="M21.8946 24.4591V20.5019C21.8946 17.6108 19.9344 15.2676 17.5164 15.2676H6.43098C6.11995 15.2676 5.81197 15.3286 5.52462 15.4477C5.23726 15.5667 4.97616 15.7412 4.75623 15.9611C4.53629 16.181 4.36183 16.4421 4.2428 16.7295C4.12378 17.0168 4.0625 17.3249 4.0625 17.6359V17.6359V20.7269" stroke="#FB7333" stroke-width="2" stroke-miterlimit="10" stroke-linecap="round"/>
<path d="M10.9945 46.5793C12.6812 46.5793 14.0486 45.212 14.0486 43.5253C14.0486 41.8385 12.6812 40.4712 10.9945 40.4712C9.30778 40.4712 7.94043 41.8385 7.94043 43.5253C7.94043 45.212 9.30778 46.5793 10.9945 46.5793Z" fill="#3F2355"/>
<path d="M37.4525 46.5788C39.1392 46.5788 40.5066 45.2115 40.5066 43.5248C40.5066 41.8381 39.1392 40.4707 37.4525 40.4707C35.7658 40.4707 34.3984 41.8381 34.3984 43.5248C34.3984 45.2115 35.7658 46.5788 37.4525 46.5788Z" fill="#3F2355"/>
<path d="M72.362 45.7279L65.8052 36.7749" stroke="#3F2355" stroke-width="2" stroke-miterlimit="10" stroke-linecap="round"/>
<path d="M59.6854 45.9238L58.1201 39.688" stroke="#3F2355" stroke-width="2" stroke-miterlimit="10" stroke-linecap="round"/>
<path d="M37.9836 19.1972L34.575 15.8842C33.2526 14.599 31.4812 13.8801 29.6372 13.8804H27.6729" stroke="#3F2355" stroke-width="2" stroke-miterlimit="10" stroke-linecap="round"/>
<path d="M45.3003 24.4463H55.2413" stroke="#3F2355" stroke-width="2" stroke-miterlimit="10" stroke-linecap="round"/>
<path d="M67.4575 27.7295H75.3216" stroke="#3F2355" stroke-width="2" stroke-miterlimit="10" stroke-linecap="round"/>
<path d="M18.0941 31.8779C18.0941 31.8779 41.7453 36.0997 42.7409 36.5828C44.0224 37.2023 45.1034 38.1706 45.8598 39.3764C46.6163 40.5822 47.0175 41.9766 47.0174 43.4V43.4C47.0172 45.407 46.2198 47.3318 44.8007 48.7509C43.3815 50.17 41.4568 50.9674 39.4499 50.9677H9.3965C8.40265 50.9678 7.4185 50.7721 6.50026 50.3919C5.58203 50.0116 4.74769 49.4542 4.04489 48.7515C3.34209 48.0488 2.7846 47.2144 2.40424 46.2962C2.02388 45.378 1.82812 44.3939 1.82812 43.4C1.82812 39.7671 5.52493 37.228 8.66049 34.4647C9.93441 33.3473 11.4455 32.534 13.0796 32.0859C14.7138 31.6377 16.4284 31.5666 18.0941 31.8779V31.8779Z" stroke="#3F2355" stroke-width="2" stroke-miterlimit="10" stroke-linecap="round"/>
<path d="M51.7723 39.7677H57.7208C57.8572 39.7707 57.9924 39.7418 58.1157 39.6836L72.5669 33.1974C73.2918 32.8746 73.9404 32.4025 74.4703 31.8118C75.0002 31.2211 75.3995 30.5252 75.6419 29.7696C75.7615 29.4123 75.8432 29.0433 75.8856 28.6689C76.0584 27.2931 75.7173 25.9018 74.9278 24.7619C73.4743 22.6546 71.3561 21.0956 68.9121 20.3341L56.2337 16.4021L50.4028 14.5958L47.0001 13.5372C46.2123 13.3888 45.4023 13.4054 44.6214 13.5862C43.8404 13.767 43.1055 14.1079 42.4631 14.5874C42.0818 14.8648 41.7374 15.1894 41.4381 15.5535L35.5904 22.628C35.0927 23.2718 34.4513 23.79 33.7175 24.1416C32.9837 24.4932 32.1778 24.6683 31.3642 24.6528L27.8019 24.6192L18.459 24.5184L11.788 21.0316C11.3769 20.8216 10.922 20.7123 10.4605 20.7124L3.84821 20.7292C3.09295 20.7296 2.36875 21.0298 1.8347 21.5638C1.30065 22.0979 1.00045 22.8221 1 23.5773V33.5504" stroke="#3F2355" stroke-width="2" stroke-miterlimit="10" stroke-linecap="round"/>
</svg>
