<svg width="89" height="65" viewBox="0 0 89 65" fill="none" xmlns="http://www.w3.org/2000/svg">
<path d="M57.0608 37.6487C56.2619 39.8313 54.8116 41.7157 52.9063 43.0467C51.001 44.3778 48.7328 45.0912 46.4086 45.0905H20.3875C19.5296 45.09 18.707 44.7491 18.1003 44.1425C17.4937 43.5358 17.1528 42.7131 17.1523 41.8553V33.7303C17.1526 32.9186 17.4585 32.1367 18.0092 31.5403C18.5599 30.9439 19.3149 30.5767 20.1241 30.5117V37.4018C20.1233 37.827 20.2063 38.2482 20.3683 38.6413C20.5303 39.0344 20.7681 39.3917 21.0682 39.6929C21.3684 39.994 21.7249 40.2332 22.1174 40.3966C22.5099 40.56 22.9307 40.6444 23.3559 40.6452H49.3689C52.2184 40.6492 54.9648 39.5793 57.0608 37.6487Z" fill="#FB7333"/>
<path d="M8.37207 61.5571H16.8008" stroke="#3F2355" stroke-width="2" stroke-miterlimit="10" stroke-linecap="round"/>
<path d="M1.47656 61.5571H3.00935" stroke="#3F2355" stroke-width="2" stroke-miterlimit="10" stroke-linecap="round"/>
<path d="M32.125 39.6731V26.1562" stroke="#3F2355" stroke-width="2" stroke-miterlimit="10" stroke-linecap="round"/>
<path d="M46.6875 39.6731V26.1562" stroke="#3F2355" stroke-width="2" stroke-miterlimit="10" stroke-linecap="round"/>
<path d="M58.921 8.33813C60.8255 8.33813 62.3694 6.79424 62.3694 4.88977C62.3694 2.98529 60.8255 1.44141 58.921 1.44141C57.0165 1.44141 55.4727 2.98529 55.4727 4.88977C55.4727 6.79424 57.0165 8.33813 58.921 8.33813Z" stroke="#FB7333" stroke-width="2" stroke-miterlimit="10" stroke-linecap="round"/>
<path d="M53.9347 57.7251H35.6055" stroke="#3F2355" stroke-width="2" stroke-miterlimit="10" stroke-linecap="round"/>
<path d="M68.5563 57.7248H71.3C73.7142 57.7246 76.0294 56.7655 77.7365 55.0584C79.4435 53.3513 80.4026 51.036 80.4029 48.6219V26.9826C80.4067 25.6927 80.1324 24.4171 79.5986 23.2428C78.8791 21.6444 77.7131 20.2878 76.2409 19.3362C74.7687 18.3846 73.053 17.8786 71.3 17.8789H21.3099C18.8957 17.8793 16.5804 18.8386 14.8734 20.5458C13.1663 22.2531 12.2072 24.5683 12.207 26.9826V48.6203C12.2067 50.9787 13.122 53.2452 14.7601 54.9419C16.3982 56.6387 18.631 57.6331 20.988 57.7157" stroke="#3F2355" stroke-width="2" stroke-miterlimit="10" stroke-linecap="round"/>
<path d="M23.8731 25.543H58.0068C58.8659 25.543 59.6898 25.8843 60.2973 26.4918C60.9048 27.0993 61.246 27.9232 61.246 28.7823V28.7823C61.246 31.7952 60.0492 34.6846 57.9187 36.8151C55.7883 38.9455 52.8988 40.1423 49.886 40.1423H23.8731C23.0139 40.1423 22.19 39.8011 21.5825 39.1936C20.9751 38.5861 20.6338 37.7622 20.6338 36.9031V36.9031V28.7823C20.6338 27.9232 20.9751 27.0993 21.5825 26.4918C22.19 25.8843 23.0139 25.543 23.8731 25.543Z" stroke="#3F2355" stroke-width="2" stroke-miterlimit="10" stroke-linecap="round"/>
<path d="M80.5504 29.4802V43.886C76.7864 43.5554 73.2827 41.8269 70.7298 39.0412C68.1768 36.2556 66.7598 32.6149 66.7578 28.8364C66.7582 28.0157 67.0845 27.2286 67.6649 26.6482C68.2452 26.0678 69.0323 25.7416 69.853 25.7412H79.7454C80.2798 26.915 80.5544 28.1904 80.5504 29.4802V29.4802Z" stroke="#3F2355" stroke-width="2" stroke-miterlimit="10" stroke-linecap="round"/>
<path d="M29.0625 17.8788V16.3773C29.0627 15.5562 29.389 14.7688 29.9696 14.1883C30.5501 13.6077 31.3375 13.2815 32.1586 13.2812H60.4509C61.2719 13.2815 62.0593 13.6077 62.6399 14.1883C63.2205 14.7688 63.5467 15.5562 63.547 16.3773V17.8788" stroke="#3F2355" stroke-width="2" stroke-miterlimit="10" stroke-linecap="round"/>
<path d="M61.2438 63.0878C65.4756 63.0878 68.9061 59.6572 68.9061 55.4255C68.9061 51.1937 65.4756 47.7632 61.2438 47.7632C57.0121 47.7632 53.5815 51.1937 53.5815 55.4255C53.5815 59.6572 57.0121 63.0878 61.2438 63.0878Z" stroke="#3F2355" stroke-width="2" stroke-miterlimit="10" stroke-linecap="round"/>
<path d="M61.2483 58.4908C62.941 58.4908 64.3131 57.1187 64.3131 55.4261C64.3131 53.7335 62.941 52.3613 61.2483 52.3613C59.5557 52.3613 58.1836 53.7335 58.1836 55.4261C58.1836 57.1187 59.5557 58.4908 61.2483 58.4908Z" fill="#FB7333"/>
<path d="M28.2961 63.0878C32.5278 63.0878 35.9584 59.6572 35.9584 55.4255C35.9584 51.1937 32.5278 47.7632 28.2961 47.7632C24.0643 47.7632 20.6338 51.1937 20.6338 55.4255C20.6338 59.6572 24.0643 63.0878 28.2961 63.0878Z" stroke="#3F2355" stroke-width="2" stroke-miterlimit="10" stroke-linecap="round"/>
<path d="M28.2952 58.4913C29.9878 58.4913 31.36 57.1192 31.36 55.4266C31.36 53.734 29.9878 52.3618 28.2952 52.3618C26.6026 52.3618 25.2305 53.734 25.2305 55.4266C25.2305 57.1192 26.6026 58.4913 28.2952 58.4913Z" fill="#FB7333"/>
<path d="M14.3688 10.8467H6.70654" stroke="#DBDAE1" stroke-width="2" stroke-miterlimit="10" stroke-linecap="round"/>
<path d="M10.5391 14.6783L10.5679 7.30664" stroke="#DBDAE1" stroke-width="2" stroke-miterlimit="10" stroke-linecap="round"/>
<path d="M80.5495 4.54004H72.8872" stroke="#DBDAE1" stroke-width="2" stroke-miterlimit="10" stroke-linecap="round"/>
<path d="M76.7183 8.3717L76.7471 1" stroke="#DBDAE1" stroke-width="2" stroke-miterlimit="10" stroke-linecap="round"/>
<path d="M79.6044 48.5703H75.0068" stroke="#3F2355" stroke-width="2" stroke-miterlimit="10" stroke-linecap="round"/>
<path d="M80.4023 22.1641H82.443C83.792 22.1643 85.0857 22.7002 86.0395 23.6541C86.9934 24.608 87.5294 25.9016 87.5296 27.2505V31.2365" stroke="#3F2355" stroke-width="2" stroke-miterlimit="10" stroke-linecap="round"/>
</svg>
