<svg width="84" height="65" viewBox="0 0 84 65" fill="none" xmlns="http://www.w3.org/2000/svg">
<path d="M13.71 26.4957C17.633 26.4957 20.8131 23.3709 20.8131 19.5162C20.8131 15.6615 17.633 12.5366 13.71 12.5366C9.7871 12.5366 6.60693 15.6615 6.60693 19.5162C6.60693 23.3709 9.7871 26.4957 13.71 26.4957Z" fill="#FB5100"/>
<path d="M55.6698 45.3403H30.6284" stroke="#3F2355" stroke-width="2" stroke-miterlimit="10" stroke-linecap="round"/>
<path d="M8.43946 26.7241C8.13429 27.3075 7.86331 27.8998 7.60566 28.5003C6.06389 32.1406 5.2704 36.0447 5.271 39.9876C5.27045 40.689 5.41051 41.3837 5.68316 42.0319C5.95582 42.6801 6.35577 43.2693 6.86011 43.7657C7.36446 44.262 7.96336 44.6557 8.62261 44.9246C9.28187 45.1935 9.98857 45.3321 10.7024 45.3326H14.8229" stroke="#3F2355" stroke-width="2" stroke-miterlimit="10" stroke-linecap="round"/>
<path d="M75.3058 26.7329C75.044 27.9106 74.9123 29.1126 74.9131 30.3181C74.9131 32.5204 77.3495 34.3066 80.3528 34.3066H82.5707" stroke="#3F2355" stroke-width="2" stroke-miterlimit="10" stroke-linecap="round"/>
<path d="M9.60525 58.8296H1.33984" stroke="#DBDAE1" stroke-width="2" stroke-miterlimit="10" stroke-linecap="round"/>
<path d="M5.47363 62.8904L5.50534 55.0776" stroke="#DBDAE1" stroke-width="2" stroke-miterlimit="10" stroke-linecap="round"/>
<path d="M67.6873 4.75195H59.4219" stroke="#DBDAE1" stroke-width="2" stroke-miterlimit="10" stroke-linecap="round"/>
<path d="M63.5508 8.81278L63.5825 1" stroke="#DBDAE1" stroke-width="2" stroke-miterlimit="10" stroke-linecap="round"/>
<path d="M63.5716 52.4766C67.9536 52.4766 71.506 48.986 71.506 44.6802C71.506 40.3744 67.9536 36.8838 63.5716 36.8838C59.1896 36.8838 55.6372 40.3744 55.6372 44.6802C55.6372 48.986 59.1896 52.4766 63.5716 52.4766Z" stroke="#3F2355" stroke-width="2" stroke-miterlimit="10" stroke-linecap="round"/>
<path d="M63.5703 48.0633C65.3233 48.0633 66.7445 46.6668 66.7445 44.9442C66.7445 43.2216 65.3233 41.8252 63.5703 41.8252C61.8172 41.8252 60.396 43.2216 60.396 44.9442C60.396 46.6668 61.8172 48.0633 63.5703 48.0633Z" stroke="#FB5100" stroke-width="2" stroke-miterlimit="10" stroke-linecap="round"/>
<path d="M22.7269 52.4766C27.1089 52.4766 30.6613 48.986 30.6613 44.6802C30.6613 40.3744 27.1089 36.8838 22.7269 36.8838C18.3448 36.8838 14.7925 40.3744 14.7925 44.6802C14.7925 48.986 18.3448 52.4766 22.7269 52.4766Z" stroke="#3F2355" stroke-width="2" stroke-miterlimit="10" stroke-linecap="round"/>
<path d="M22.7294 48.0633C24.4825 48.0633 25.9037 46.6668 25.9037 44.9442C25.9037 43.2216 24.4825 41.8252 22.7294 41.8252C20.9763 41.8252 19.5552 43.2216 19.5552 44.9442C19.5552 46.6668 20.9763 48.0633 22.7294 48.0633Z" stroke="#FB5100" stroke-width="2" stroke-miterlimit="10" stroke-linecap="round"/>
<path d="M59.4204 26.7285H9.33105" stroke="#3F2355" stroke-width="2" stroke-miterlimit="10" stroke-linecap="round"/>
<path d="M36.6982 14.0386L36.3486 26.6942" stroke="#3F2355" stroke-width="2" stroke-miterlimit="10" stroke-linecap="round"/>
<path d="M71.4687 45.3353H77.1386C78.5788 45.3353 79.96 44.7732 80.9785 43.7727C81.997 42.7722 82.5695 41.4155 82.5699 40.0003V40.0003V32.0726C82.5699 30.655 81.9968 29.2958 80.9767 28.2934C79.9565 27.291 78.5729 26.7276 77.1302 26.7276H60.8462C60.1321 26.7276 59.4251 26.589 58.7657 26.3196C58.1064 26.0502 57.5077 25.6553 57.0041 25.1578L51.3343 17.8562C50.412 16.6704 49.2242 15.7096 47.863 15.0475C46.5018 14.3854 45.0038 14.0401 43.485 14.0386H34.5883C31.885 14.0384 29.2222 14.6846 26.8298 15.9216C24.4375 17.1586 22.3874 18.9492 20.8566 21.1386L16.9478 26.7276" stroke="#3F2355" stroke-width="2" stroke-miterlimit="10" stroke-linecap="round"/>
<path d="M6.41496 31.8794H10.3963C11.0438 31.8911 11.6608 32.1522 12.1145 32.6063C12.5682 33.0603 12.8223 33.6709 12.8223 34.3073C12.8223 34.9436 12.5682 35.5546 12.1145 36.0087C11.6608 36.4627 11.0438 36.7239 10.3963 36.7355H6.11979C5.90148 36.7394 5.6838 36.7117 5.47363 36.6535" stroke="#3F2355" stroke-width="2" stroke-miterlimit="10" stroke-linecap="round"/>
<path d="M36.0696 38.9689C37.0058 38.9689 37.7647 38.2232 37.7647 37.3033C37.7647 36.3834 37.0058 35.6377 36.0696 35.6377C35.1334 35.6377 34.3745 36.3834 34.3745 37.3033C34.3745 38.2232 35.1334 38.9689 36.0696 38.9689Z" fill="#3F2355"/>
<path d="M38.6902 36.4025C39.6264 36.4025 40.3853 35.6568 40.3853 34.7369C40.3853 33.817 39.6264 33.0713 38.6902 33.0713C37.754 33.0713 36.9951 33.817 36.9951 34.7369C36.9951 35.6568 37.754 36.4025 38.6902 36.4025Z" fill="#3F2355"/>
<path d="M41.3064 38.9689C42.2426 38.9689 43.0015 38.2232 43.0015 37.3033C43.0015 36.3834 42.2426 35.6377 41.3064 35.6377C40.3703 35.6377 39.6113 36.3834 39.6113 37.3033C39.6113 38.2232 40.3703 38.9689 41.3064 38.9689Z" fill="#3F2355"/>
<path d="M43.9226 36.4025C44.8588 36.4025 45.6177 35.6568 45.6177 34.7369C45.6177 33.817 44.8588 33.0713 43.9226 33.0713C42.9865 33.0713 42.2275 33.817 42.2275 34.7369C42.2275 35.6568 42.9865 36.4025 43.9226 36.4025Z" fill="#3F2355"/>
<path d="M46.5393 38.9689C47.4755 38.9689 48.2344 38.2232 48.2344 37.3033C48.2344 36.3834 47.4755 35.6377 46.5393 35.6377C45.6032 35.6377 44.8442 36.3834 44.8442 37.3033C44.8442 38.2232 45.6032 38.9689 46.5393 38.9689Z" fill="#3F2355"/>
<path d="M49.1556 36.4025C50.0917 36.4025 50.8507 35.6568 50.8507 34.7369C50.8507 33.817 50.0917 33.0713 49.1556 33.0713C48.2194 33.0713 47.4604 33.817 47.4604 34.7369C47.4604 35.6568 48.2194 36.4025 49.1556 36.4025Z" fill="#3F2355"/>
</svg>
