<svg width="112" height="78" viewBox="0 0 112 78" fill="none" xmlns="http://www.w3.org/2000/svg">
<path d="M112 31.657V44.4765C112 48.3213 110.482 52.0108 107.778 54.7435C105.073 57.4763 101.4 59.0317 97.5553 59.072C98.4778 57.1201 98.9557 54.9879 98.9545 52.829V40.0085C98.9539 39.5376 98.7667 39.0862 98.4337 38.7533C98.1008 38.4204 97.6494 38.233 97.1785 38.2325H76.3273L80.6219 32.7861C81.3339 31.8824 82.2411 31.1514 83.2757 30.6481C84.3102 30.1448 85.4452 29.8822 86.5957 29.8799H110.222C110.693 29.8799 111.145 30.0671 111.479 30.4003C111.812 30.7336 112 31.1855 112 31.657Z" fill="#FA9566"/>
<path d="M43.9288 11.5102V4.50412C43.9288 2.56667 46.0191 1.00056 48.5992 1.00056C49.7813 0.983777 50.9383 1.34259 51.9036 2.02529C52.3082 2.3033 52.6423 2.67178 52.8796 3.10152C53.1169 3.53126 53.2508 4.01034 53.2705 4.50084V11.5069" stroke="#FA9566" stroke-width="2" stroke-miterlimit="10" stroke-linecap="round"/>
<path d="M24.3051 6.02344H13.5415" stroke="#DBDAE1" stroke-width="2" stroke-miterlimit="10" stroke-linecap="round"/>
<path d="M18.9233 11.4054L18.9642 1.05078" stroke="#DBDAE1" stroke-width="2" stroke-miterlimit="10" stroke-linecap="round"/>
<path d="M103.422 71.5977H92.6584" stroke="#DBDAE1" stroke-width="2" stroke-miterlimit="10" stroke-linecap="round"/>
<path d="M98.0402 76.9796L98.0811 66.625" stroke="#DBDAE1" stroke-width="2" stroke-miterlimit="10" stroke-linecap="round"/>
<path d="M82.4593 56.7557C85.0386 56.7557 87.1296 54.6647 87.1296 52.0854C87.1296 49.506 85.0386 47.415 82.4593 47.415C79.8799 47.415 77.7889 49.506 77.7889 52.0854C77.7889 54.6647 79.8799 56.7557 82.4593 56.7557Z" stroke="#FA9566" stroke-width="2" stroke-miterlimit="10" stroke-linecap="round"/>
<path d="M83.6207 66.6816H20.546C16.5606 66.6809 12.6561 65.5565 9.28086 63.4372C5.90562 61.318 3.19641 58.2899 1.46423 54.7006V54.7006C1.12059 53.9886 0.963354 53.201 1.00719 52.4116C1.05102 51.6223 1.29451 50.8569 1.71486 50.1873C2.13521 49.5177 2.71866 48.9659 3.41054 48.5834C4.10242 48.2009 4.88009 48.0002 5.67067 48.0003H58.6803C59.3564 48.0005 60.0236 47.8471 60.6318 47.552C61.24 47.2568 61.7733 46.8276 62.1915 46.2964L66.8413 40.3926C67.5527 39.4874 68.4602 38.7555 69.4956 38.2521C70.531 37.7487 71.6671 37.4868 72.8184 37.4863H96.4391C96.9099 37.4863 97.3613 37.6734 97.6942 38.0062C98.027 38.3391 98.214 38.7906 98.214 39.2613V52.0818C98.2147 53.9985 97.8379 55.8966 97.1051 57.6677C96.3722 59.4388 95.2977 61.0482 93.9429 62.404C92.5881 63.7598 90.9796 64.8355 89.209 65.5696C87.4385 66.3037 85.5407 66.6819 83.624 66.6826L83.6207 66.6816Z" stroke="#3F2355" stroke-width="2" stroke-miterlimit="10" stroke-linecap="round"/>
<path d="M13.5679 46.5389L19.9647 33.6367C20.774 32.2393 21.9351 31.0781 23.3325 30.269C24.7299 29.4598 26.315 29.0307 27.9298 29.0244H69.9961C71.5668 29.0318 73.1053 29.4704 74.4438 30.2922C75.7823 31.1141 76.8694 32.2876 77.5866 33.685L78.8083 36.0305" stroke="#3F2355" stroke-width="2" stroke-miterlimit="10" stroke-linecap="round"/>
<path d="M54.5363 29.0301H27.3873L31.908 16.1277C32.9112 13.2657 34.7184 11.5156 36.6677 11.5156H61.8179C63.7166 11.5156 65.4614 13.3067 66.3559 16.1752L67.0856 18.5216L70.5892 29.0301H54.5363Z" stroke="#3F2355" stroke-width="2" stroke-miterlimit="10" stroke-linecap="round"/>
<path d="M34.2835 40.6235C35.5355 40.6235 36.5504 39.6086 36.5504 38.3567C36.5504 37.1047 35.5355 36.0898 34.2835 36.0898C33.0316 36.0898 32.0167 37.1047 32.0167 38.3567C32.0167 39.6086 33.0316 40.6235 34.2835 40.6235Z" fill="#3F2355"/>
<path d="M42.5446 40.6235C43.7965 40.6235 44.8114 39.6086 44.8114 38.3567C44.8114 37.1047 43.7965 36.0898 42.5446 36.0898C41.2927 36.0898 40.2778 37.1047 40.2778 38.3567C40.2778 39.6086 41.2927 40.6235 42.5446 40.6235Z" fill="#3F2355"/>
<path d="M44.7921 23.1088C46.044 23.1088 47.0589 22.0939 47.0589 20.842C47.0589 19.5901 46.044 18.5752 44.7921 18.5752C43.5401 18.5752 42.5252 19.5901 42.5252 20.842C42.5252 22.0939 43.5401 23.1088 44.7921 23.1088Z" fill="#3F2355"/>
<path d="M53.0531 23.1088C54.3051 23.1088 55.3199 22.0939 55.3199 20.842C55.3199 19.5901 54.3051 18.5752 53.0531 18.5752C51.8012 18.5752 50.7863 19.5901 50.7863 20.842C50.7863 22.0939 51.8012 23.1088 53.0531 23.1088Z" fill="#3F2355"/>
<path d="M50.8057 40.6235C52.0576 40.6235 53.0725 39.6086 53.0725 38.3567C53.0725 37.1047 52.0576 36.0898 50.8057 36.0898C49.5537 36.0898 48.5388 37.1047 48.5388 38.3567C48.5388 39.6086 49.5537 40.6235 50.8057 40.6235Z" fill="#3F2355"/>
</svg>
