<svg width="92" height="77" viewBox="0 0 92 77" fill="none" xmlns="http://www.w3.org/2000/svg">
<path d="M15.1495 9.21199V25.9562L23.7485 25.9347V17.7508C23.7488 15.3076 24.7196 12.9642 26.4473 11.2367C28.1751 9.50915 30.5182 8.53884 32.9615 8.53884H47.2193C47.4878 8.53684 47.7561 8.5508 48.023 8.5807L47.4628 6.63212C46.9053 4.71649 45.7404 3.03389 44.1436 1.83775C42.5468 0.641602 40.6045 -0.00344389 38.6094 1.38288e-05H24.3516C23.1429 0.000269693 21.9462 0.238925 20.8296 0.701711C19.713 1.1645 18.6984 1.84252 17.8439 2.69739C16.9894 3.55225 16.3116 4.56721 15.8493 5.684C15.387 6.80079 15.1493 7.99758 15.1495 9.20628V9.21199Z" fill="#FA9566"/>
<path d="M68.4723 45.8497C70.6596 45.8497 72.4327 44.0765 72.4327 41.8892C72.4327 39.7019 70.6596 37.9287 68.4723 37.9287C66.2849 37.9287 64.5118 39.7019 64.5118 41.8892C64.5118 44.0765 66.2849 45.8497 68.4723 45.8497Z" stroke="#FA9566" stroke-width="2" stroke-miterlimit="10" stroke-linecap="round"/>
<path d="M84.3629 60.7607H86.4079" stroke="#3F2355" stroke-width="2" stroke-miterlimit="10" stroke-linecap="round"/>
<path d="M77.0304 61.1318C71.6533 61.1318 71.6533 53.6006 66.2753 53.6006C60.8972 53.6006 60.8982 61.1318 55.5201 61.1318C50.1421 61.1318 50.141 53.6006 44.7619 53.6006C39.3829 53.6006 39.381 61.1318 34 61.1318C28.619 61.1318 28.621 53.6006 23.2419 53.6006C17.8629 53.6006 17.8589 61.1318 12.476 61.1318C7.09305 61.1318 7.09301 53.6006 1.71006 53.6006" stroke="#3F2355" stroke-width="2" stroke-miterlimit="10" stroke-linecap="round"/>
<path d="M82.4524 48.6766L89.5901 36.3638C89.9907 35.6728 90.2021 34.8885 90.2031 34.0898C90.2041 33.2912 89.9947 32.5065 89.5959 31.8144C89.1972 31.1224 88.6231 30.5476 87.9316 30.148C87.2401 29.7483 86.4555 29.5381 85.6568 29.5381H60.2513C59.0661 29.5378 57.9277 30.0005 57.0791 30.8278L48.5813 39.1092L3.47162 40.9237C3.15288 40.9365 2.84274 41.03 2.57048 41.1963C2.29822 41.3625 2.07288 41.5955 1.91588 41.8732C1.75888 42.1509 1.67545 42.4643 1.67338 42.7833C1.6713 43.1023 1.75073 43.4165 1.9041 43.6962L3.54667 46.6933" stroke="#3F2355" stroke-width="2" stroke-miterlimit="10" stroke-linecap="round"/>
<path d="M10.1095 39.1067L11.9002 30.4737C12.1035 29.4941 12.6383 28.6144 13.4143 27.9828C14.1903 27.3512 15.1602 27.0063 16.1608 27.0061H21.0917L25.2811 12.8847C25.792 11.1624 26.8459 9.65179 28.2856 8.57743C29.7254 7.50307 31.4739 6.9224 33.2703 6.92285H50.5872C56.329 6.92311 61.8356 9.20425 65.8957 13.2643C69.9557 17.3243 72.2367 22.8309 72.237 28.5727V28.5727" stroke="#3F2355" stroke-width="2" stroke-miterlimit="10" stroke-linecap="round"/>
<path d="M67.4386 14.9883H48.3367C47.1518 14.9884 45.9814 15.2482 44.9078 15.7494C43.8342 16.2507 42.8834 16.9814 42.1226 17.8897L41.2117 18.9777C40.9477 19.2931 40.7791 19.6774 40.7257 20.0852C40.6722 20.4931 40.7361 20.908 40.91 21.2807C41.0839 21.6535 41.3604 21.9687 41.7072 22.1898C42.054 22.411 42.4567 22.5286 42.868 22.529H71.3815" stroke="#3F2355" stroke-width="2" stroke-miterlimit="10" stroke-linecap="round"/>
<path d="M86.3562 10.6445H77.1336" stroke="#DBDAE1" stroke-width="2" stroke-miterlimit="10" stroke-linecap="round"/>
<path d="M81.7459 15.2576L81.781 6.38477" stroke="#DBDAE1" stroke-width="2" stroke-miterlimit="10" stroke-linecap="round"/>
<path d="M28.1385 70.4375H18.9159" stroke="#DBDAE1" stroke-width="2" stroke-miterlimit="10" stroke-linecap="round"/>
<path d="M23.5273 75.0486L23.5623 66.1758" stroke="#DBDAE1" stroke-width="2" stroke-miterlimit="10" stroke-linecap="round"/>
</svg>
